<svg width="24" height="24" viewBox="0 0 21 20" fill="none" xmlns="http://www.w3.org/2000/svg">
<path fill-rule="evenodd" clip-rule="evenodd" d="M0.5 10C0.5 5.28595 0.5 2.92893 1.96447 1.46447C3.42893 0 5.78595 0 10.5 0C15.214 0 17.5711 0 19.0355 1.46447C20.5 2.92893 20.5 5.28595 20.5 10C20.5 14.714 20.5 17.0711 19.0355 18.5355C17.5711 20 15.214 20 10.5 20C5.78595 20 3.42893 20 1.96447 18.5355C0.5 17.0711 0.5 14.714 0.5 10ZM15.5 11.25C15.8126 11.25 16.0925 11.4439 16.2022 11.7367C16.312 12.0294 16.2287 12.3595 15.9932 12.5651L12.5557 15.5651C12.2436 15.8374 11.7698 15.8052 11.4974 15.4931C11.2251 15.1811 11.2573 14.7073 11.5694 14.4349L13.5 12.75L5.5 12.75C5.08579 12.75 4.75 12.4142 4.75 12C4.75 11.5858 5.08579 11.25 5.5 11.25L15.5 11.25ZM9.50257 4.50685C9.77493 4.81893 9.74273 5.29271 9.43065 5.56507L7.5 7.25H15.5C15.9142 7.25 16.25 7.58579 16.25 8C16.25 8.41421 15.9142 8.75 15.5 8.75H5.5C5.18737 8.75 4.90753 8.55607 4.79775 8.26334C4.68798 7.97061 4.7713 7.6405 5.00685 7.43493L8.44435 4.43493C8.75643 4.16257 9.23021 4.19477 9.50257 4.50685Z" fill="#3B7FEE"/>
</svg>
