<svg width="41" height="27" viewBox="0 0 41 27" fill="none" xmlns="http://www.w3.org/2000/svg">
<path fill-rule="evenodd" clip-rule="evenodd" d="M20.5857 24.1152C23.503 21.6433 25.3764 17.8072 25.3764 13.5C25.3764 9.19277 23.503 5.35667 20.5857 2.88483C22.7183 1.0779 25.4087 0 28.3329 0C35.2573 0 40.8707 6.04416 40.8707 13.5C40.8707 20.9558 35.2573 27 28.3329 27C25.4087 27 22.7183 25.9221 20.5857 24.1152ZM20.5857 24.1152C18.4532 25.9221 15.7628 27 12.8386 27C5.91415 27 0.300781 20.9558 0.300781 13.5C0.300781 6.04416 5.91415 0 12.8386 0C15.7628 0 18.4532 1.0779 20.5857 2.88483C17.6684 5.35667 15.7951 9.19277 15.7951 13.5C15.7951 17.8072 17.6684 21.6433 20.5857 24.1152Z" fill="#FCFCFC"/>
<path d="M20.5856 24.1151C23.5029 21.6433 25.3763 17.8072 25.3763 13.4999C25.3763 9.1927 23.5029 5.3566 20.5856 2.88477C17.6683 5.3566 15.7949 9.1927 15.7949 13.4999C15.7949 17.8072 17.6683 21.6433 20.5856 24.1151Z" fill="#EBEFF6"/>
</svg>
