<svg width="56" height="19" viewBox="0 0 56 19" fill="none" xmlns="http://www.w3.org/2000/svg">
<path d="M27.3927 0.336181L23.696 18.7127H19.2259L22.9232 0.336181H27.3927ZM46.2002 12.2019L48.5537 5.30095L49.9079 12.2019H46.2002ZM51.1877 18.7127H55.3226L51.7144 0.336181H47.8979C47.0403 0.336181 46.3167 0.866624 45.9946 1.68439L39.2881 18.7127H43.9824L44.9144 15.9686H50.6496L51.1877 18.7127ZM39.5211 12.7126C39.5402 7.86243 33.2138 7.59546 33.2575 5.4289C33.2707 4.76876 33.8619 4.06848 35.1532 3.88876C35.7948 3.79977 37.5586 3.73172 39.5615 4.71176L40.3458 0.81486C39.27 0.399578 37.8857 0 36.164 0C31.7458 0 28.6359 2.49809 28.6097 6.07509C28.5818 8.72033 30.8297 10.1965 32.5236 11.0759C34.265 11.9769 34.8502 12.5538 34.8426 13.3594C34.8311 14.593 33.4533 15.1363 32.168 15.1578C29.9201 15.1956 28.6157 14.5128 27.576 13.9974L26.766 18.024C27.8101 18.5341 29.738 18.9773 31.7382 19C36.4336 19 39.5057 16.5327 39.5211 12.7126ZM21.0051 0.336181L13.7626 18.7127H9.03648L5.47264 4.04696C5.25606 3.14369 5.06791 2.81333 4.40995 2.43236C3.33631 1.81293 1.5615 1.23072 0 0.870114L0.106652 0.336181H7.71289C8.68206 0.336181 9.55442 1.0225 9.77429 2.2096L11.6568 12.8441L16.3085 0.336181H21.0051Z" fill="white"/>
</svg>
