<svg width="251" height="228" viewBox="0 0 251 228" fill="none" xmlns="http://www.w3.org/2000/svg">
<g clip-path="url(#clip0_48_15182)">
<g clip-path="url(#clip1_48_15182)">
<mask id="mask0_48_15182" style="mask-type:luminance" maskUnits="userSpaceOnUse" x="-2" y="-11" width="246" height="239">
<path d="M-1.63983 184.033L60.6321 -10.4012L243.708 32.7723L181.436 227.206L-1.63983 184.033Z" fill="white"/>
</mask>
<g mask="url(#mask0_48_15182)">
<path d="M215.338 87.075C205.871 145.569 210.53 188.898 153.712 205.145C96.895 221.391 38.9491 193.638 24.2753 143.072C9.60144 92.5067 49.9865 58.8979 100.198 28.7749C168.694 -12.3598 224.174 34.1082 215.338 87.075Z" fill="#FAFAFB"/>
</g>
</g>
<g clip-path="url(#clip2_48_15182)">
<path d="M29.2031 85.2843C8.08579 129.151 -54.7923 129.289 -72.8758 98.8211C-87.4917 74.196 -57.4591 61.8999 -57.4591 61.8999C-57.4591 61.8999 -35.7658 50.0825 -0.0978381 65.5043C25.962 76.7719 29.3648 68.5755 29.3648 68.5755C31.8345 72.1716 32.7351 77.9469 29.2031 85.2843Z" fill="#242D35"/>
<path d="M28.7343 68.3745L27.1235 57.4744C26.9028 57.3571 26.6576 57.2884 26.4079 57.2738C26.1582 57.2591 25.9112 57.299 25.6871 57.3902C24.7603 57.7563 24.6869 58.2135 24.6869 58.2135C24.4889 57.9033 24.1727 57.6691 23.8036 57.5594C23.4345 57.4496 23.0406 57.4726 22.7031 57.6236C22.322 57.75 21.9902 57.9707 21.7426 58.2624C21.495 58.554 21.341 58.9057 21.2967 59.2804C21.0897 59.1357 20.8551 59.0296 20.607 58.9686C20.3589 58.9075 20.1024 58.8927 19.8529 58.925C19.6438 58.9475 19.4451 59.0133 19.2716 59.1176C19.0981 59.2218 18.9542 59.3618 18.8506 59.5272L25.5092 69.1829L28.7343 68.3745Z" fill="#242D35"/>
<path d="M24.753 70.1533L29.9202 68.8703" stroke="#FAFAFB" stroke-width="10.0394" stroke-miterlimit="10"/>
</g>
<g clip-path="url(#clip3_48_15182)">
<mask id="mask1_48_15182" style="mask-type:luminance" maskUnits="userSpaceOnUse" x="61" y="43" width="40" height="30">
<path d="M61.8262 63.1286L93.096 43.4311L100.23 52.5645L68.9598 72.262L61.8262 63.1286Z" fill="white"/>
</mask>
<g mask="url(#mask1_48_15182)">
<path d="M96.2583 47.9711C94.4111 55.3136 84.633 62.4451 72.5685 69.5133L65.5614 67.4197C76.0352 61.7242 84.1493 55.4835 86.5463 47.9066L96.2583 47.9711Z" fill="white"/>
<path d="M78.2236 66.4371C76.4234 67.5711 74.5751 68.6829 72.7534 69.75C72.7139 69.7733 72.6691 69.7882 72.6221 69.7935C72.5752 69.7989 72.5273 69.7946 72.4821 69.781L65.4582 67.6805C65.4011 67.6632 65.3504 67.6317 65.3121 67.5896C65.2737 67.5474 65.2493 67.4965 65.2417 67.4427C65.2331 67.3856 65.2437 67.3277 65.2723 67.2766C65.3009 67.2255 65.3461 67.1836 65.4019 67.1565C77.5239 60.5696 84.1586 54.4146 86.2569 47.8161C86.2777 47.7577 86.319 47.7071 86.3746 47.6721C86.4302 47.637 86.4972 47.6193 86.5655 47.6217L96.2776 47.6863C96.3249 47.6867 96.3717 47.6967 96.4145 47.7157C96.4572 47.7347 96.4948 47.7621 96.5243 47.7959C96.5542 47.8295 96.5752 47.8687 96.586 47.9105C96.5967 47.9524 96.5968 47.9957 96.5863 48.0373C94.8956 54.6762 86.9675 60.9291 78.2236 66.4371ZM72.5228 69.1994C82.276 63.4753 93.6459 55.96 95.8564 48.2523L86.7854 48.1931C84.606 54.7517 78.0797 60.8489 66.3028 67.3373L72.5228 69.1994Z" fill="#242D35"/>
<path d="M70.6797 64.5452C70.6797 64.5452 72.1195 66.2364 68.4665 68.1424C67.5756 67.8958 65.8221 67.3604 65.8221 67.3604L70.6797 64.5452Z" fill="#FAFAFB"/>
<path d="M69.3512 67.9733C69.13 68.1126 68.8887 68.2506 68.6271 68.3874C68.5903 68.4069 68.5493 68.4193 68.5067 68.4239C68.4641 68.4285 68.4208 68.4251 68.3794 68.4141C67.4921 68.1722 65.7445 67.6541 65.7335 67.64C65.6762 67.6232 65.6251 67.592 65.5863 67.5502C65.5475 67.5084 65.5226 67.4576 65.5145 67.4038C65.5067 67.3502 65.516 67.2959 65.5412 67.2472C65.5663 67.1986 65.6064 67.1575 65.6566 67.1289L70.5069 64.3044C70.5751 64.2615 70.6598 64.245 70.7424 64.2585C70.8249 64.2721 70.8986 64.3146 70.9471 64.3768C71.1 64.5831 71.2059 64.8145 71.2583 65.0572C71.3108 65.2998 71.3088 65.5489 71.2524 65.7895C71.0708 66.5543 70.4442 67.2848 69.3512 67.9733ZM68.4227 67.8308C69.6962 67.1475 70.4513 66.4096 70.6115 65.6862C70.6688 65.4474 70.6543 65.1982 70.5695 64.9643L66.5551 67.2868C67.0982 67.4517 67.8791 67.6802 68.4227 67.8308Z" fill="#242D35"/>
<path d="M76.7631 66.9204C76.7631 66.9204 74.6853 65.9353 70.299 68.7053C71.617 69.2039 72.6674 69.5318 72.6674 69.5318L76.7631 66.9204Z" fill="#FAFAFB"/>
<path d="M72.85 69.7657C72.8095 69.7914 72.7627 69.8079 72.7135 69.814C72.6642 69.8201 72.6139 69.8156 72.5667 69.8008C72.5667 69.8008 71.4932 69.463 70.1796 68.9651C70.1292 68.9437 70.0858 68.9108 70.0536 68.8696C70.0215 68.8285 70.0018 68.7806 69.9966 68.7308C69.9916 68.6776 70.0023 68.6243 70.0276 68.5765C70.0529 68.5286 70.0918 68.4878 70.1405 68.4582C74.6091 65.6364 76.8286 66.6161 76.9074 66.6679C76.9554 66.6907 76.9963 66.7242 77.0262 66.7652C77.0561 66.8061 77.0739 66.8531 77.078 66.9018C77.0821 66.9504 77.0724 66.999 77.0497 67.0429C77.027 67.0868 76.9921 67.1246 76.9484 67.1526L72.85 69.7657ZM70.9611 68.6442C71.7235 68.9227 72.3433 69.1268 72.6151 69.2143L76.0131 67.0459C75.1913 66.9761 73.5139 67.1375 70.9611 68.6442Z" fill="#242D35"/>
<path d="M87.1586 56.708C86.7064 56.0774 84.3147 56.7346 81.8169 58.1762C79.3189 59.6175 77.6608 61.297 78.1128 61.9278C78.5651 62.558 80.9568 61.9008 83.4548 60.4595C85.9525 59.0179 87.6109 57.3382 87.1589 56.7079L87.1586 56.708Z" fill="#FAFAFB"/>
<path d="M84.317 60.3111C84.1009 60.4472 83.8798 60.5865 83.645 60.7134C81.2627 62.0847 78.5198 62.9942 77.8727 62.0871C77.2255 61.1799 79.2909 59.3194 81.6663 57.949C82.7576 57.3011 83.9383 56.7839 85.1802 56.4104C86.3687 56.0849 87.1297 56.1405 87.443 56.5761C87.752 57.0109 87.4954 57.6551 86.6682 58.4874C85.9632 59.1733 85.1746 59.785 84.317 60.3111ZM81.3469 58.8321C79.0863 60.2561 78.2051 61.5105 78.4017 61.7818C78.5982 62.0532 80.5535 61.8251 83.3021 60.2301C84.3656 59.6395 85.3378 58.926 86.1947 58.1072C86.9278 57.3657 86.9839 56.9806 86.914 56.8813C86.8372 56.7829 86.4278 56.6666 85.373 56.9569C84.1848 57.3142 83.055 57.8096 82.0118 58.4307C81.7782 58.5639 81.5577 58.6993 81.3469 58.8321Z" fill="#242D35"/>
<path d="M90.1975 47.9635C90.1975 47.9635 88.5137 51.2411 84.4604 52.3152C85.3765 50.8255 86.3329 49.181 86.5463 47.9066L90.1975 47.9635Z" fill="#FAFAFB"/>
<path d="M87.2605 51.415C86.4325 51.9389 85.5144 52.3377 84.5417 52.5961C84.4827 52.6091 84.4205 52.6063 84.3627 52.5881C84.3049 52.5699 84.254 52.5371 84.216 52.4936C84.1734 52.4491 84.1468 52.394 84.1399 52.3359C84.1329 52.2777 84.1458 52.2193 84.177 52.1685C85.1244 50.6451 86.0355 49.0605 86.2348 47.8615C86.2456 47.7934 86.2836 47.7316 86.3415 47.6874C86.3994 47.6432 86.4733 47.6196 86.5497 47.6211L90.2009 47.678C90.2534 47.6791 90.305 47.6921 90.3509 47.7157C90.3968 47.7393 90.4356 47.7728 90.4638 47.8131C90.4923 47.8538 90.5092 47.9 90.513 47.9477C90.5167 47.9955 90.5072 48.0431 90.4853 48.0863C89.7247 49.4166 88.6188 50.5582 87.2605 51.415ZM85.127 51.8078C87.0236 51.0825 88.6132 49.8367 89.6729 48.2449L86.8099 48.195C86.5676 49.2604 85.8937 50.5346 85.127 51.8078Z" fill="#242D35"/>
<path d="M92.237 48.025C92.237 48.025 90.7613 52.301 93.7795 52.7461C94.6105 51.6142 95.7782 50.0534 96.1131 48.1045L92.237 48.025Z" fill="#FAFAFB"/>
<path d="M93.9699 52.9752C93.9035 53.0167 93.8216 53.0332 93.7412 53.0213C93.3997 52.9829 93.0712 52.8754 92.7801 52.7069C92.4891 52.5385 92.2431 52.3134 92.0604 52.0484C91.0521 50.5855 91.9071 48.0398 91.9418 47.927C91.9627 47.8692 92.0037 47.8193 92.0588 47.7846C92.1139 47.7499 92.1802 47.7323 92.2478 47.7342L96.1258 47.8161C96.1712 47.8169 96.216 47.8266 96.2572 47.8444C96.2983 47.8623 96.3349 47.8879 96.3643 47.9195C96.3937 47.9511 96.4153 47.9879 96.4276 48.0275C96.4399 48.0671 96.4426 48.1086 96.4356 48.149C96.0856 50.1179 94.9396 51.6965 94.0942 52.8444L94.0515 52.9028C94.03 52.9316 94.0023 52.9563 93.9699 52.9752ZM92.4889 48.3132C92.3168 48.9181 91.886 50.7246 92.5913 51.7455C92.7064 51.915 92.8582 52.0619 93.0375 52.1774C93.2168 52.293 93.4198 52.3746 93.6341 52.4174C94.389 51.3894 95.3661 50.0221 95.7409 48.3698C94.822 48.3576 93.1098 48.3172 92.4853 48.3085L92.4889 48.3132Z" fill="#242D35"/>
</g>
</g>
<g clip-path="url(#clip4_48_15182)">
<mask id="mask2_48_15182" style="mask-type:luminance" maskUnits="userSpaceOnUse" x="203" y="93" width="27" height="31">
<path d="M213.527 93.3845L229.964 98.3546L219.92 123.456L203.483 118.486L213.527 93.3845Z" fill="white"/>
</mask>
<g mask="url(#mask2_48_15182)">
<path d="M221.61 96.2083C217.325 94.9126 212.57 96.7727 211.118 100.402C208.651 106.567 213.671 107.853 211.402 113.525L217.252 115.294C219.521 109.622 224.375 111.322 226.842 105.157C228.295 101.528 225.895 97.5041 221.61 96.2083Z" fill="#FAFAFB"/>
<path d="M217.116 115.633L211.266 113.864C211.172 113.835 211.095 113.772 211.054 113.688C211.013 113.605 211.01 113.507 211.046 113.417C212.108 110.762 211.505 109.126 210.866 107.394C210.172 105.51 209.454 103.563 210.762 100.295C212.286 96.4839 217.214 94.4993 221.745 95.8695C226.277 97.2398 228.724 101.454 227.199 105.265C225.891 108.534 223.938 109.673 222.048 110.776C220.311 111.79 218.67 112.747 217.608 115.402C217.572 115.492 217.5 115.566 217.408 115.61C217.315 115.653 217.211 115.661 217.116 115.633ZM211.888 113.292L217.037 114.849C218.201 112.203 219.964 111.174 221.671 110.178C223.525 109.096 225.276 108.076 226.487 105.049C227.862 101.612 225.613 97.7986 221.474 96.547C217.335 95.2955 212.849 97.0727 211.474 100.51C210.263 103.536 210.907 105.281 211.589 107.129C212.216 108.831 212.865 110.588 211.888 113.292Z" fill="#242D35"/>
<path d="M211.402 113.525L217.252 115.294L215.56 119.522C215.402 119.916 215.125 120.265 214.763 120.524C214.401 120.782 213.971 120.939 213.527 120.974C213.232 120.998 212.939 120.967 212.663 120.883L211.01 120.384C210.595 120.258 210.237 120.018 209.979 119.695C209.722 119.371 209.578 118.978 209.565 118.565C209.556 118.291 209.606 118.015 209.711 117.753L211.402 113.525L211.402 113.525Z" fill="#242D35"/>
<path d="M212.528 121.221L210.875 120.721C210.225 120.524 209.7 120.089 209.415 119.512C209.13 118.935 209.108 118.264 209.355 117.644L211.046 113.418C211.082 113.328 211.154 113.253 211.246 113.21C211.339 113.166 211.443 113.158 211.538 113.187L217.387 114.955C217.482 114.984 217.558 115.047 217.599 115.131C217.641 115.214 217.644 115.312 217.608 115.402L215.916 119.629C215.668 120.248 215.172 120.763 214.536 121.061C213.901 121.36 213.179 121.417 212.528 121.221ZM211.622 113.971L210.066 117.86C209.891 118.3 209.906 118.777 210.108 119.186C210.31 119.596 210.683 119.904 211.145 120.044L212.798 120.544C213.26 120.683 213.773 120.642 214.224 120.43C214.675 120.218 215.027 119.853 215.204 119.414L216.76 115.525L211.622 113.971Z" fill="#242D35"/>
<path d="M213.276 103.602C212.925 103.495 212.642 103.261 212.488 102.95C212.334 102.639 212.323 102.276 212.456 101.942C214.285 97.3711 218.814 97.1444 220.954 97.663C221.305 97.7541 221.597 97.9727 221.766 98.2716C221.935 98.5706 221.967 98.926 221.856 99.2616C221.745 99.5971 221.5 99.886 221.172 100.066C220.845 100.246 220.463 100.303 220.107 100.224C219.725 100.137 216.408 99.4827 215.104 102.743C215.038 102.908 214.938 103.062 214.81 103.194C214.682 103.327 214.529 103.436 214.36 103.516C214.19 103.596 214.007 103.644 213.821 103.659C213.635 103.674 213.45 103.654 213.276 103.602Z" fill="white"/>
</g>
</g>
<g clip-path="url(#clip5_48_15182)">
<mask id="mask3_48_15182" style="mask-type:luminance" maskUnits="userSpaceOnUse" x="151" y="70" width="44" height="36">
<path d="M182.143 105.81L151.36 89.9308L164.102 70.3498L194.886 86.2285L182.143 105.81Z" fill="white"/>
</mask>
<g mask="url(#mask3_48_15182)">
<path d="M182.127 105.122L190.93 91.5948C190.93 91.5948 167.708 80.7028 164.236 70.8569L155.22 84.7121C155.22 84.7121 159.592 95.2414 182.127 105.122Z" fill="white"/>
<path d="M164.45 70.5289C164.532 70.5716 164.594 70.6408 164.624 70.724C168.007 80.3224 190.899 91.1498 191.143 91.2669C191.191 91.2894 191.233 91.3207 191.266 91.3589C191.299 91.3972 191.323 91.4415 191.337 91.4894C191.348 91.5372 191.348 91.5869 191.338 91.6357C191.328 91.6845 191.307 91.7315 191.277 91.7739L182.474 105.301C182.42 105.385 182.334 105.448 182.233 105.478C182.133 105.507 182.026 105.501 181.934 105.461C159.524 95.6312 155.017 85.295 154.836 84.8601C154.815 84.8079 154.807 84.7513 154.813 84.6946C154.819 84.6379 154.84 84.5826 154.873 84.533L163.889 70.6777C163.93 70.6149 163.988 70.5632 164.059 70.5287C164.129 70.4942 164.207 70.4784 164.284 70.4832C164.343 70.4878 164.399 70.5033 164.45 70.5289ZM187.774 90.4575C181.555 87.2495 167.519 79.3395 164.15 71.7017L155.682 84.7141C156.342 86.0663 161.656 95.6403 181.98 104.635L190.363 91.7535C189.875 91.5194 188.955 91.0665 187.774 90.4575Z" fill="#242D35"/>
<path d="M174.219 84.6395C171.931 83.725 168.833 85.3738 167.301 88.3221C165.768 91.2704 166.381 94.4025 168.668 95.3175C170.957 96.232 174.054 94.5832 175.587 91.6349C177.12 88.6867 176.506 85.5543 174.219 84.6395Z" fill="#FAFAFB"/>
<path d="M174.706 84.4527C175.251 84.7567 175.712 85.1675 176.059 85.6576C176.405 86.1478 176.63 86.7058 176.716 87.2941C176.981 88.8025 176.718 90.3735 175.964 91.7855C174.337 94.9193 170.985 96.6636 168.503 95.6678C166.02 94.6719 165.309 91.3093 166.946 88.1809C167.659 86.7511 168.832 85.5394 170.3 84.7161C171.722 83.9561 173.181 83.8104 174.411 84.3005L174.706 84.4527ZM168.566 94.8641L168.816 94.993C170.899 95.8265 173.759 94.2617 175.189 91.5084C175.879 90.2448 176.13 88.8346 175.906 87.4764C175.667 86.2757 174.995 85.3988 174.011 85.0008C173.027 84.6027 171.82 84.7467 170.638 85.3724C169.322 86.1138 168.272 87.2038 167.636 88.4887C166.3 91.1062 166.712 93.8858 168.591 94.8548L168.566 94.8641Z" fill="#242D35"/>
<path d="M175.819 101.943C175.819 101.943 179.252 97.6167 184.983 100.498C183.779 102.348 182.024 104.925 182.024 104.925L175.819 101.943Z" fill="#FAFAFB"/>
<path d="M185.196 100.17C185.265 100.206 185.319 100.259 185.353 100.325C185.386 100.39 185.397 100.464 185.385 100.537C185.377 100.586 185.358 100.634 185.33 100.678C184.139 102.507 182.384 105.084 182.367 105.11C182.31 105.197 182.219 105.262 182.114 105.289C182.009 105.317 181.898 105.306 181.806 105.259L175.627 102.282C175.577 102.257 175.534 102.223 175.5 102.182C175.466 102.14 175.443 102.092 175.432 102.041C175.42 101.99 175.421 101.936 175.434 101.884C175.447 101.832 175.472 101.782 175.507 101.738C175.539 101.689 179.223 97.1681 185.205 100.171L185.196 100.17ZM181.89 104.431C182.341 103.739 183.498 102.054 184.416 100.657C180.127 98.6943 177.349 100.919 176.455 101.807L181.89 104.431Z" fill="#242D35"/>
<path d="M184.658 88.3606C184.658 88.3606 183.158 93.973 187.528 96.5865C188.871 94.5238 190.929 91.5954 190.929 91.5954C188.741 90.6747 186.644 89.5928 184.658 88.3606Z" fill="#FAFAFB"/>
<path d="M184.872 88.032L184.893 88.0427C186.858 89.2633 188.935 90.3344 191.102 91.2453C191.154 91.2664 191.2 91.2977 191.236 91.3371C191.273 91.3764 191.3 91.423 191.315 91.4736C191.332 91.524 191.337 91.5778 191.329 91.6314C191.322 91.6849 191.302 91.7368 191.271 91.7837C191.252 91.8132 189.199 94.7318 187.876 96.765C187.847 96.8099 187.808 96.8492 187.762 96.8805C187.716 96.9118 187.664 96.9345 187.609 96.9471C187.555 96.9598 187.499 96.9625 187.445 96.9549C187.391 96.9474 187.34 96.9297 187.295 96.9031C182.752 94.1832 184.236 88.3391 184.268 88.2899C184.284 88.2294 184.316 88.1726 184.361 88.1247C184.406 88.0768 184.462 88.0393 184.526 88.0154C184.582 87.9944 184.643 87.985 184.703 87.9879C184.763 87.9907 184.82 88.0058 184.872 88.032ZM187.416 96.046C188.441 94.4719 189.79 92.5485 190.338 91.7627C188.473 90.9485 186.674 90.0204 184.952 88.9846C184.725 90.3959 184.489 94.0234 187.416 96.046Z" fill="#242D35"/>
<path d="M158.66 89.4601C158.66 89.4601 162.283 84.3642 158.305 80.2057C157.163 82.0824 155.22 84.7115 155.22 84.7115C155.22 84.7115 157.448 88.252 158.66 89.4601Z" fill="#FAFAFB"/>
<path d="M158.519 79.8781C158.556 79.8982 158.59 79.923 158.619 79.9518C162.761 84.2782 159.037 89.602 158.999 89.6527C158.964 89.7018 158.918 89.7436 158.864 89.7748C158.81 89.806 158.75 89.8258 158.688 89.8326C158.625 89.8394 158.563 89.8331 158.505 89.8141C158.448 89.7952 158.396 89.7641 158.355 89.7233C157.127 88.5029 154.954 85.0564 154.864 84.9093C154.827 84.85 154.809 84.7813 154.813 84.7112C154.817 84.6412 154.842 84.5724 154.886 84.513C154.903 84.4867 156.829 81.8756 157.952 80.0367C157.979 79.9922 158.015 79.9526 158.059 79.9204C158.102 79.8882 158.152 79.8639 158.205 79.8492C158.257 79.8344 158.312 79.8293 158.366 79.8343C158.42 79.8392 158.472 79.8541 158.519 79.8781ZM158.609 88.8121C159.329 87.5629 160.957 84.0137 158.353 80.866C157.389 82.3483 156.139 84.1042 155.699 84.7093C156.589 86.1255 157.56 87.4949 158.609 88.8121Z" fill="#242D35"/>
<path d="M167.854 76.2802C167.854 76.2802 164.821 79.2883 160.578 76.5919C161.711 74.8505 164.236 70.8571 164.236 70.8571C164.236 70.8571 165.408 74.3658 167.854 76.2802Z" fill="#FAFAFB"/>
<path d="M164.45 70.5289C164.534 70.5725 164.596 70.6437 164.625 70.7291C164.638 70.7664 165.799 74.1641 168.126 75.9907C168.187 76.0384 168.23 76.1027 168.249 76.175C168.268 76.2474 168.262 76.3244 168.232 76.396C168.213 76.4438 168.183 76.4879 168.144 76.5257C168.121 76.5618 164.812 79.7433 160.347 76.8837C160.265 76.8316 160.209 76.7523 160.19 76.6614C160.171 76.5705 160.19 76.4747 160.244 76.3927C161.362 74.6744 163.874 70.7007 163.9 70.6613C163.94 70.5976 163.999 70.545 164.069 70.5099C164.14 70.4748 164.219 70.4587 164.297 70.4635C164.353 70.4755 164.405 70.4977 164.45 70.5289ZM167.252 76.2932C165.619 74.8684 164.604 72.8292 164.139 71.7398C163.405 72.8679 161.994 75.1226 161.126 76.4624C164.162 78.2122 166.444 76.9012 167.252 76.2932Z" fill="#242D35"/>
</g>
</g>
<g clip-path="url(#clip6_48_15182)">
<mask id="mask4_48_15182" style="mask-type:luminance" maskUnits="userSpaceOnUse" x="125" y="21" width="37" height="23">
<path d="M161.243 43.5634L125.14 43.5634V21.4521L161.243 21.4521V43.5634Z" fill="white"/>
</mask>
<g mask="url(#mask4_48_15182)">
<path d="M160.836 42.9894V27.714C160.836 27.714 134.222 28.6324 125.547 21.8224V37.468C125.547 37.468 135.403 44.4632 160.836 42.9894Z" fill="white"/>
<path d="M125.547 21.4521C125.644 21.452 125.738 21.4836 125.812 21.5409C134.266 28.1806 160.555 27.3511 160.836 27.3437C160.891 27.342 160.945 27.3503 160.996 27.3681C161.047 27.3859 161.094 27.4129 161.133 27.4474C161.17 27.483 161.199 27.5249 161.218 27.5707C161.236 27.6165 161.245 27.6652 161.243 27.714V42.9894C161.243 43.0838 161.204 43.1748 161.133 43.2436C161.062 43.3125 160.964 43.354 160.86 43.3597C135.565 44.8224 125.702 38.0494 125.294 37.7606C125.246 37.7257 125.207 37.6813 125.18 37.6306C125.153 37.5799 125.139 37.5243 125.14 37.468V21.8224C125.139 21.7515 125.162 21.6821 125.203 21.6224C125.245 21.5627 125.305 21.5151 125.376 21.4854C125.43 21.4638 125.488 21.4525 125.547 21.4521ZM157.415 28.1288C150.121 28.1288 133.277 27.5622 125.954 22.5741V37.268C127.306 38.1235 137.443 43.9003 160.429 42.6413V28.0954C159.867 28.1102 158.8 28.1288 157.415 28.1288Z" fill="#242D35"/>
<path d="M142.188 29.1212C139.656 29.346 137.879 32.0907 138.218 35.2517C138.556 38.4127 140.884 40.7934 143.416 40.5694C145.948 40.3446 147.726 37.5999 147.387 34.4389C147.048 31.2779 144.72 28.8972 142.188 29.1212Z" fill="#FAFAFB"/>
<path d="M142.509 28.7509C143.161 28.7704 143.801 28.9166 144.385 29.1798C144.97 29.443 145.485 29.817 145.898 30.2766C146.992 31.4365 147.659 32.8793 147.804 34.4019C148.166 37.7606 146.219 40.6971 143.47 40.9378C140.721 41.1785 138.176 38.6456 137.826 35.2869C137.635 33.7672 137.972 32.2313 138.791 30.895C139.605 29.6322 140.803 28.8731 142.163 28.7509H142.509ZM143.067 40.2306H143.36C145.665 40.0269 147.282 37.4569 146.965 34.5055C146.848 33.1364 146.263 31.8348 145.291 30.7839C144.395 29.8729 143.303 29.4249 142.212 29.5174C141.12 29.61 140.143 30.2581 139.463 31.3023C138.731 32.5031 138.432 33.8826 138.608 35.2462C138.929 38.042 140.88 40.212 143.083 40.212L143.067 40.2306Z" fill="#242D35"/>
<path d="M153.481 43.0527C153.481 43.0527 154.023 37.8979 160.702 37.835C160.702 39.9235 160.632 42.8675 160.632 42.8675L153.481 43.0527Z" fill="#FAFAFB"/>
<path d="M160.702 37.4643C160.782 37.4645 160.86 37.4862 160.927 37.5268C160.994 37.5674 161.046 37.625 161.077 37.6924C161.098 37.7375 161.109 37.786 161.109 37.835C161.109 39.901 161.04 42.8449 161.04 42.8746C161.04 42.9728 160.997 43.067 160.92 43.1364C160.844 43.2058 160.74 43.2449 160.632 43.2449L153.505 43.4226C153.448 43.4239 153.39 43.4141 153.337 43.3936C153.284 43.3732 153.236 43.3427 153.196 43.3042C153.157 43.2657 153.127 43.22 153.109 43.1702C153.091 43.1204 153.084 43.0676 153.09 43.0153C153.09 42.9597 153.742 37.531 160.71 37.4606L160.702 37.4643ZM160.233 42.5079C160.233 41.7266 160.286 39.7973 160.294 38.216C155.407 38.4271 154.238 41.5192 153.961 42.6598L160.233 42.5079Z" fill="#242D35"/>
<path d="M153.481 27.7148C153.481 27.7148 155.371 33.1139 160.702 33.4175C160.702 31.0883 160.836 27.7148 160.836 27.7148C158.388 27.8906 155.929 27.8906 153.481 27.7148Z" fill="#FAFAFB"/>
<path d="M153.481 27.3437H153.505C155.929 27.5185 158.364 27.5185 160.787 27.3437C160.845 27.3388 160.903 27.3452 160.958 27.3625C161.013 27.3797 161.063 27.4074 161.105 27.4437C161.149 27.4788 161.184 27.5221 161.208 27.5707C161.232 27.6192 161.244 27.6719 161.243 27.7251C161.243 27.7584 161.109 31.1209 161.109 33.4168C161.109 33.4676 161.097 33.5178 161.075 33.5643C161.052 33.6108 161.019 33.6526 160.979 33.6871C160.938 33.7215 160.891 33.748 160.839 33.7652C160.787 33.7824 160.732 33.7899 160.677 33.7871C155.134 33.4686 153.098 27.8806 153.098 27.8251C153.077 27.7669 153.073 27.7051 153.085 27.645C153.097 27.5849 153.125 27.5285 153.167 27.4807C153.205 27.4382 153.253 27.4038 153.307 27.3801C153.361 27.3564 153.421 27.344 153.481 27.3437ZM160.294 33.0094C160.294 31.232 160.38 29.0175 160.412 28.1139C158.309 28.2391 156.199 28.2391 154.096 28.1139C154.703 29.4063 156.568 32.5762 160.294 33.0094Z" fill="#242D35"/>
<path d="M131.281 39.9817C131.281 39.9817 131.55 34.0937 125.681 32.3125C125.75 34.3974 125.547 37.4673 125.547 37.4673C125.547 37.4673 129.526 39.4892 131.281 39.9817Z" fill="#FAFAFB"/>
<path d="M125.681 31.9426C125.725 31.9433 125.769 31.9495 125.812 31.9611C131.921 33.8126 131.692 39.9376 131.688 39.9968C131.686 40.0535 131.67 40.1089 131.64 40.1588C131.61 40.2087 131.569 40.2518 131.518 40.2847C131.467 40.3176 131.409 40.3395 131.347 40.3486C131.286 40.3578 131.223 40.354 131.163 40.3375C129.387 39.8413 125.51 37.875 125.347 37.7898C125.281 37.7559 125.226 37.7056 125.189 37.6447C125.152 37.5838 125.135 37.5147 125.14 37.4454C125.14 37.4158 125.339 34.3681 125.274 32.324C125.272 32.2744 125.282 32.2251 125.302 32.1789C125.321 32.1327 125.351 32.0906 125.389 32.055C125.427 32.0195 125.472 31.9912 125.523 31.9719C125.573 31.9526 125.627 31.9426 125.681 31.9426ZM130.866 39.4562C130.784 38.086 130.186 34.3755 126.101 32.8498C126.101 34.5236 126.007 36.5529 125.966 37.2565C127.557 38.0658 129.192 38.8 130.866 39.4562Z" fill="#242D35"/>
<path d="M131.823 24.8297C131.823 24.8297 130.878 28.6957 125.612 28.2662C125.612 26.2998 125.547 21.8228 125.547 21.8228C125.547 21.8228 128.581 24.2779 131.823 24.8297Z" fill="#FAFAFB"/>
<path d="M125.547 21.4521C125.646 21.4522 125.741 21.4851 125.816 21.5447C125.848 21.5706 128.809 23.9369 131.896 24.4664C131.977 24.4802 132.051 24.5159 132.109 24.5688C132.167 24.6217 132.206 24.6892 132.221 24.7627C132.231 24.8117 132.23 24.8621 132.218 24.9108C132.218 24.9515 131.13 29.0842 125.575 28.6139C125.474 28.6056 125.379 28.5629 125.311 28.4943C125.242 28.4258 125.204 28.3363 125.205 28.2436C125.205 26.3032 125.14 21.8483 125.14 21.8039C125.139 21.7324 125.16 21.6622 125.202 21.6018C125.244 21.5413 125.304 21.4932 125.376 21.4632C125.431 21.4491 125.49 21.4453 125.547 21.4521ZM131.301 25.1033C129.053 24.6108 126.997 23.3296 125.966 22.6111C125.966 23.885 126.015 26.4068 126.019 27.9177C129.685 28.0732 130.939 25.9699 131.301 25.1033Z" fill="#242D35"/>
</g>
</g>
<g clip-path="url(#clip7_48_15182)">
<mask id="mask5_48_15182" style="mask-type:luminance" maskUnits="userSpaceOnUse" x="179" y="15" width="45" height="34">
<path d="M179.411 37.9959L215.015 15.5686L223.109 25.9318L187.506 48.3591L179.411 37.9959Z" fill="white"/>
</mask>
<g mask="url(#mask5_48_15182)">
<path d="M218.602 20.7205C216.486 29.0642 205.351 37.1815 191.615 45.2307L183.651 42.864C195.574 36.3769 204.815 29.2743 207.556 20.6634L218.602 20.7205Z" fill="white"/>
<path d="M198.053 41.7269C196.003 43.018 193.899 44.284 191.825 45.4993C191.78 45.5258 191.729 45.5427 191.676 45.5489C191.622 45.5551 191.568 45.5503 191.517 45.5349L183.533 43.1605C183.468 43.141 183.41 43.1052 183.367 43.0575C183.323 43.0097 183.296 42.9519 183.287 42.8908C183.277 42.8259 183.29 42.7601 183.322 42.702C183.355 42.6439 183.406 42.5963 183.47 42.5654C197.269 35.0629 204.828 28.0601 207.228 20.5611C207.251 20.4947 207.298 20.4372 207.362 20.3973C207.425 20.3574 207.501 20.3372 207.579 20.3398L218.624 20.3969C218.678 20.3973 218.731 20.4087 218.78 20.4302C218.828 20.4517 218.871 20.4827 218.905 20.521C218.938 20.5592 218.962 20.6037 218.974 20.6512C218.986 20.6987 218.987 20.7479 218.974 20.7952C217.038 28.3394 208.009 35.4556 198.053 41.7269ZM191.564 44.8742C202.668 38.3557 215.614 29.7998 218.144 21.0406L207.828 20.9884C205.336 28.4422 197.901 35.3792 184.494 42.7692L191.564 44.8742Z" fill="#242D35"/>
<path d="M189.477 39.5904C189.477 39.5904 191.111 41.509 186.953 43.6802C185.94 43.4016 183.947 42.7963 183.947 42.7963L189.477 39.5904Z" fill="#FAFAFB"/>
<path d="M187.959 43.4866C187.708 43.6452 187.433 43.8024 187.135 43.9582C187.093 43.9804 187.047 43.9946 186.998 43.9999C186.95 44.0051 186.9 44.0014 186.853 43.9889C185.845 43.7157 183.858 43.13 183.846 43.114C183.781 43.095 183.723 43.0597 183.679 43.0123C183.635 42.9648 183.606 42.9072 183.597 42.8461C183.589 42.7852 183.599 42.7235 183.628 42.6682C183.657 42.6129 183.702 42.5662 183.76 42.5336L189.281 39.3171C189.359 39.2682 189.455 39.2493 189.549 39.2645C189.643 39.2798 189.727 39.328 189.782 39.3986C189.955 39.6327 190.075 39.8953 190.134 40.1709C190.194 40.4465 190.191 40.7294 190.126 41.0028C189.918 41.8719 189.204 42.7027 187.959 43.4866ZM186.904 43.3263C188.354 42.548 189.214 41.7085 189.398 40.8865C189.463 40.6151 189.447 40.3321 189.351 40.0666L184.781 42.7115C185.398 42.8979 186.286 43.1561 186.904 43.3263Z" fill="#242D35"/>
<path d="M196.391 42.2782C196.391 42.2782 194.03 41.1627 189.036 44.3166C190.534 44.8808 191.728 45.2515 191.728 45.2515L196.391 42.2782Z" fill="#FAFAFB"/>
<path d="M191.935 45.5169C191.889 45.5461 191.836 45.565 191.78 45.572C191.724 45.5791 191.666 45.574 191.613 45.5573C191.613 45.5573 190.393 45.1753 188.9 44.612C188.842 44.5877 188.793 44.5504 188.757 44.5037C188.72 44.457 188.698 44.4026 188.692 44.346C188.686 44.2856 188.699 44.2251 188.728 44.1707C188.756 44.1163 188.801 44.0699 188.856 44.0362C193.944 40.8233 196.466 41.9325 196.556 41.9912C196.61 42.0171 196.657 42.0551 196.691 42.1015C196.725 42.148 196.745 42.2014 196.749 42.2566C196.754 42.3119 196.743 42.3671 196.717 42.417C196.691 42.4669 196.651 42.5099 196.601 42.5418L191.935 45.5169ZM189.789 44.2461C190.656 44.5612 191.36 44.792 191.669 44.891L195.538 42.4221C194.603 42.3442 192.695 42.5304 189.789 44.2461Z" fill="#242D35"/>
<path d="M208.235 30.6604C207.722 29.9448 205 30.6953 202.157 32.337C199.313 33.9784 197.424 35.889 197.936 36.6048C198.449 37.3199 201.171 36.5694 204.015 34.9279C206.858 33.2862 208.748 31.3755 208.235 30.6602L208.235 30.6604Z" fill="#FAFAFB"/>
<path d="M204.995 34.758C204.75 34.9129 204.498 35.0716 204.231 35.2161C201.518 36.7777 198.397 37.8155 197.663 36.7861C196.929 35.7567 199.282 33.6398 201.986 32.0792C203.228 31.3414 204.572 30.7519 205.985 30.3255C207.338 29.9538 208.203 30.0157 208.558 30.51C208.909 31.0034 208.616 31.7356 207.673 32.6824C206.87 33.4627 205.972 34.1589 204.995 34.758ZM201.621 33.0829C199.047 34.7042 198.042 36.1306 198.265 36.4385C198.488 36.7464 200.712 36.484 203.841 34.6676C205.052 33.995 206.159 33.1829 207.136 32.2514C207.971 31.4078 208.035 30.9703 207.956 30.8576C207.869 30.7459 207.404 30.6145 206.203 30.946C204.851 31.3539 203.565 31.9185 202.378 32.6258C202.112 32.7775 201.861 32.9316 201.621 33.0829Z" fill="#242D35"/>
<path d="M211.709 20.7219C211.709 20.7219 209.787 24.448 205.175 25.6748C206.22 23.981 207.311 22.1114 207.556 20.6634L211.709 20.7219Z" fill="#FAFAFB"/>
<path d="M208.362 24.6476C207.419 25.2441 206.374 25.6987 205.267 25.9938C205.2 26.0087 205.129 26.0056 205.064 25.985C204.998 25.9644 204.94 25.9272 204.897 25.8778C204.849 25.8274 204.818 25.7649 204.811 25.6988C204.803 25.6328 204.818 25.5664 204.853 25.5086C205.934 23.7765 206.973 21.9751 207.202 20.6127C207.215 20.5354 207.258 20.465 207.324 20.4147C207.39 20.3644 207.474 20.3376 207.561 20.3392L211.713 20.3977C211.773 20.3989 211.832 20.4135 211.884 20.4403C211.936 20.467 211.98 20.505 212.012 20.5508C212.044 20.5969 212.063 20.6494 212.068 20.7036C212.072 20.7578 212.061 20.8119 212.036 20.861C211.168 22.3734 209.908 23.672 208.362 24.6476ZM205.934 25.0974C208.093 24.2703 209.903 22.8525 211.112 21.0425L207.856 20.9907C207.578 22.2012 206.809 23.6497 205.934 25.0974Z" fill="#242D35"/>
<path d="M214.028 20.7885C214.028 20.7885 212.341 25.6482 215.773 26.1489C216.72 24.8616 218.051 23.0868 218.436 20.8724L214.028 20.7885Z" fill="#FAFAFB"/>
<path d="M215.989 26.4087C215.913 26.456 215.82 26.4749 215.728 26.4615C215.34 26.4184 214.967 26.2969 214.636 26.106C214.305 25.9151 214.026 25.6598 213.819 25.3592C212.675 23.6991 213.653 20.8058 213.693 20.6777C213.716 20.612 213.763 20.5553 213.826 20.5157C213.889 20.4762 213.964 20.456 214.041 20.4582L218.451 20.5448C218.503 20.5456 218.554 20.5565 218.6 20.5767C218.647 20.5969 218.689 20.6259 218.722 20.6618C218.756 20.6976 218.78 20.7394 218.794 20.7844C218.808 20.8294 218.811 20.8764 218.803 20.9223C218.401 23.1595 217.094 24.9546 216.13 26.26L216.082 26.3264C216.057 26.3592 216.025 26.3872 215.989 26.4087ZM214.314 21.1154C214.117 21.8029 213.623 23.8557 214.423 25.0142C214.554 25.2065 214.726 25.3732 214.93 25.5041C215.134 25.635 215.364 25.7275 215.608 25.7757C216.469 24.6067 217.583 23.0518 218.012 21.1743C216.967 21.162 215.02 21.119 214.31 21.1101L214.314 21.1154Z" fill="#242D35"/>
</g>
</g>
<g clip-path="url(#clip8_48_15182)">
<mask id="mask6_48_15182" style="mask-type:luminance" maskUnits="userSpaceOnUse" x="211" y="81" width="21" height="13">
<path d="M231.18 81.922H211.243V93.1734H231.18V81.922Z" fill="white"/>
</mask>
<g mask="url(#mask6_48_15182)">
<path d="M224.35 93.173C224.402 93.1731 224.453 93.1628 224.5 93.1429C224.547 93.123 224.588 93.094 224.622 93.0579L231.097 86.033C231.127 86.0005 231.149 85.9629 231.164 85.9224C231.178 85.8819 231.183 85.8393 231.179 85.797C231.175 85.7547 231.162 85.7135 231.14 85.6758C231.119 85.6381 231.089 85.6047 231.054 85.5773C230.982 85.5221 230.889 85.4953 230.795 85.5027C230.701 85.5101 230.614 85.5511 230.554 85.6168L224.079 92.6416C224.035 92.6888 224.007 92.7462 223.999 92.8072C223.99 92.8683 224 92.9303 224.029 92.9861C224.057 93.0419 224.103 93.0891 224.159 93.1222C224.216 93.1553 224.282 93.1729 224.35 93.173ZM219.186 89.7346C219.27 89.7345 219.351 89.7074 219.415 89.658C219.479 89.6087 219.522 89.5402 219.536 89.4649L220.856 82.299C220.864 82.2571 220.862 82.2143 220.852 82.1729C220.841 82.1315 220.822 82.0923 220.795 82.0577C220.768 82.0232 220.734 81.9938 220.694 81.9712C220.655 81.9487 220.611 81.9335 220.565 81.9265C220.472 81.9127 220.377 81.9328 220.301 81.9825C220.224 82.0321 220.172 82.1073 220.156 82.1917L218.836 89.3572C218.827 89.4036 218.83 89.4512 218.844 89.4967C218.857 89.5421 218.882 89.5842 218.915 89.6202C218.948 89.6561 218.99 89.685 219.037 89.7048C219.084 89.7245 219.135 89.7347 219.186 89.7346ZM212.702 89.3294C212.754 89.3295 212.805 89.3191 212.852 89.299C212.9 89.2789 212.941 89.2495 212.975 89.213C213.008 89.1765 213.032 89.1338 213.045 89.0878C213.058 89.0419 213.06 88.9938 213.051 88.9471L211.947 83.5001C211.938 83.4584 211.921 83.4185 211.895 83.3829C211.87 83.3473 211.837 83.3165 211.799 83.2924C211.761 83.2683 211.717 83.2514 211.672 83.2425C211.626 83.2337 211.579 83.2331 211.533 83.2408C211.488 83.2485 211.444 83.2643 211.405 83.2874C211.366 83.3106 211.332 83.3405 211.306 83.3754C211.279 83.4104 211.261 83.4498 211.251 83.4913C211.241 83.5329 211.241 83.5758 211.249 83.6175L212.353 89.0642C212.368 89.1386 212.411 89.2058 212.475 89.2541C212.538 89.3025 212.619 89.329 212.702 89.3291V89.3294Z" fill="#242D35"/>
</g>
</g>
<g clip-path="url(#clip9_48_15182)">
<mask id="mask7_48_15182" style="mask-type:luminance" maskUnits="userSpaceOnUse" x="21" y="59" width="198" height="136">
<path d="M21.1378 59.2841H218.327V194.483H21.1378V59.2841Z" fill="white"/>
</mask>
<g mask="url(#mask7_48_15182)">
<path d="M109.758 94.5562L109.647 95.6605C109.647 95.6605 108.163 95.5601 108.163 95.1251C108.126 94.7235 109.758 94.5562 109.758 94.5562ZM121.809 94.1211L121.697 95.259C121.697 95.259 123.477 95.259 123.255 94.6231C122.958 94.0207 121.809 94.1211 121.809 94.1211ZM209.391 177.817C209.799 181.298 176.427 187.221 134.861 191.036C93.2948 194.885 59.2929 195.186 58.885 191.705C58.6255 189.43 72.7528 186.15 94.1102 183.038C105.494 181.398 118.953 179.792 133.414 178.453C139.533 177.884 145.466 177.416 151.139 176.981C184.251 174.638 209.057 174.872 209.391 177.817Z" fill="#242D35"/>
<path d="M78.6851 194.483C72.9749 194.483 68.377 194.315 65.0399 193.947C59.3667 193.378 58.588 192.408 58.5139 191.739C58.4026 190.902 59.3296 189.53 68.3029 187.355C74.4581 185.849 83.3942 184.242 94.0731 182.703C105.827 180.996 119.436 179.423 133.414 178.118C139.421 177.549 145.391 177.081 151.176 176.646C167.342 175.475 182.063 174.906 192.593 175.039C209.502 175.24 209.724 177.114 209.798 177.75C209.872 178.419 209.353 179.49 203.903 181.097C200.195 182.201 194.818 183.372 187.958 184.577C173.868 187.087 155.032 189.463 134.935 191.337C114.838 193.211 95.8529 194.282 81.4661 194.416C80.502 194.483 79.575 194.483 78.6851 194.483ZM189.59 175.742C179.356 175.742 165.896 176.311 151.213 177.382C145.428 177.784 139.458 178.286 133.489 178.854C119.547 180.16 105.976 181.732 94.2214 183.406C66.3747 187.422 59.1442 190.5 59.2925 191.705C59.3296 192.073 60.6274 193.981 81.4661 193.813C95.8159 193.679 114.763 192.609 134.861 190.735C154.958 188.894 173.757 186.485 187.81 183.975C208.278 180.327 209.094 178.252 209.057 177.851C209.02 177.549 208.056 175.943 192.593 175.742H189.59Z" fill="#242D35"/>
<path d="M111.797 70.863C111.797 70.863 109.461 73.5736 108.905 75.5146C108.349 77.4556 107.978 78.4595 107.681 78.493C107.385 78.5264 103.714 79.4969 104.048 80.367C104.381 81.2371 106.68 81.806 106.68 81.806C106.68 81.806 105.345 87.562 106.643 89.2687C107.941 91.0089 110.314 90.2057 110.314 90.2057L109.758 95.5267C109.758 95.5267 113.392 95.7274 115.95 95.6605C118.509 95.5936 121.401 95.1585 121.401 95.1585L122.031 87.06L125.999 79.932L126.592 75.3138L122.624 71.6327L115.876 70.6622L111.797 70.863Z" fill="#FAFAFB"/>
<path d="M89.2528 166.807C89.2528 166.807 91.4776 175.408 93.7023 182.402C95.9271 189.396 98.189 193.646 98.189 193.646C98.189 193.646 121.215 192.14 126.629 191.839C132.043 191.538 158.035 188.425 158.035 188.425L153.994 181.732L150.656 176.211L145.28 167.242C145.28 167.242 130.671 161.419 111.278 162.691C91.9225 163.996 89.2528 166.807 89.2528 166.807Z" fill="#242D35"/>
<path d="M123.255 94.8909C123.255 94.8909 124.404 96.4972 124.07 97.635C123.774 98.7728 123.069 99.8772 123.069 99.8772C123.069 99.8772 129.002 98.9736 133.489 100.279C137.975 101.584 141.609 103.726 142.907 105.399C142.907 105.399 135.528 106.905 134.156 120.157C132.784 133.409 134.972 139.533 140.645 146.628L145.28 167.242C145.28 167.242 134.861 163.293 123.737 162.858C112.613 162.423 101.786 163.126 97.8182 163.996C93.8507 164.866 91.3293 165.134 89.2157 166.807C89.2157 166.807 86.4718 165.669 85.7302 161.051C84.9887 156.433 86.7314 154.291 86.7314 154.291C86.7314 154.291 83.4684 150.677 83.8763 146.293C84.2471 141.909 84.9887 140.437 84.9887 140.437C84.9887 140.437 81.9481 136.889 83.0605 132.673C84.1729 128.456 85.3595 127.486 85.3595 127.486C85.3595 127.486 83.0976 122.031 84.7291 118.35C86.3606 114.702 88.8449 112.928 88.8449 112.928C88.8449 112.928 88.6595 105.031 95.5934 101.718C99.598 99.8102 102.527 100.915 105.864 100.948C105.864 100.948 104.53 99.4086 105.457 97.2669C106.384 95.1251 108.126 94.9578 108.126 94.9578C108.126 94.9578 107.459 96.0287 114.319 95.7944C121.215 95.5936 123.255 94.8909 123.255 94.8909Z" fill="white"/>
<path d="M93.1461 112.225C93.1461 112.225 84.9516 111.657 84.5437 121.06C84.2841 126.248 85.4336 127.485 85.4336 127.485C85.4336 127.485 81.9481 131.2 83.0605 135.718C84.1729 140.236 85.0628 140.436 85.0628 140.436C85.0628 140.436 82.8751 144.553 84.3954 149.037C85.9527 153.522 86.8056 154.291 86.8056 154.291C86.8056 154.291 85.174 158.575 85.8044 161.051C86.4348 163.528 87.6584 165.903 89.2899 166.807L93.7394 164.832C93.7394 164.832 89.364 164.063 88.7337 159.579C88.0292 154.525 91.7371 152.751 91.7371 152.751C91.7371 152.751 87.1763 150.543 86.9168 145.49C86.5831 138.931 89.0303 138.295 89.0303 138.295C89.0303 138.295 86.2494 136.387 86.3977 131.635C86.5089 127.519 92.4416 125.678 92.4416 125.678C92.4416 125.678 86.6943 124.172 87.7696 118.182C88.6595 113.196 93.1461 112.225 93.1461 112.225ZM133.526 100.279C129.076 98.8732 123.106 99.8772 123.106 99.8772C123.106 99.8772 123.811 98.7393 124.108 97.635C124.404 96.4972 123.292 94.8909 123.292 94.8909C123.292 94.8909 121.252 95.5936 114.393 95.8279C107.533 96.0621 108.2 94.9913 108.2 94.9913C108.2 94.9913 106.495 95.1586 105.531 97.3003C104.567 99.4421 105.939 100.981 105.939 100.981C102.601 100.948 99.6721 99.8437 95.6676 101.751C93.3315 102.856 91.8113 104.495 90.8101 106.169C90.4764 106.436 90.1427 106.838 89.9202 107.373C88.9562 109.649 89.5494 110.051 90.2169 111.255C90.8843 112.46 96.1496 111.389 96.1496 111.389C91.9967 110.72 91.9225 109.348 92.4787 108.009C93.2203 106.235 94.8147 104.863 96.817 104.261C98.0777 103.893 99.4497 103.525 100.599 103.424C107.162 102.822 107.014 104.261 111.352 104.328C115.69 104.395 118.805 101.45 129.855 101.952C138.606 102.354 139.681 106.135 139.978 106.169C139.384 106.001 143.76 103.558 133.526 100.279Z" fill="#FAFAFB"/>
<path d="M71.7146 99.1074C71.7146 99.1074 66.8942 104.663 64.4099 112.025C61.9256 119.387 61.5919 127.051 61.5919 127.051C61.5919 127.051 70.5651 134.781 84.3216 141.909L85.0632 140.437C85.0632 140.437 82.6901 136.923 83.0609 133.342C83.4317 129.761 85.434 127.486 85.434 127.486C85.434 127.486 83.0609 123.838 84.6553 119.053C86.2497 114.234 88.9565 112.962 88.9565 112.962C88.9565 112.962 88.252 109.348 90.4026 106.235C92.5532 103.123 94.7039 102.253 94.7039 102.253C94.7039 102.253 87.6588 102.22 80.0945 101.015C72.4562 99.8102 71.7146 99.1074 71.7146 99.1074Z" fill="white"/>
<path d="M72.4558 98.8732C72.4558 98.8732 70.1569 100.781 68.5624 103.592C68.5624 103.592 78.0919 106.637 89.6236 107.808C89.6236 107.808 90.5506 103.926 94.6664 102.253C94.6293 102.253 83.3201 102.119 72.4558 98.8732ZM166.971 134.38C166.971 134.011 161.558 136.254 158.072 143.08C154.587 149.907 155.551 153.388 155.551 153.388C155.551 153.388 161.41 157.571 172.311 156.901C183.212 156.232 189.627 148.267 189.627 148.267C189.627 148.267 202.197 134.815 208.426 126.114L211.281 126.047L211.578 126.984C211.578 126.984 214.174 125.98 214.1 124.775L214.507 124.173C214.507 124.173 215.731 123.57 215.62 122.934C215.546 122.299 215.027 121.897 215.027 121.897C215.027 121.897 216.955 121.897 216.955 120.96C216.955 120.023 216.324 119.521 216.324 119.521C216.324 119.521 218.29 119.019 217.733 117.881C217.177 116.71 214.062 115.84 214.062 115.84C214.062 115.84 212.246 114.635 210.317 115.271C208.389 115.907 204.755 118.684 202.345 120.793C199.935 122.901 192 130.096 188.737 131.97C185.474 133.844 178.132 139.232 173.127 137.86C168.195 136.521 166.971 134.38 166.971 134.38Z" fill="#FAFAFB"/>
<path d="M168.269 156.968C169.53 157.035 170.865 157.035 172.311 156.935C183.212 156.266 189.627 148.301 189.627 148.301C189.627 148.301 190.22 147.665 191.259 146.527C178.132 147.665 170.568 154.659 168.269 156.968Z" fill="white"/>
<path d="M173.201 137.893C171.829 137.525 170.754 137.09 169.901 136.689C170.272 137.023 170.457 137.324 170.309 137.425C169.827 137.793 163.301 140.571 165.303 142.378C167.305 144.185 181.766 136.22 181.766 136.22C181.766 136.22 181.729 136.187 181.655 136.153C178.8 137.559 175.685 138.563 173.201 137.893Z" fill="#242D35"/>
<path d="M142.944 105.399C142.944 105.399 149.618 107.574 153.845 113.062C158.072 118.551 162.67 130.698 167.009 134.38C167.009 134.38 160.779 137.023 158.109 143.08C155.44 149.171 154.958 153.153 155.811 157.972L143.203 148.703C143.203 148.703 137.975 144.787 135.639 137.96C133.303 131.133 133.897 122.499 134.49 118.517C135.046 114.568 136.529 107.574 142.944 105.399Z" fill="white"/>
<path d="M27.5154 67.7842L25.2535 67.8846C23.8074 67.918 22.5838 68.0184 21.9905 68.6208C21.1006 69.5244 21.5085 70.9968 22.2872 71.4319C22.2872 71.4319 21.1377 73.172 22.658 74.2095C22.658 74.2095 21.5827 75.7154 23.3996 76.5855C23.3996 76.5855 21.9164 78.0914 23.3625 78.9949C23.9187 79.3296 24.3266 79.1957 25.0311 79.2627C25.0311 79.2627 31.7425 80.5343 31.4087 80.4674C31.075 80.367 31.9279 82.3414 33.1886 85.0186C34.4493 87.6958 39.2325 96.129 39.2325 96.129L44.9798 105.098C44.9798 105.098 49.244 110.084 50.8013 111.891C54.2126 115.505 58.4397 118.651 58.4397 118.651L61.7027 120.458C61.7027 120.458 63.0376 113.832 65.4107 109.381C67.7837 104.93 71.6029 99.4086 71.6029 99.4086C71.6029 99.4086 62.7409 98.9066 53.3969 91.812C44.0529 84.7175 42.7551 81.806 40.1966 78.5934C37.6381 75.3807 31.6683 68.1523 27.5154 67.7842Z" fill="#FAFAFB"/>
<path d="M37.3415 75.2469C37.3415 75.2469 36.7111 76.8197 40.5674 83.5127C42.1989 86.4242 44.8315 92.8829 68.5624 103.592L72.3075 98.5385C72.3075 98.5385 63.5567 96.6645 52.6182 89.436C44.7574 83.6131 40.5674 78.8276 40.5674 78.8276L37.3415 75.2469Z" fill="white"/>
<path d="M108.905 82.4084C108.868 82.4084 108.868 82.4084 108.905 82.4084C108.757 82.4084 105.308 82.2076 104.048 81.0364C103.64 80.6348 103.64 80.3001 103.714 80.0659C104.048 79.0619 106.384 78.5265 107.088 78.3926C107.533 78.2922 107.533 78.2922 107.793 77.5225C107.941 77.054 108.163 76.3847 108.571 75.3808C109.758 72.5697 111.463 70.6957 111.538 70.6288C111.649 70.4949 111.908 70.4614 112.057 70.5953C112.205 70.6957 112.242 70.9299 112.094 71.0638C112.094 71.0973 110.425 72.9378 109.276 75.6485C108.868 76.619 108.645 77.2883 108.497 77.7233C108.238 78.5599 108.126 78.8946 107.273 79.0619C106.013 79.3296 104.604 79.8316 104.455 80.2667C104.455 80.3001 104.418 80.4005 104.604 80.6013C105.457 81.4379 108.015 81.7057 108.942 81.7726C109.164 81.7726 109.313 81.9399 109.276 82.1407C109.239 82.2746 109.09 82.4084 108.905 82.4084Z" fill="#242D35"/>
<path d="M110.092 90.5069C108.757 90.5069 107.533 90.3396 106.866 89.9046C104.641 88.4656 106.161 82.4419 106.347 81.7391C106.384 81.5718 106.606 81.4379 106.792 81.5048C106.977 81.5383 107.126 81.7391 107.051 81.9064C106.606 83.6466 105.754 88.3652 107.274 89.3691C108.868 90.4065 114.504 89.503 116.544 89.1014C116.729 89.0679 116.952 89.1683 116.989 89.3357C117.026 89.503 116.915 89.7038 116.729 89.7372C116.507 89.7707 112.984 90.5069 110.092 90.5069Z" fill="#242D35"/>
<path d="M109.758 95.8948C109.535 95.8613 109.387 95.7275 109.387 95.5267L109.943 90.2057C109.98 90.0384 110.129 89.8711 110.351 89.9046C110.536 89.938 110.722 90.0719 110.685 90.2727L110.129 95.5936C110.129 95.7609 109.943 95.8948 109.758 95.8948ZM121.549 95.259C121.327 95.259 121.178 95.0916 121.178 94.8908L121.66 88.1979C121.66 87.9971 121.846 87.8632 122.068 87.8967C122.291 87.8967 122.439 88.064 122.402 88.2648L121.92 94.9578C121.92 95.1251 121.734 95.259 121.549 95.259Z" fill="#242D35"/>
<path d="M111.834 96.0956C109.943 96.0956 108.46 95.9952 108.052 95.7944C107.607 95.5267 107.57 95.2924 107.607 95.0916C107.756 94.5562 108.831 94.3554 109.721 94.255C109.906 94.2215 110.092 94.3554 110.129 94.5562C110.166 94.7235 110.017 94.8908 109.795 94.9243C109.239 94.9912 108.645 95.1251 108.423 95.2255C109.276 95.694 121.104 95.259 122.847 94.7235C122.624 94.6231 122.105 94.4893 121.623 94.4558C121.438 94.4223 121.252 94.2885 121.29 94.0877C121.327 93.9204 121.475 93.7865 121.697 93.7865C122.179 93.82 123.329 93.9873 123.588 94.4893C123.7 94.6901 123.663 94.8908 123.551 95.0916C123.44 95.259 123.255 95.3259 122.773 95.4263C121.252 95.7275 115.691 96.0956 111.834 96.0956Z" fill="#242D35"/>
<path d="M105.901 101.316C105.79 101.316 105.679 101.283 105.605 101.182C105.531 101.115 104.159 99.4755 105.123 97.1664C105.827 95.5266 107.904 94.69 107.978 94.6566C108.163 94.5896 108.386 94.6566 108.46 94.8239C108.534 94.9912 108.46 95.192 108.275 95.2589C108.275 95.2589 106.421 95.9952 105.827 97.3672C105.012 99.3082 106.161 100.714 106.198 100.714C106.309 100.848 106.309 101.082 106.124 101.182C106.05 101.283 105.976 101.316 105.901 101.316ZM122.995 100.513C122.921 100.513 122.847 100.513 122.81 100.479C122.624 100.379 122.587 100.178 122.698 100.011C124.738 96.9991 123.106 94.8908 123.032 94.8239C122.921 94.69 122.958 94.4558 123.106 94.3554C123.255 94.255 123.514 94.2884 123.625 94.4223C123.7 94.5227 125.665 96.9322 123.329 100.379C123.255 100.446 123.143 100.513 122.995 100.513ZM112.835 101.785C112.65 101.785 112.465 101.651 112.465 101.45C112.205 96.5641 113.688 95.5266 113.874 95.4262C114.059 95.3259 114.281 95.3593 114.393 95.5266C114.504 95.694 114.467 95.8948 114.281 95.9952C114.244 96.0286 112.947 96.9991 113.206 101.45C113.243 101.617 113.058 101.785 112.835 101.785C112.872 101.785 112.872 101.785 112.835 101.785Z" fill="#242D35"/>
<path d="M111.686 101.818C107.83 101.818 105.864 101.316 105.79 101.316C105.605 101.249 105.494 101.082 105.531 100.915C105.605 100.747 105.79 100.647 105.976 100.68C106.013 100.68 108.312 101.283 112.798 101.149C117.322 101.048 122.81 99.8771 122.884 99.8771C123.069 99.8437 123.292 99.9441 123.329 100.111C123.366 100.279 123.255 100.48 123.069 100.513C122.995 100.513 117.433 101.684 112.835 101.785C112.465 101.818 112.057 101.818 111.686 101.818Z" fill="#242D35"/>
<path d="M145.317 167.577C145.28 167.577 145.206 167.577 145.169 167.543C145.02 167.476 131.375 161.754 108.794 163.293C91.0697 164.498 89.7348 166.707 89.6607 166.874C89.6236 166.974 89.5494 167.075 89.4382 167.108C89.327 167.142 89.1787 167.142 89.0674 167.075C88.9933 167.041 83.0605 163.26 86.3606 154.358C85.6561 153.354 81.7257 147.431 84.6179 140.504C83.9134 139.5 80.2796 133.777 84.9887 127.452C84.5066 126.181 81.6515 117.915 88.5112 112.828C88.4371 111.657 88.3258 105.432 94.4439 101.985C99.153 99.3417 105.716 100.613 106.013 100.68C106.198 100.714 106.346 100.915 106.309 101.082C106.272 101.249 106.05 101.383 105.864 101.35C105.79 101.35 99.3014 100.111 94.8518 102.588C88.5483 106.135 89.2899 112.895 89.2899 112.962C89.2899 113.062 89.2528 113.196 89.1416 113.263C81.9481 118.45 85.7303 127.318 85.7673 127.419C85.8044 127.519 85.8044 127.653 85.7303 127.72C80.6874 134.313 85.1741 140.035 85.3595 140.303C85.4336 140.403 85.4336 140.504 85.3965 140.604C82.2819 147.899 87.0651 154.09 87.1022 154.157C87.1764 154.258 87.1764 154.358 87.1393 154.458C84.3212 161.921 88.0292 165.468 89.1787 166.372C90.0686 165.502 93.7394 163.728 108.72 162.691C128.705 161.319 141.794 165.636 144.835 166.74L140.385 146.828C137.716 143.917 131.931 135.651 133.859 120.157C135.343 108.344 140.608 105.767 142.351 105.231C141.646 104.428 139.421 102.521 134.23 101.015C129.076 99.5424 123.143 100.513 123.106 100.546C122.921 100.58 122.699 100.446 122.661 100.279C122.624 100.111 122.773 99.9106 122.958 99.8771C123.218 99.8436 129.113 98.8397 134.453 100.379C141.424 102.387 143.203 105.165 143.278 105.265C143.352 105.365 143.352 105.466 143.278 105.566C143.241 105.667 143.129 105.733 142.981 105.733C142.907 105.733 136.233 106.804 134.564 120.19C132.636 135.551 138.383 143.649 140.979 146.427C141.016 146.46 141.053 146.527 141.053 146.561L145.688 167.175C145.725 167.309 145.651 167.443 145.54 167.51C145.465 167.577 145.391 167.577 145.317 167.577ZM115.023 65.4751C116.58 63.7349 123.514 58.414 125.442 59.8864C126.926 61.0243 125.554 62.3294 126.703 62.7644C128.298 63.4003 131.449 58.9494 133.711 61.0912C135.973 63.2329 132.265 66.5125 133.081 67.6838C133.897 68.8551 135.936 67.5834 136.455 69.3236C136.937 71.0637 133.6 77.489 130.337 81.3375C127.074 85.1525 122.587 90.0049 121.401 87.7628C120.214 85.5206 120.77 83.6131 121.512 82.9438C122.81 81.806 124.145 81.9733 125.072 80.2331C125.999 78.493 124.997 77.1878 123.996 77.2882C122.995 77.3886 120.622 79.3296 120.177 78.1249C119.732 76.9201 122.55 74.5106 121.067 73.239C119.584 71.9338 117.915 73.5736 115.394 73.5736C112.279 73.5736 111.463 71.4319 111.834 69.9259C112.242 68.3531 115.023 65.4751 115.023 65.4751Z" fill="#242D35"/>
<path d="M122.328 88.6329H122.179C121.846 88.5994 121.401 88.4321 121.067 87.8632C119.732 85.3533 120.474 83.3454 121.252 82.6427C121.809 82.1742 122.328 81.9064 122.81 81.6722C123.551 81.3041 124.182 81.0029 124.701 80.0324C125.22 79.0619 125.072 78.3257 124.738 77.9241C124.552 77.6898 124.256 77.556 123.996 77.5894C123.737 77.6229 123.218 77.8572 122.736 78.0914C121.883 78.5265 120.956 78.9615 120.325 78.7607C120.14 78.6938 119.918 78.5599 119.769 78.2253C119.547 77.6229 119.955 76.8532 120.363 76.0501C120.993 74.8788 121.364 74.0087 120.733 73.4733C120.029 72.8709 119.324 73.0382 118.064 73.4063C117.285 73.6406 116.358 73.9083 115.32 73.9083C113.54 73.9083 112.576 73.239 112.094 72.7036C111.426 71.9339 111.167 70.863 111.426 69.859C111.797 68.2862 114.504 65.5086 114.689 65.3078C115.95 63.9357 121.29 59.6188 124.219 59.351C124.812 59.2841 125.257 59.418 125.628 59.6522C126.555 60.355 126.518 61.1581 126.518 61.727C126.481 62.2625 126.518 62.3963 126.777 62.4967C127.222 62.6641 128.075 62.1286 128.928 61.5597C130.448 60.5892 132.302 59.3845 133.897 60.857C135.417 62.3294 134.527 64.2369 133.822 65.6424C133.452 66.4121 133.081 67.1818 133.303 67.5165C133.563 67.8846 133.971 67.9181 134.601 67.9515C135.343 67.985 136.381 68.0519 136.715 69.2567C137.271 71.2311 133.711 77.7568 130.522 81.5383C126.444 86.4242 123.885 88.6329 122.328 88.6329ZM124.145 76.8867C124.627 76.8867 125.072 77.1209 125.405 77.5225C125.962 78.2253 125.962 79.2627 125.405 80.3001C124.775 81.4714 123.959 81.873 123.181 82.2411C122.699 82.4753 122.254 82.7096 121.772 83.1112C121.104 83.7135 120.622 85.4872 121.734 87.562C121.883 87.8632 122.105 87.9301 122.254 87.9301C123.477 88.0305 126.11 85.7214 130.04 81.0698C133.266 77.2548 136.529 70.9299 136.084 69.3571C135.899 68.6543 135.454 68.6208 134.638 68.5539C134.008 68.5204 133.229 68.487 132.747 67.8177C132.339 67.2153 132.747 66.3452 133.229 65.3413C133.897 63.9692 134.638 62.4298 133.415 61.292C132.376 60.288 131.116 60.9908 129.41 62.0617C128.298 62.7645 127.371 63.3668 126.518 63.0656C125.739 62.7645 125.776 62.1621 125.813 61.6601C125.85 61.1247 125.85 60.6227 125.183 60.1207C124.997 59.9869 124.701 59.9199 124.33 59.9534C121.846 60.1877 116.692 64.0696 115.283 65.6759C115.246 65.7094 112.539 68.487 112.168 69.926C112.02 70.5618 112.057 71.4988 112.724 72.2016C113.28 72.8374 114.207 73.1721 115.394 73.1721C116.321 73.1721 117.174 72.9378 117.915 72.7036C119.139 72.3354 120.288 72.0008 121.327 72.9378C122.402 73.8748 121.697 75.2134 121.104 76.3178C120.77 76.9536 120.4 77.6229 120.548 77.991C120.585 78.0914 120.659 78.1249 120.659 78.1249C120.993 78.2253 121.846 77.7902 122.439 77.5225C123.032 77.2213 123.551 76.9871 123.959 76.9201C124.033 76.8867 124.07 76.8867 124.145 76.8867ZM155.773 158.34C155.699 158.34 155.625 158.307 155.551 158.274C151.954 155.697 140.571 146.962 140.423 146.895C140.274 146.762 140.237 146.561 140.385 146.427C140.534 146.293 140.756 146.26 140.905 146.393C141.016 146.494 152.436 155.195 155.996 157.772C156.144 157.872 156.181 158.106 156.07 158.24C155.996 158.307 155.885 158.34 155.773 158.34Z" fill="#242D35"/>
<path d="M155.736 158.307C155.588 158.307 155.44 158.24 155.403 158.106C153.845 154.592 155.773 146.661 157.739 142.98C161.447 135.986 166.638 134.179 166.86 134.112C167.046 134.045 167.268 134.145 167.342 134.313C167.416 134.48 167.305 134.681 167.12 134.748C167.083 134.781 162.003 136.555 158.406 143.281C156.515 146.862 154.587 154.525 156.07 157.872C156.144 158.039 156.07 158.24 155.848 158.307H155.736ZM149.581 153.722C149.396 153.722 149.21 153.588 149.21 153.421C149.21 153.354 148.803 147.23 151.806 140.504C155.588 132.037 163.375 130.029 163.449 130.029C163.634 129.962 163.857 130.096 163.894 130.263C163.931 130.431 163.82 130.631 163.634 130.665C163.56 130.698 156.107 132.606 152.473 140.771C149.544 147.364 149.915 153.321 149.915 153.388C149.989 153.555 149.804 153.722 149.581 153.722Z" fill="#242D35"/>
<path d="M155.773 158.006C155.773 158.006 156.7 158.976 158.221 157.638C159.704 156.299 160.297 155.529 160.297 155.529L155.514 153.421C155.551 153.421 154.921 155.429 155.773 158.006Z" fill="#242D35"/>
<path d="M156.7 158.709H156.626C155.922 158.675 155.551 158.307 155.514 158.24C155.477 158.207 155.44 158.173 155.44 158.106C154.55 155.462 155.143 153.421 155.18 153.321C155.217 153.22 155.291 153.153 155.403 153.12C155.514 153.086 155.625 153.086 155.699 153.12L160.482 155.228C160.594 155.262 160.631 155.362 160.668 155.429C160.705 155.529 160.668 155.63 160.631 155.697C160.594 155.73 160.038 156.533 158.517 157.872C157.924 158.407 157.294 158.709 156.7 158.709ZM156.107 157.838C156.181 157.905 156.404 158.006 156.663 158.039C157.071 158.039 157.516 157.838 157.998 157.437C158.925 156.634 159.481 156.031 159.741 155.697L155.81 153.957C155.699 154.592 155.551 156.065 156.107 157.838ZM94.6297 102.588C94.4443 102.588 77.0911 102.42 62.7413 95.5602C53.6939 91.2432 46.1668 85.7214 40.9756 79.6308C37.416 75.4477 31.4833 68.487 28.3315 68.1189C27.8866 68.0854 27.5528 68.1523 27.2562 68.3531C25.0685 69.8925 24.5865 71.1307 24.809 71.7331C25.291 72.9044 26.8113 75.6485 27.3674 75.9162C27.4416 75.8493 27.5899 75.615 27.7012 75.0461C27.9236 74.1091 27.8495 72.9713 27.5528 72.6366C27.4787 72.5697 27.4416 72.4693 27.4787 72.3689C27.5158 72.2685 27.5528 72.2016 27.6641 72.1347L28.6281 71.5992C28.8135 71.4988 29.036 71.5658 29.1473 71.6996C29.2585 71.8669 29.1843 72.0677 29.036 72.1681L28.3686 72.5362C28.7394 73.4063 28.6281 74.9457 28.2944 75.7489C28.109 76.2509 27.8495 76.4851 27.5158 76.552C26.2551 76.8532 24.1415 72.0008 24.1415 71.9673C23.6966 70.863 24.6977 69.3236 26.8113 67.8177C27.2562 67.483 27.8124 67.3826 28.4428 67.4496C31.6316 67.8177 36.4519 73.239 41.5689 79.2292C46.6859 85.2529 54.1388 90.6743 63.1121 94.9578C77.2765 101.718 94.4814 101.918 94.6297 101.918C94.8521 101.918 95.0005 102.086 95.0005 102.253C95.0005 102.42 94.8151 102.588 94.6297 102.588Z" fill="#242D35"/>
<path d="M24.2524 72.0008C23.0659 72.0008 22.2501 71.7665 21.731 71.298C21.1007 70.7291 21.1377 69.9594 21.1377 69.5244C21.1377 69.0894 21.3231 68.7212 21.6569 68.4201C22.8063 67.4496 25.439 67.5165 25.5502 67.5165L27.6637 67.483C27.8491 67.483 28.0345 67.6169 28.0345 67.8177C28.0345 68.0185 27.8862 68.1523 27.6637 68.1523L25.5131 68.1858C24.8086 68.1523 22.8805 68.2527 22.1389 68.8886C21.9906 69.0894 21.8793 69.2901 21.8793 69.5244C21.8793 69.9594 21.8793 70.4614 22.2501 70.8295C22.6209 71.1642 23.3254 71.3315 24.3266 71.3315C24.5491 71.3315 24.6974 71.4654 24.6974 71.6662C24.6974 71.8669 24.5491 72.0008 24.3266 72.0008H24.2524Z" fill="#242D35"/>
<path d="M25.439 69.6582C25.4019 69.6582 25.3277 69.6582 25.2906 69.6248L24.2524 69.1897C24.067 69.1228 23.9929 68.922 24.067 68.7547C24.1412 68.5874 24.3637 68.5204 24.5491 68.5874L25.5873 69.0224C25.7727 69.0893 25.8468 69.2901 25.7727 69.4574C25.7356 69.5578 25.5873 69.6582 25.439 69.6582ZM23.8816 74.5441C23.2142 74.5441 22.4726 74.4437 21.9906 74.1091C21.6569 73.8748 21.4344 73.5402 21.3973 73.1386C21.249 71.6996 22.3984 71.1642 22.4355 71.1642C22.6209 71.0638 22.8434 71.1642 22.9176 71.298C22.9917 71.4653 22.9546 71.6661 22.7692 71.7331C22.7322 71.7665 22.0276 72.1012 22.1389 73.0717C22.176 73.2725 22.2501 73.4398 22.4355 73.5402C23.14 74.0087 24.8828 73.8079 25.476 73.674C25.6614 73.6406 25.8839 73.741 25.921 73.9418C25.9581 74.1091 25.8468 74.3099 25.6244 74.3433C25.476 74.4103 24.6974 74.5441 23.8816 74.5441Z" fill="#242D35"/>
<path d="M23.8445 76.8532C23.1771 76.8532 22.5468 76.7194 22.213 76.2509C21.3973 75.1131 22.0277 74.2764 22.4726 73.9752C22.6209 73.8748 22.8805 73.9083 22.9917 74.0422C23.103 74.176 23.0659 74.4103 22.9176 74.5107C22.8434 74.5776 22.213 75.0461 22.8434 75.8827C23.2513 76.4182 25.2165 76.0835 26.4772 75.682C26.6626 75.615 26.8851 75.7154 26.9592 75.8827C27.0334 76.0501 26.9221 76.2509 26.7367 76.3178C26.3289 76.4182 24.994 76.8532 23.8445 76.8532Z" fill="#242D35"/>
<path d="M31.2605 80.7686H31.1863L28.739 80.3336L24.8828 79.5973C24.5861 79.5973 23.2513 79.5973 22.658 78.7942C22.3985 78.4261 22.2501 77.8237 22.4726 77.2882C22.6209 76.9536 22.9176 76.552 23.6962 76.3512C24.9199 76.05 27.1076 76.1504 27.9604 76.7528C28.3312 77.0205 28.3683 77.2883 28.3683 77.489C28.3683 77.7233 28.2199 77.9241 28.0345 78.0914C27.2929 78.6603 25.5131 78.5599 25.2907 78.5265C25.0682 78.5265 24.9199 78.3591 24.9569 78.1583C24.9569 77.991 25.1423 77.8237 25.3648 77.8572C26.0322 77.8906 27.1817 77.8572 27.5525 77.5894C27.6267 77.5225 27.6267 77.489 27.6267 77.4556C27.6267 77.4221 27.6267 77.3552 27.4783 77.2548C26.8851 76.8532 24.994 76.6859 23.8816 76.9536C23.5108 77.054 23.2513 77.2213 23.1771 77.489C23.0659 77.7902 23.14 78.1918 23.2884 78.3926C23.6221 78.8611 24.5491 78.8946 24.8828 78.8946H24.994L31.3717 80.0993C31.5571 80.1328 31.7054 80.3001 31.6683 80.5009C31.5942 80.6682 31.4459 80.7686 31.2605 80.7686Z" fill="#242D35"/>
<path d="M61.7031 120.759C61.6289 120.759 61.5919 120.759 61.5548 120.726C61.4806 120.692 53.9906 117.212 46.2039 107.039C38.5651 97.0661 33.3369 86.8258 32.002 83.4458C31.52 82.2076 30.9267 80.5678 30.9267 80.5344C30.8526 80.3671 30.9638 80.1663 31.1492 80.0993C31.3346 80.0324 31.5571 80.1328 31.6312 80.3001C31.6312 80.3001 32.2245 81.9399 32.7065 83.1781C34.0414 86.5246 39.1955 96.6645 46.7968 106.604C54.4722 116.61 61.7769 120.023 61.851 120.057C62.0364 120.123 62.1106 120.358 61.9994 120.492C61.9623 120.692 61.8514 120.759 61.7031 120.759Z" fill="#242D35"/>
<path d="M84.2841 142.244C84.21 142.244 84.1729 142.244 84.0987 142.21C70.1198 134.948 61.4061 127.352 61.2948 127.285C61.2207 127.218 61.1836 127.118 61.1836 127.051C61.4432 109.548 71.64 98.7058 71.7513 98.6054C71.8996 98.4716 72.122 98.4381 72.2704 98.572C72.4187 98.7058 72.4558 98.9066 72.3074 99.0405C72.1962 99.1409 62.2218 109.749 61.9252 126.917C63.0005 127.82 71.4175 134.881 84.4695 141.641C84.6549 141.742 84.692 141.943 84.6178 142.11C84.5066 142.177 84.3954 142.244 84.2841 142.244Z" fill="#242D35"/>
<path d="M68.1545 132.338C67.9691 132.338 67.8208 132.238 67.7837 132.07C67.7467 131.836 66.7084 126.114 69.304 116.944C72.3074 106.269 78.2031 100.613 78.2402 100.58C78.3885 100.446 78.611 100.446 78.7593 100.58C78.9076 100.714 78.9076 100.915 78.7593 101.048C78.6851 101.115 72.9378 106.637 69.9714 117.112C67.45 126.147 68.4512 131.903 68.4883 131.97C68.5253 132.137 68.377 132.338 68.1916 132.372C68.1916 132.338 68.1916 132.338 68.1545 132.338Z" fill="#242D35"/>
<path d="M80.3537 136.153C79.9458 136.153 79.1672 135.651 75.2367 128.356C73.1974 124.541 71.2322 120.692 71.2322 120.659C71.158 120.492 71.2322 120.291 71.4176 120.224C71.6029 120.157 71.8254 120.224 71.8996 120.391C75.1626 126.883 78.9818 133.944 80.2425 135.317C80.4279 133.007 78.2773 120.826 76.8312 113.163C76.7941 112.995 76.9424 112.795 77.1278 112.761C77.3132 112.728 77.5357 112.862 77.5727 113.029C78.5739 118.149 81.7256 134.915 80.7987 136.019C80.7245 136.12 80.6133 136.187 80.4649 136.187C80.3908 136.153 80.3908 136.153 80.3537 136.153ZM81.6515 123.771C81.429 123.771 81.2807 123.637 81.2807 123.436C81.2807 119.789 79.0559 108.745 79.0559 108.611C79.0188 108.444 79.1672 108.243 79.3526 108.21C79.538 108.176 79.7604 108.31 79.7975 108.478C79.8717 108.946 82.0594 119.688 82.0594 123.403C82.0223 123.604 81.8369 123.771 81.6515 123.771ZM145.057 147.197C144.909 147.197 144.798 147.13 144.724 146.996C144.687 146.962 142.462 142.378 140.348 137.793C136.01 128.255 136.566 127.988 137.011 127.753C137.419 127.553 138.012 127.251 143.241 134.48C145.725 137.927 148.098 141.474 148.135 141.508C148.246 141.675 148.172 141.876 148.024 141.976C147.838 142.076 147.616 142.01 147.505 141.876C143.463 135.852 138.828 129.494 137.493 128.523C137.679 130.297 141.609 138.998 145.428 146.762C145.502 146.929 145.428 147.13 145.243 147.197H145.057ZM150.545 133.643C150.471 133.643 150.397 133.61 150.323 133.576L137.567 125.277C137.419 125.177 137.382 124.976 137.493 124.809C137.604 124.675 137.827 124.641 138.012 124.742L150.768 133.041C150.916 133.141 150.953 133.342 150.842 133.509C150.805 133.61 150.656 133.643 150.545 133.643ZM156.663 131.1C156.515 131.1 156.367 131 156.293 130.866C156.293 130.832 155.069 127.218 153.957 123.57C151.658 116.007 152.028 115.673 152.288 115.438C152.436 115.304 152.659 115.238 152.881 115.238C153.882 115.338 155.328 117.446 155.736 118.082C155.848 118.249 155.773 118.45 155.588 118.551C155.403 118.651 155.18 118.584 155.069 118.417C154.253 117.145 153.178 115.974 152.807 115.907C152.659 116.978 154.809 124.206 156.997 130.665C157.071 130.832 156.96 131.033 156.738 131.066C156.738 131.066 156.7 131.1 156.663 131.1Z" fill="#FAFAFB"/>
<path d="M98.1894 193.981C98.041 193.981 97.8927 193.914 97.8556 193.78C90.6251 176.545 88.9195 166.974 88.9195 166.874C88.8824 166.707 89.0307 166.506 89.2161 166.506C89.4015 166.472 89.624 166.606 89.624 166.774C89.624 166.874 91.3296 176.378 98.5231 193.546C98.5972 193.713 98.486 193.914 98.3006 193.981H98.1894ZM158.035 188.76C157.887 188.76 157.776 188.693 157.702 188.593L144.983 167.409C144.872 167.242 144.946 167.041 145.132 166.941C145.317 166.841 145.54 166.907 145.651 167.075L158.369 188.258C158.48 188.425 158.406 188.626 158.221 188.727C158.147 188.76 158.109 188.76 158.035 188.76Z" fill="#242D35"/>
<path d="M157.59 188.091C157.442 188.091 157.331 188.024 157.257 187.923L153.66 181.9L150.397 176.512C150.286 176.345 150.36 176.144 150.545 176.043C150.731 175.943 150.953 176.01 151.064 176.177L154.327 181.565L157.924 187.589C158.035 187.756 157.961 187.957 157.776 188.057C157.739 188.091 157.665 188.091 157.59 188.091Z" fill="white"/>
<path d="M109.424 163.26C109.276 163.26 109.127 163.159 109.09 163.026C109.053 162.892 104.53 150.51 105.753 130.732C106.977 110.954 112.465 101.383 112.539 101.316C112.65 101.149 112.872 101.082 113.058 101.182C113.243 101.283 113.317 101.483 113.206 101.651C113.169 101.751 107.718 111.188 106.495 130.799C105.271 150.443 109.721 162.724 109.795 162.825C109.869 162.992 109.758 163.193 109.572 163.26C109.498 163.226 109.461 163.26 109.424 163.26Z" fill="#242D35"/>
<path d="M134.935 115.74C134.861 115.74 134.824 115.74 134.749 115.706C134.638 115.673 123.996 110.854 109.276 110.854C105.123 110.854 101.044 111.121 97.1137 111.657C92.0338 112.36 88.9933 113.263 88.9933 113.263C88.8079 113.33 88.5854 113.23 88.5112 113.062C88.4371 112.895 88.5483 112.694 88.7337 112.627C88.7708 112.627 91.8484 111.69 97.0024 110.987C100.97 110.452 105.123 110.184 109.276 110.184C124.182 110.184 134.972 115.037 135.083 115.104C135.268 115.204 135.343 115.405 135.231 115.539C135.194 115.673 135.083 115.74 134.935 115.74ZM133.785 128.557C133.748 128.557 133.674 128.557 133.637 128.523C133.526 128.456 121.809 123.37 106.754 123.738C93.2203 124.072 85.6561 127.72 85.5819 127.753C85.3965 127.854 85.1741 127.787 85.0628 127.62C84.9516 127.452 85.0258 127.251 85.2112 127.151C85.2853 127.118 92.9978 123.403 106.717 123.068C121.957 122.7 133.822 127.854 133.934 127.921C134.119 127.988 134.193 128.188 134.119 128.356C134.045 128.49 133.934 128.557 133.785 128.557ZM137.122 141.876C137.048 141.876 136.974 141.842 136.937 141.809C136.826 141.742 126.444 135.852 106.013 136.22C93.8507 136.454 85.2853 140.671 85.2112 140.738C85.0258 140.838 84.8033 140.771 84.692 140.604C84.5808 140.437 84.655 140.236 84.8404 140.135C84.9145 140.102 93.6282 135.785 105.976 135.551C126.666 135.183 137.197 141.173 137.308 141.24C137.493 141.34 137.53 141.541 137.419 141.708C137.345 141.809 137.234 141.876 137.122 141.876ZM142.425 154.994C142.388 154.994 142.351 154.994 142.314 154.96C142.128 154.894 124.96 149.606 106.606 151.079C93.7394 152.116 86.991 154.559 86.9168 154.592C86.7314 154.659 86.5089 154.592 86.4348 154.425C86.3606 154.258 86.4348 154.057 86.6202 153.99C86.6943 153.957 93.517 151.48 106.532 150.443C125.035 148.937 142.388 154.325 142.536 154.358C142.721 154.425 142.833 154.626 142.759 154.793C142.721 154.927 142.573 154.994 142.425 154.994Z" fill="#242D35"/>
<path d="M125.702 191.203C125.591 191.203 125.443 191.136 125.406 191.036L116.766 178.553C115.654 176.98 113.763 176.01 111.686 175.943L103.121 175.776C102.898 175.776 102.75 175.608 102.75 175.441C102.75 175.274 102.935 175.106 103.121 175.106L111.686 175.274C114.022 175.307 116.136 176.412 117.359 178.185L125.999 190.668C126.11 190.835 126.036 191.036 125.888 191.136C125.851 191.203 125.776 191.203 125.702 191.203ZM150.694 176.545C136.715 176.478 131.709 164.967 131.672 164.833C131.598 164.665 131.709 164.465 131.894 164.398C132.08 164.331 132.302 164.431 132.376 164.598C132.413 164.699 137.271 175.809 150.694 175.876C150.916 175.876 151.064 176.043 151.064 176.211C151.064 176.378 150.879 176.545 150.694 176.545ZM92.7753 177.784C92.6641 177.784 92.5529 177.75 92.4787 177.65C92.3304 177.516 92.3675 177.282 92.5158 177.181C96.4462 174.27 94.481 165.502 94.481 165.402C94.4439 165.234 94.5552 165.033 94.7776 165C94.963 164.967 95.1855 165.067 95.2226 165.268C95.2967 165.636 97.299 174.538 92.9978 177.717C92.9607 177.75 92.8866 177.784 92.7753 177.784ZM112.205 79.0954C113.639 79.0954 114.801 78.586 114.801 77.9576C114.801 77.3291 113.639 76.8198 112.205 76.8198C110.772 76.8198 109.61 77.3294 109.61 77.9576C109.61 78.5857 110.772 79.0954 112.205 79.0954Z" fill="white"/>
<path d="M112.205 79.43C110.5 79.43 109.239 78.7942 109.239 77.9576C109.239 77.1209 110.5 76.4851 112.205 76.4851C113.911 76.4851 115.172 77.1209 115.172 77.9576C115.172 78.7942 113.911 79.43 112.205 79.43ZM112.205 77.1879C110.833 77.1879 109.981 77.6564 109.981 77.991C109.981 78.3257 110.833 78.7942 112.205 78.7942C113.577 78.7942 114.43 78.3257 114.43 77.991C114.43 77.6564 113.577 77.1879 112.205 77.1879Z" fill="#242D35"/>
<path d="M110.166 77.3887H110.017C109.758 77.556 109.647 77.7568 109.647 77.991C109.647 78.6269 110.796 79.1288 112.242 79.1288H112.39C112.65 78.9615 112.761 78.7607 112.761 78.5265C112.761 77.8906 111.575 77.3887 110.166 77.3887ZM114.207 75.8827C114.133 75.8827 114.096 75.8827 114.022 75.8493C112.687 75.18 111.204 75.8158 111.167 75.8158C110.981 75.8827 110.759 75.8158 110.685 75.6485C110.611 75.4812 110.685 75.2804 110.87 75.2134C110.944 75.18 112.724 74.4103 114.393 75.2469C114.578 75.3473 114.652 75.5481 114.541 75.7154C114.467 75.8158 114.319 75.8827 114.207 75.8827Z" fill="#242D35"/>
<path d="M108.608 85.9892L113.095 84.1151C113.095 84.1151 113.243 86.4577 111.871 87.06C110.091 87.8967 108.608 85.9892 108.608 85.9892Z" fill="white"/>
<path d="M110.981 87.5955C109.795 87.5955 108.757 86.7588 108.312 86.1899C108.237 86.123 108.237 86.0226 108.237 85.9222C108.237 85.8218 108.349 85.7549 108.423 85.688L112.91 83.8139C113.021 83.7805 113.169 83.7805 113.243 83.8139C113.317 83.8474 113.429 83.9812 113.429 84.0816C113.429 84.182 113.577 86.6584 112.02 87.3612C111.686 87.5285 111.315 87.5955 110.981 87.5955ZM109.202 86.123C109.684 86.558 110.648 87.2608 111.723 86.7923C112.465 86.4576 112.687 85.3868 112.724 84.6505L109.202 86.123ZM116.655 89.4026C116.655 89.4026 116.284 90.44 114.096 90.875C111.908 91.2766 110.24 92.2136 110.017 93.3849L110.351 90.2392C110.314 90.2392 113.354 90.1723 116.655 89.4026Z" fill="#242D35"/>
<path d="M109.981 93.7196H109.944C109.758 93.6861 109.61 93.5523 109.61 93.3515L109.944 90.2058C109.944 90.0384 110.129 89.9046 110.314 89.9046C110.351 89.9046 113.355 89.8376 116.544 89.1014C116.692 89.068 116.803 89.1014 116.914 89.2018C117.026 89.3022 117.026 89.4026 116.989 89.5365C116.989 89.6034 116.544 90.7747 114.134 91.2432C111.983 91.6448 110.5 92.5148 110.351 93.4853C110.314 93.5857 110.166 93.7196 109.981 93.7196ZM110.648 90.5404L110.5 91.9459C111.278 91.3101 112.465 90.8081 113.985 90.5404C114.764 90.4066 115.283 90.1723 115.617 89.9715C113.392 90.4066 111.427 90.5069 110.648 90.5404Z" fill="#242D35"/>
<path d="M217.77 117.881C217.214 116.71 214.1 115.84 214.1 115.84C214.1 115.84 212.283 114.635 210.355 115.271C209.168 115.673 207.351 116.844 205.571 118.216V129.895C206.61 128.59 207.574 127.318 208.426 126.147L207.722 127.118C207.722 127.118 211.133 127.118 211.875 126.85C212.616 126.582 214.174 125.98 214.137 124.809L214.545 124.206C214.545 124.206 215.768 123.604 215.657 122.968C215.583 122.332 215.064 121.931 215.064 121.931C215.064 121.931 216.992 121.931 216.992 120.994C217.029 120.057 216.361 119.555 216.361 119.555C216.361 119.555 218.327 119.019 217.77 117.881Z" fill="#FAFAFB"/>
<path d="M207.648 122.432C207.462 122.432 207.314 122.332 207.277 122.165C207.24 121.997 207.388 121.797 207.574 121.797C210.54 121.362 211.875 118.818 211.912 118.785C211.986 118.617 212.209 118.551 212.394 118.617C212.579 118.684 212.653 118.885 212.579 119.053C212.505 119.186 211.059 121.964 207.685 122.432H207.648ZM216.139 119.856C215.472 119.856 214.952 119.722 214.915 119.722C214.73 119.655 214.619 119.488 214.656 119.32C214.73 119.153 214.915 119.053 215.101 119.086C215.434 119.186 216.473 119.354 217.103 119.019C217.363 118.885 217.511 118.718 217.585 118.45C217.622 118.283 217.585 118.149 217.511 117.982C216.992 117.212 214.989 116.643 214.248 116.509C214.063 116.476 213.914 116.275 213.951 116.108C213.988 115.94 214.211 115.806 214.396 115.84C214.693 115.907 217.363 116.476 218.104 117.647C218.327 117.948 218.364 118.283 218.29 118.617C218.178 119.053 217.882 119.387 217.474 119.588C217.066 119.822 216.584 119.856 216.139 119.856Z" fill="#242D35"/>
<path d="M214.1 124.708C213.951 124.708 213.803 124.641 213.766 124.507C213.692 124.34 213.766 124.139 213.951 124.072C214.952 123.671 215.472 123.236 215.36 122.834C215.286 122.399 214.582 122.031 214.211 122.031C211.652 122.064 210.54 122.332 209.798 122.633C209.539 122.734 209.391 122.868 209.391 123.035C209.353 123.202 209.465 123.336 209.613 123.47C209.687 123.503 210.243 123.637 211.319 123.704C211.541 123.704 211.689 123.871 211.652 124.072C211.652 124.273 211.467 124.407 211.244 124.373C210.614 124.34 209.465 124.24 209.131 124.005C208.76 123.738 208.575 123.37 208.612 122.968C208.686 122.566 208.983 122.198 209.465 122.031C210.28 121.73 211.467 121.395 214.174 121.395C214.841 121.395 215.879 121.931 216.028 122.734C216.139 123.269 215.916 124.039 214.174 124.708H214.1Z" fill="#242D35"/>
<path d="M209.724 127.586C208.723 127.586 207.648 127.452 207.648 127.419C207.462 127.385 207.314 127.218 207.351 127.051C207.388 126.883 207.574 126.749 207.759 126.783C208.723 126.917 210.317 127.017 210.837 126.816C210.948 126.783 211.096 126.716 211.281 126.649C212.023 126.381 213.358 125.913 213.729 125.411C213.877 125.21 213.914 125.043 213.84 124.842C213.766 124.608 213.543 124.44 213.432 124.407C212.95 124.206 211.578 124.307 211.022 124.407C209.947 124.708 208.76 125.277 208.76 125.612C208.908 125.812 210.095 125.846 211.467 125.612C211.652 125.578 211.875 125.712 211.912 125.879C211.949 126.047 211.801 126.248 211.615 126.281C211.207 126.348 209.057 126.683 208.315 126.181C208.13 126.047 208.019 125.879 208.019 125.679C207.981 124.641 210.169 123.972 210.837 123.805C211.356 123.704 212.987 123.537 213.766 123.838C214.025 123.938 214.396 124.24 214.544 124.708C214.619 124.976 214.656 125.377 214.359 125.812C213.877 126.482 212.468 126.984 211.578 127.318C211.393 127.385 211.282 127.419 211.133 127.486C210.799 127.553 210.28 127.586 209.724 127.586ZM174.499 138.395H174.239C166.934 138.194 162.225 129.025 158.072 120.893C157.257 119.287 156.478 117.747 155.699 116.342C151.213 108.243 142.907 105.733 142.796 105.7C142.61 105.633 142.499 105.466 142.573 105.265C142.647 105.098 142.833 104.997 143.055 105.064C143.129 105.098 151.732 107.674 156.367 116.041C157.145 117.446 157.924 118.986 158.777 120.592C162.856 128.523 167.454 137.525 174.276 137.693H174.499C183.398 137.693 197.451 124.742 200.195 122.131C204.681 117.848 209.872 114.468 211.726 114.602C213.024 114.702 214.656 115.806 215.434 116.777C215.805 117.245 215.954 117.614 215.879 117.948C215.731 118.517 214.211 121.931 212.802 121.763C211.652 121.629 211.801 119.186 211.986 117.747C212.023 117.58 212.208 117.446 212.394 117.446C212.579 117.48 212.728 117.647 212.728 117.814C212.542 119.387 212.616 120.927 212.913 121.094H212.95C213.506 121.094 214.915 118.785 215.175 117.781C215.175 117.714 215.138 117.513 214.878 117.178C214.211 116.342 212.728 115.338 211.689 115.271C210.28 115.171 205.423 118.149 200.751 122.6C196.82 126.381 183.472 138.395 174.499 138.395Z" fill="#242D35"/>
<path d="M170.531 157.403C161.929 157.403 156.478 154.458 155.254 153.588C155.217 153.588 155.18 153.555 155.143 153.521V153.488C155.032 153.421 154.995 153.354 154.995 153.354C154.958 153.22 154.995 153.053 155.143 152.986C155.291 152.886 155.477 152.919 155.588 152.986C155.588 152.986 155.625 152.986 155.625 153.02C156.033 153.287 161.261 156.734 170.568 156.734H170.865C180.135 156.667 185.029 152.953 193.224 144.151C201.344 135.417 208.13 125.679 208.167 125.578C208.278 125.411 208.501 125.377 208.686 125.478C208.871 125.578 208.908 125.779 208.797 125.946C208.723 126.047 201.937 135.819 193.78 144.586C185.437 153.555 180.394 157.336 170.865 157.403H170.531ZM215.286 122.064C214.804 122.064 214.285 121.997 213.877 121.964C213.58 121.931 213.284 121.897 213.061 121.897C212.171 121.897 210.355 121.897 210.355 120.793C210.355 120.592 210.503 120.458 210.725 120.458C210.948 120.458 211.096 120.592 211.096 120.793C211.096 121.06 211.764 121.228 213.061 121.228C213.284 121.228 213.58 121.261 213.951 121.295C215.249 121.429 216.436 121.495 216.658 120.86C216.695 120.692 216.695 120.525 216.584 120.391C216.25 119.956 215.286 119.755 214.952 119.722C214.767 119.688 214.619 119.521 214.619 119.354C214.656 119.186 214.841 119.053 215.027 119.053C215.175 119.086 216.621 119.253 217.177 120.023C217.4 120.324 217.437 120.659 217.363 121.027C217.14 121.864 216.25 122.064 215.286 122.064Z" fill="#242D35"/>
<path d="M207.648 122.098C207.648 122.098 207.574 126.783 205.349 129.962C205.349 129.962 206.647 128.155 208.241 125.611C208.612 125.042 209.428 124.44 209.725 124.172C209.725 124.172 208.538 123.202 209.242 122.499C209.762 121.997 211.69 121.462 212.098 121.462L212.023 119.822C211.986 119.822 209.205 122.164 207.648 122.098Z" fill="#242D35"/>
<path d="M205.386 130.297C205.312 130.297 205.238 130.263 205.2 130.23C205.015 130.129 204.978 129.929 205.089 129.761C207.24 126.683 207.314 122.131 207.314 122.064C207.314 121.964 207.351 121.897 207.425 121.83C207.499 121.763 207.611 121.73 207.685 121.73C208.797 121.763 211.022 120.157 211.764 119.554C211.875 119.454 212.023 119.454 212.171 119.488C212.32 119.521 212.394 119.655 212.394 119.789L212.468 121.429C212.468 121.529 212.431 121.596 212.357 121.663C212.283 121.73 212.209 121.763 212.097 121.763C211.801 121.763 209.947 122.299 209.539 122.7C209.131 123.102 210.021 123.871 210.021 123.905C210.095 123.972 210.132 124.039 210.132 124.139C210.132 124.24 210.095 124.307 210.021 124.373C209.947 124.44 209.873 124.507 209.761 124.574C209.428 124.842 208.871 125.31 208.612 125.712C207.017 128.255 205.72 130.062 205.72 130.062C205.608 130.23 205.497 130.297 205.386 130.297ZM208.019 122.399C207.981 123.035 207.87 124.608 207.388 126.314C207.574 126.013 207.759 125.745 207.944 125.411C208.278 124.942 208.834 124.474 209.205 124.139C208.723 123.637 208.352 122.868 208.946 122.265C209.428 121.797 210.911 121.328 211.689 121.161L211.652 120.491C210.799 121.161 209.242 122.232 208.019 122.399ZM136.233 146.126C136.566 146.996 136.937 147.866 137.011 148.803C137.085 149.907 136.826 151.012 136.863 152.116C136.937 154.224 138.049 156.165 139.347 157.939C140.608 159.679 142.091 161.386 144.131 162.39C144.056 161.988 144.019 161.62 143.982 161.218L140.719 146.661C139.829 146.126 137.79 143.147 137.567 142.712C136.418 140.671 135.528 138.529 134.935 136.287C134.898 136.153 134.861 135.919 134.824 135.651C134.712 135.283 134.527 133.576 134.527 133.576C134.527 133.576 134.675 135.919 134.156 139.567C133.748 141.943 135.269 143.716 136.233 146.126Z" fill="#242D35"/>
<path d="M144.093 162.724C144.019 162.724 143.982 162.724 143.908 162.691C141.683 161.587 140.126 159.679 139.014 158.14C137.901 156.567 136.566 154.458 136.492 152.149C136.455 151.58 136.529 151.012 136.566 150.476C136.603 149.907 136.678 149.372 136.64 148.836C136.603 148 136.27 147.23 135.936 146.393L135.899 146.26C135.639 145.59 135.306 144.954 135.009 144.319C134.23 142.779 133.489 141.307 133.748 139.5C134.267 135.919 134.119 133.576 134.119 133.576C134.119 133.409 134.267 133.242 134.453 133.208C134.638 133.175 134.824 133.342 134.861 133.509C134.898 133.978 135.083 135.25 135.157 135.551L135.194 135.818C135.231 135.986 135.231 136.12 135.268 136.187C135.862 138.395 136.715 140.537 137.864 142.511C138.161 143.013 140.163 145.891 140.905 146.36C140.979 146.393 141.053 146.494 141.053 146.561L144.316 161.118C144.353 161.553 144.427 161.921 144.464 162.323C144.464 162.457 144.427 162.557 144.316 162.657C144.242 162.691 144.168 162.724 144.093 162.724ZM136.603 145.992L136.64 146.126C136.974 146.962 137.345 147.832 137.382 148.769C137.419 149.372 137.345 149.941 137.308 150.51C137.271 151.045 137.197 151.58 137.234 152.082C137.308 154.224 138.569 156.232 139.644 157.738C140.571 159.043 141.869 160.65 143.648 161.72C143.611 161.553 143.611 161.386 143.574 161.218L140.348 146.795C139.31 146.025 137.382 143.147 137.197 142.813C136.158 141.006 135.343 139.098 134.749 137.124C134.675 137.86 134.601 138.663 134.49 139.567C134.267 141.173 134.935 142.478 135.676 144.017C135.973 144.653 136.307 145.289 136.603 145.992ZM30.593 78.0245C30.4818 78.0245 30.4076 77.991 30.3335 77.9241C27.9604 75.615 27.8862 73.8413 27.8862 73.7744C27.8862 73.5736 28.0345 73.4398 28.257 73.4398C28.4424 73.4398 28.6278 73.5736 28.6278 73.7744C28.6278 73.8079 28.702 75.3807 30.8526 77.489C31.0009 77.6229 31.0009 77.8237 30.8155 77.9575C30.7784 78.0245 30.6672 78.0245 30.593 78.0245ZM110.574 99.7767C110.351 99.7767 110.166 99.7098 109.98 99.5759C109.684 99.3417 109.535 99.0405 109.572 98.6724C109.721 97.3672 112.835 95.8278 113.169 95.627C113.317 95.5601 113.466 95.5936 113.577 95.6605C113.688 95.7609 113.725 95.8948 113.688 96.0286C113.429 96.5975 112.131 99.4086 110.833 99.7098C110.722 99.7767 110.648 99.7767 110.574 99.7767ZM112.502 96.7648C111.463 97.3672 110.351 98.2038 110.277 98.7393C110.277 98.8397 110.277 98.9401 110.425 99.0405C110.499 99.1074 110.536 99.1074 110.611 99.0739C111.13 98.9735 111.908 97.8692 112.502 96.7648ZM108.312 114.97C108.312 114.97 105.382 123.37 116.247 123.805L111.018 123.269L106.791 123.403L108.312 114.97Z" fill="#242D35"/>
<path d="M116.21 124.139C115.357 124.106 114.615 124.039 113.911 123.905L110.944 123.604L106.717 123.738C106.606 123.738 106.495 123.704 106.421 123.637C106.346 123.57 106.309 123.47 106.346 123.369L107.57 116.844C107.644 115.739 107.904 114.97 107.941 114.869C108.015 114.702 108.2 114.602 108.386 114.635C108.571 114.669 108.682 114.836 108.682 115.003L108.349 116.81C108.275 117.982 108.423 119.521 109.424 120.826C110.388 122.064 111.945 122.868 114.059 123.236L116.284 123.47C116.469 123.503 116.617 123.637 116.617 123.838C116.58 124.039 116.395 124.139 116.21 124.139ZM107.867 119.421L107.199 123.102L110.907 122.968C110.054 122.533 109.35 121.931 108.794 121.261C108.349 120.659 108.052 120.023 107.867 119.421ZM134.267 119.32C134.267 119.32 133.303 127.987 127.074 125.912L131.523 127.084L133.785 128.222C133.785 128.222 133.563 123.57 134.267 119.32Z" fill="#242D35"/>
<path d="M133.785 128.557C133.711 128.557 133.674 128.557 133.6 128.523L131.375 127.419L127.853 126.482C127.556 126.415 127.259 126.348 126.963 126.247C126.777 126.181 126.666 126.013 126.74 125.812C126.814 125.645 127 125.545 127.185 125.612L128.038 125.846C129.039 126.047 129.966 125.913 130.745 125.478C132.858 124.273 133.637 121.127 133.859 119.856C133.897 119.655 133.934 119.488 133.934 119.287C133.971 119.119 134.156 118.986 134.342 119.019C134.527 119.053 134.675 119.22 134.675 119.387C134.675 119.421 134.638 119.688 134.564 120.056C134.008 124.039 134.156 128.188 134.156 128.255C134.156 128.389 134.082 128.49 133.971 128.557H133.785ZM130.189 126.415L131.635 126.783C131.672 126.783 131.672 126.816 131.709 126.816L133.377 127.653C133.377 126.816 133.34 125.21 133.452 123.336C132.932 124.407 132.154 125.411 131.079 126.047C130.819 126.181 130.522 126.314 130.189 126.415ZM137.493 101.852C137.493 101.852 142.425 103.558 139.347 107.306C139.347 107.306 142.165 105.332 142.351 105.098C142.573 104.863 138.828 102.487 137.493 101.852Z" fill="#242D35"/>
<path d="M139.384 107.641C139.273 107.641 139.199 107.608 139.125 107.541C138.976 107.44 138.976 107.239 139.088 107.106C139.903 106.102 140.2 105.165 139.903 104.361C139.718 103.793 139.31 103.357 138.865 103.023C138.272 102.655 137.679 102.32 137.308 102.153C137.122 102.086 137.048 101.885 137.16 101.718C137.234 101.55 137.456 101.483 137.642 101.55C137.716 101.584 138.569 101.885 139.384 102.521C140.868 103.391 142.647 104.596 142.759 104.997C142.796 105.098 142.759 105.232 142.684 105.298C142.499 105.533 140.46 106.972 139.607 107.574C139.533 107.641 139.458 107.641 139.384 107.641ZM140.608 104.094C140.608 104.127 140.608 104.161 140.645 104.161C140.83 104.763 140.83 105.399 140.571 106.035C141.127 105.633 141.683 105.232 141.943 105.031C141.683 104.83 141.164 104.495 140.608 104.094ZM127.556 126.113C127.556 126.113 130.3 126.916 131.449 127.954C132.895 129.259 134.045 130.464 134.267 132.472L133.785 126.916L127.556 126.113Z" fill="#242D35"/>
<path d="M134.267 132.807C134.082 132.807 133.934 132.673 133.897 132.505C133.711 130.598 132.599 129.46 131.19 128.188C130.114 127.218 127.482 126.448 127.445 126.415C127.259 126.348 127.148 126.181 127.185 126.013C127.222 125.846 127.408 125.746 127.593 125.746L133.822 126.549C134.008 126.582 134.119 126.683 134.156 126.85L134.638 132.405C134.638 132.639 134.49 132.807 134.267 132.807ZM130.3 126.816C130.856 127.084 131.338 127.385 131.709 127.72C132.45 128.389 133.118 129.059 133.637 129.828L133.415 127.218L130.3 126.816ZM106.458 126.783C106.458 126.783 105.864 131.435 109.869 134.179C112.798 136.086 117.841 136.354 117.841 136.354L105.976 135.919L106.458 126.783Z" fill="#242D35"/>
<path d="M117.841 136.689L105.976 136.254C105.864 136.254 105.79 136.22 105.716 136.153C105.642 136.086 105.605 135.986 105.605 135.919L106.013 127.519C106.013 127.084 106.05 126.816 106.05 126.783C106.087 126.616 106.235 126.482 106.458 126.482C106.643 126.482 106.791 126.649 106.791 126.816L106.754 127.419C106.754 128.69 107.051 131.903 110.054 133.944C112.835 135.785 117.804 136.053 117.841 136.053C118.026 136.053 118.212 136.22 118.175 136.387C118.212 136.555 118.026 136.689 117.841 136.689ZM106.384 135.584L112.798 135.818C111.686 135.484 110.574 135.049 109.647 134.446C108.015 133.342 107.125 131.97 106.643 130.665L106.384 135.584ZM105.939 139.633L106.977 150.878C106.977 150.878 113.28 150.142 120.288 150.71C120.288 150.71 111.983 150.443 108.868 146.996C105.976 143.75 105.939 139.633 105.939 139.633Z" fill="#242D35"/>
<path d="M106.977 151.179C106.903 151.179 106.829 151.145 106.754 151.112C106.68 151.045 106.643 150.978 106.606 150.878L105.679 140.771C105.568 140.102 105.568 139.667 105.568 139.6C105.568 139.433 105.716 139.265 105.939 139.265C106.124 139.265 106.309 139.399 106.309 139.567L106.384 140.571C106.569 141.976 107.199 144.586 109.127 146.762C111.389 149.271 116.58 150.041 119.028 150.275C119.436 150.309 119.88 150.342 120.325 150.376C120.511 150.376 120.659 150.543 120.659 150.744C120.659 150.911 120.474 151.079 120.288 151.045C120.214 151.045 119.658 151.012 118.842 150.945C112.576 150.577 107.125 151.212 107.051 151.212C107.014 151.179 107.014 151.179 106.977 151.179ZM106.754 144.419L107.311 150.476C108.275 150.376 110.907 150.141 114.244 150.141C112.094 149.573 109.869 148.669 108.534 147.163C107.756 146.293 107.199 145.323 106.754 144.419ZM111.686 103.859L109.313 110.519C109.313 110.519 116.024 110.519 120.956 111.456C120.956 111.456 114.912 110.552 112.316 108.511C110.351 106.938 111.686 103.859 111.686 103.859Z" fill="#242D35"/>
<path d="M120.956 111.791H120.882C120.808 111.791 120.474 111.724 119.918 111.623C115.171 110.854 109.35 110.854 109.276 110.854C109.165 110.854 109.053 110.787 108.979 110.72C108.905 110.619 108.905 110.519 108.942 110.419L111.13 104.261C111.204 103.96 111.315 103.793 111.315 103.759C111.389 103.592 111.612 103.491 111.797 103.558C111.983 103.625 112.094 103.793 112.02 103.96L111.871 104.361C111.612 105.198 111.204 107.172 112.539 108.243C114.467 109.716 118.397 110.619 120.14 110.954C120.437 110.987 120.733 111.054 121.03 111.121C121.215 111.155 121.364 111.322 121.327 111.523C121.29 111.657 121.141 111.791 120.956 111.791ZM109.832 110.184C110.796 110.184 112.947 110.251 115.394 110.419C114.133 109.984 112.947 109.448 112.057 108.779C111.426 108.277 111.093 107.641 110.944 106.972L109.832 110.184ZM107.348 154.592C107.348 154.592 108.683 162.59 116.988 162.657C120.77 162.691 120.437 163.126 123.181 162.892C122.773 162.959 109.387 162.892 109.387 162.892L107.348 154.592Z" fill="#242D35"/>
<path d="M121.809 163.327C121.475 163.327 121.215 163.327 120.919 163.293C117.582 163.293 111.649 163.26 109.387 163.26C109.202 163.26 109.053 163.159 109.016 162.992L107.125 155.395C106.977 154.96 106.94 154.659 106.94 154.659C106.903 154.492 107.051 154.325 107.236 154.291C107.422 154.258 107.607 154.358 107.681 154.559L107.904 155.529C108.534 157.604 110.648 162.323 116.951 162.39C118.731 162.39 119.621 162.524 120.325 162.59C120.548 162.624 120.733 162.624 120.919 162.657C121.994 162.657 122.773 162.657 123.032 162.624H123.106C123.292 162.59 123.477 162.724 123.514 162.892C123.551 163.059 123.403 163.226 123.218 163.26H123.181C122.661 163.293 122.179 163.327 121.809 163.327ZM109.721 162.59C111.056 162.59 112.539 162.59 114.022 162.624C111.501 161.921 109.832 160.348 108.794 158.809L109.721 162.59ZM89.809 107.474C89.809 107.474 88.0292 112.393 96.1496 111.423C96.1496 111.423 93.8136 111.657 91.8113 112.058C90.2169 112.393 88.882 112.895 88.882 112.761C88.882 112.493 89.809 107.474 89.809 107.474Z" fill="#242D35"/>
<path d="M88.9191 113.129C88.8079 113.129 88.7708 113.096 88.6966 113.062C88.5854 112.995 88.5483 112.895 88.5483 112.795C88.5483 112.56 88.9933 109.983 89.2899 108.377C89.327 107.842 89.4753 107.44 89.4753 107.407C89.5495 107.239 89.7349 107.139 89.9203 107.172C90.1057 107.206 90.2169 107.373 90.1798 107.541C90.1427 107.808 90.0686 108.109 90.0315 108.411C89.9944 108.946 90.1057 109.615 90.6248 110.151C91.4405 111.054 93.2203 111.389 95.7417 111.121C95.9642 111.088 96.1125 111.088 96.1125 111.088C96.2979 111.054 96.4833 111.188 96.5204 111.389C96.5575 111.556 96.4092 111.724 96.1867 111.757C96.0384 111.757 95.9271 111.791 95.7788 111.791C95.0372 111.891 93.3316 112.092 91.8855 112.393C91.0697 112.56 90.3281 112.761 89.7719 112.928C89.2899 113.062 89.0674 113.129 88.9191 113.129ZM89.6978 110.151C89.5495 111.054 89.4011 111.858 89.327 112.36C89.4011 112.326 89.4753 112.326 89.5495 112.293C90.1057 112.125 90.8472 111.924 91.7001 111.757C91.8113 111.724 91.9226 111.724 92.0338 111.69C91.1439 111.489 90.4765 111.121 89.9944 110.586C89.8832 110.419 89.7719 110.285 89.6978 110.151ZM84.5437 119.555C84.5437 119.555 83.2459 126.75 93.2945 124.943C93.2945 124.943 86.991 126.415 85.3966 127.453C85.3966 127.486 83.8021 122.968 84.5437 119.555Z" fill="#242D35"/>
<path d="M85.3965 127.82C85.3595 127.82 85.3224 127.82 85.2853 127.787C85.1741 127.753 85.0999 127.686 85.0628 127.586C84.9887 127.385 83.4684 122.968 84.21 119.488C84.2471 119.32 84.4325 119.186 84.655 119.22C84.8404 119.253 84.9887 119.421 84.9516 119.588C84.9516 119.621 84.5437 122.131 86.2864 123.671C87.6584 124.875 89.9944 125.177 93.2574 124.608C93.4428 124.574 93.6282 124.675 93.7023 124.875C93.7394 125.043 93.6282 125.244 93.4428 125.277C93.3686 125.277 87.2134 126.749 85.6561 127.753C85.5449 127.787 85.4707 127.82 85.3965 127.82ZM84.8033 123.035C84.9887 124.742 85.3965 126.247 85.619 126.984C86.5831 126.515 88.1775 126.013 89.6607 125.578C88.0292 125.478 86.6943 125.009 85.7673 124.206C85.3595 123.838 85.0257 123.436 84.8033 123.035ZM82.9493 134.078C82.9493 134.078 83.283 139.6 93.2203 137.559L88.1404 138.864L85.0257 140.403C85.0257 140.437 82.8381 136.99 82.9493 134.078Z" fill="#242D35"/>
<path d="M85.0258 140.771C84.9145 140.771 84.7662 140.704 84.692 140.604C84.6179 140.47 82.4673 137.023 82.5785 134.078C82.5785 133.911 82.7268 133.744 82.9493 133.744C83.1347 133.744 83.3201 133.878 83.3201 134.045C83.3201 134.112 83.4313 135.551 84.9887 136.622C86.6943 137.793 89.4382 137.994 93.1462 137.224C93.3316 137.191 93.554 137.291 93.5911 137.458C93.6282 137.626 93.517 137.826 93.3316 137.86L88.2888 139.165L85.2112 140.704C85.137 140.771 85.0628 140.771 85.0258 140.771ZM83.6167 136.387C84.0617 137.96 84.8033 139.366 85.137 139.968L87.918 138.596C87.955 138.596 87.955 138.563 87.9921 138.563L88.7708 138.362C86.991 138.295 85.5449 137.927 84.4696 137.157C84.1729 136.923 83.8763 136.655 83.6167 136.387ZM84.3583 149.037C84.3583 149.037 86.1011 153.789 93.4057 152.551L86.8056 154.291L84.3583 149.037Z" fill="#242D35"/>
<path d="M86.7685 154.626C86.6202 154.626 86.4719 154.559 86.4348 154.425L84.1359 149.405C84.0617 149.238 84.0246 149.171 84.0246 149.138C83.9505 148.97 84.0617 148.769 84.2471 148.736C84.4325 148.669 84.655 148.769 84.7291 148.937L84.8774 149.305C85.4336 150.342 87.5101 153.254 93.3316 152.25C93.517 152.216 93.7024 152.317 93.7765 152.484C93.8136 152.651 93.7024 152.819 93.517 152.886L86.9168 154.626H86.7685ZM85.8786 151.48L86.991 153.89L90.1798 153.053C88.2146 152.886 86.8427 152.216 85.8786 151.48ZM83.1347 132.104C83.1347 132.104 83.5797 128.389 88.7337 126.582C90.8843 125.846 97.1878 124.139 100.785 123.771L91.5518 125.511L85.3966 127.485C85.3966 127.485 84.4696 128.824 84.2471 129.326C83.3201 131.1 83.1347 132.104 83.1347 132.104Z" fill="#242D35"/>
<path d="M83.1347 132.438H83.0976C82.9122 132.405 82.7639 132.238 82.7639 132.07C82.7639 132.003 82.8381 131.468 83.1718 130.732C83.3201 130.297 83.5797 129.795 83.8763 129.192C84.1359 128.69 85.0258 127.385 85.0628 127.318C85.0999 127.251 85.1741 127.218 85.2482 127.184L91.4034 125.21H91.4405L94.6294 124.608C96.817 124.072 99.0789 123.637 100.71 123.47C100.896 123.436 101.081 123.57 101.118 123.738C101.155 123.905 101.007 124.072 100.822 124.106L94.7406 125.244C92.3304 125.812 89.9944 126.482 88.8079 126.883C85.6932 127.954 84.3583 129.728 83.8021 130.933C83.5055 131.702 83.3943 132.137 83.3943 132.171C83.4684 132.305 83.3201 132.438 83.1347 132.438ZM85.6561 127.753C85.6561 127.787 85.619 127.82 85.582 127.854C85.6561 127.82 85.6932 127.753 85.7674 127.72L85.6561 127.753Z" fill="#242D35"/>
<path d="M97.744 193.211C97.5957 193.211 97.4474 193.11 97.4103 192.976C97.3732 192.909 95.0001 186.919 92.7012 180.159C91.663 177.08 90.8102 174.303 90.1427 171.893C90.1056 171.726 90.2169 171.525 90.4023 171.492C90.5877 171.458 90.8102 171.559 90.8472 171.726C91.5147 174.102 92.3675 176.88 93.4057 179.958C95.6676 186.685 98.0777 192.675 98.1148 192.742C98.189 192.909 98.0777 193.11 97.8923 193.177C97.8182 193.211 97.7811 193.211 97.744 193.211Z" fill="white"/>
<path d="M192.853 137.291C192.816 137.291 192.742 137.291 192.705 137.258C192.519 137.191 192.408 136.99 192.519 136.822C192.853 136.12 192.705 134.58 192.63 134.078C192.593 133.911 192.742 133.71 192.927 133.71C193.112 133.677 193.335 133.811 193.335 133.978C193.335 134.078 193.669 136.053 193.187 137.09C193.15 137.191 193.001 137.291 192.853 137.291ZM194.559 134.848H194.447C194.262 134.815 194.151 134.614 194.188 134.446C194.522 133.309 194.188 132.405 194.188 132.372C194.114 132.204 194.225 132.004 194.41 131.937C194.596 131.87 194.818 131.97 194.892 132.137C194.892 132.171 195.3 133.275 194.892 134.58C194.855 134.748 194.707 134.848 194.559 134.848ZM196.19 133.041H196.079C195.893 133.007 195.745 132.807 195.819 132.639C196.042 131.87 195.819 130.832 195.819 130.832C195.782 130.665 195.893 130.464 196.116 130.431C196.301 130.397 196.524 130.498 196.561 130.698C196.561 130.732 196.82 131.903 196.561 132.807C196.487 132.941 196.338 133.041 196.19 133.041Z" fill="#242D35"/>
</g>
</g>
<g clip-path="url(#clip10_48_15182)">
<path d="M24.2425 73.6233L11.2658 102.708C8.08465 110.493 14.6057 118.716 23.8709 118.603L26.7003 118.568C38.0897 118.429 45.7901 108.124 41.5796 98.6568L28.2339 73.408L24.2425 73.6233Z" fill="#242D35"/>
</g>
<g clip-path="url(#clip11_48_15182)">
<path d="M27.8122 105.523H25.616C24.9215 105.522 24.2557 105.263 23.7646 104.802C23.2735 104.342 22.9973 103.718 22.9965 103.067V99.9211H24.7428V103.067C24.7428 103.518 25.1346 103.885 25.616 103.885H27.8122C28.2936 103.885 28.6854 103.518 28.6854 103.067V101.734C28.6857 101.456 28.621 101.181 28.4958 100.928C28.3706 100.676 28.1879 100.452 27.9606 100.273L24.489 97.5321C24.0668 97.1994 23.7275 96.7841 23.4949 96.3152C23.2623 95.8464 23.1421 95.3355 23.1426 94.8184V93.7596C23.1426 92.4054 24.3179 91.3035 25.7621 91.3035H27.8122C29.2564 91.3035 30.4316 92.4054 30.4316 93.7596V96.6354H28.6854V93.7596C28.6854 93.3082 28.2936 92.9409 27.8122 92.9409H25.7615C25.2801 92.9409 24.8883 93.3082 24.8883 93.7596V94.8184C24.8883 95.3828 25.1526 95.9155 25.6136 96.2795L29.0853 99.0205C29.5075 99.3531 29.847 99.7684 30.0796 100.237C30.3122 100.706 30.4324 101.217 30.4316 101.734V103.067C30.4316 104.421 29.2564 105.523 27.8122 105.523Z" fill="#FAFAFB"/>
<path d="M25.8406 88.8392H27.5869V92.1221H25.8406V88.8392ZM25.8406 104.841H27.5869V108.123H25.8406V104.841Z" fill="#FAFAFB"/>
</g>
<g clip-path="url(#clip12_48_15182)">
<mask id="mask8_48_15182" style="mask-type:luminance" maskUnits="userSpaceOnUse" x="22" y="75" width="9" height="8">
<path d="M22.3136 75.8185L23.3695 82.1177L30.1761 81.3178L29.1202 75.0187L22.3136 75.8185Z" fill="white"/>
</mask>
<g mask="url(#mask8_48_15182)">
<path d="M26.5327 81.7377C23.9318 81.8759 22.9018 80.4662 22.8036 78.5243C22.772 77.8939 22.9542 77.2526 23.2775 76.6707C23.6945 75.9187 24.7444 75.6647 25.5361 76.1334C25.8837 76.3395 26.3081 76.4381 26.7436 76.3857C27.5027 76.2953 28.0738 75.7734 28.2081 75.1259C29.1889 75.9084 29.7011 77.2672 29.5628 78.5423C29.3728 80.2912 28.3571 81.6409 26.5327 81.7377Z" fill="#242D35"/>
</g>
</g>
</g>
<defs>
<clipPath id="clip0_48_15182">
<rect width="250.935" height="226.379" fill="white" transform="translate(-0.00585938 0.802917)"/>
</clipPath>
<clipPath id="clip1_48_15182">
<rect width="204.205" height="188.189" fill="white" transform="matrix(0.30524 -0.953064 0.973889 0.229666 -1.63983 184.033)"/>
</clipPath>
<clipPath id="clip2_48_15182">
<rect width="8.91358" height="71.1573" fill="white" transform="matrix(0.878315 -0.478459 -0.559941 -0.828772 39.9455 92.3047)"/>
</clipPath>
<clipPath id="clip3_48_15182">
<rect width="37.0739" height="11.5956" fill="white" transform="matrix(0.84629 -0.533096 0.615675 0.788271 61.8262 63.1286)"/>
</clipPath>
<clipPath id="clip4_48_15182">
<rect width="17.3466" height="27.2196" fill="white" transform="matrix(0.957838 0.289624 -0.37178 0.929191 213.527 93.3845)"/>
</clipPath>
<clipPath id="clip5_48_15182">
<rect width="34.7575" height="23.4628" fill="white" transform="matrix(-0.889162 -0.458647 0.545725 -0.838607 182.143 105.81)"/>
</clipPath>
<clipPath id="clip6_48_15182">
<rect width="36.2462" height="22.2187" fill="white" transform="matrix(-1 0 0 -1 161.243 43.5634)"/>
</clipPath>
<clipPath id="clip7_48_15182">
<rect width="42.2116" height="13.1569" fill="white" transform="matrix(0.846287 -0.533099 0.615672 0.788273 179.411 37.9959)"/>
</clipPath>
<clipPath id="clip8_48_15182">
<rect width="20.2142" height="11.3189" fill="white" transform="matrix(-1 0 0 1 231.18 81.922)"/>
</clipPath>
<clipPath id="clip9_48_15182">
<rect width="197.263" height="135.199" fill="white" transform="translate(21.1378 59.2841)"/>
</clipPath>
<clipPath id="clip10_48_15182">
<rect width="32.2963" height="41.922" fill="white" transform="translate(10.4498 76.4722)"/>
</clipPath>
<clipPath id="clip11_48_15182">
<rect width="7.43512" height="19.2841" fill="white" transform="translate(22.9965 88.8392)"/>
</clipPath>
<clipPath id="clip12_48_15182">
<rect width="6.38611" height="6.86064" fill="white" transform="matrix(0.165372 0.986569 0.993419 -0.116742 22.3136 75.8185)"/>
</clipPath>
</defs>
</svg>
