<svg width="251" height="228" viewBox="0 0 251 228" fill="none" xmlns="http://www.w3.org/2000/svg">
<mask id="mask0_48_15800" style="mask-type:luminance" maskUnits="userSpaceOnUse" x="31" y="39" width="180" height="161">
<path d="M31.864 39.3788H210.539V199.521H31.864V39.3788Z" fill="white"/>
</mask>
<g mask="url(#mask0_48_15800)">
<path d="M146.16 58.337C135.316 43.0165 95.2318 33.7744 79.1711 43.3692C63.1105 52.9641 70.5286 74.715 60.343 80.357C50.1574 86.0081 26.7405 104.817 32.8726 127.227C41.5151 158.851 32.4507 173.467 45.5275 183.906C64.3556 198.939 85.3444 186.597 110.973 193.092C136.592 199.588 175.431 205.016 191.543 188.777C203.581 176.64 198.807 160.447 206.667 144.45C216.236 124.963 207.902 105.764 183.518 102.098C159.134 98.4331 156.346 72.7385 146.16 58.337Z" fill="#A0CCF8"/>
</g>
<mask id="mask1_48_15800" style="mask-type:luminance" maskUnits="userSpaceOnUse" x="31" y="59" width="162" height="163">
<path d="M31.6316 59.9206H192.648V221.111H31.6316V59.9206Z" fill="white"/>
</mask>
<g mask="url(#mask1_48_15800)">
<path d="M134.523 142.509C122.728 143.981 110.899 145.453 99.1044 146.925C101.79 141.098 104.475 135.302 107.16 129.475C105.155 128.831 103.863 127.635 103.999 126.684C104.203 125.458 106.786 124.936 108.316 124.936C110.627 124.906 112.293 126.01 112.905 126.439C115.012 125.182 118.411 123.618 122.728 123.342C123.612 123.28 124.428 123.28 125.21 123.342C125.754 123.066 126.501 122.667 127.419 122.238C129.595 121.226 129.934 121.256 130.104 121.318C131.396 121.747 131.022 125.09 130.988 125.396C131.94 126.04 133.334 127.114 134.421 128.801C136.699 132.327 136.019 135.946 135.781 136.989C136.495 137.388 137.956 138.4 138.67 140.209C138.874 140.73 139.622 142.601 138.67 143.368C137.854 143.95 136.087 143.705 134.523 142.509Z" fill="#A0CCF8"/>
<path d="M189.725 107.854C189.725 107.854 191.085 125.182 187.21 137.725C183.369 150.268 177.25 164.191 163.45 176.826C149.649 189.462 133.572 194.798 120.043 196.638C120.043 196.638 119.567 177.777 124.7 169.374C129.832 160.971 135.441 153.918 135.441 153.918C135.441 153.918 140.54 148.551 145.333 146.803C150.159 145.055 159.575 143.797 167.597 137.541C175.619 131.254 176.061 124.231 176.061 124.231C176.061 124.231 179.902 111.044 180.072 106.29M180.106 106.26C180.106 106.26 184.762 104.236 189.725 107.854ZM98.8324 135.026C98.8324 135.026 98.3566 128.279 94.2776 119.968C92.4421 116.257 88.669 112.24 89.2469 104.328C89.8247 96.4153 95.8412 87.5216 102.877 81.3574C109.914 75.1932 102.198 74.8252 97.0649 75.0092C97.0649 75.0092 88.5331 82.3081 82.5846 88.503C76.6361 94.6979 65.521 105.892 60.4902 121.716C55.4595 137.541 60.4902 152.813 61.544 154.93C62.5977 157.046 79.6273 157.72 88.2951 150.789C96.9629 143.858 98.2546 137.756 98.2546 137.756L98.8324 135.026Z" fill="white"/>
<path d="M93.2579 81.9401C93.2579 81.9401 98.5945 85.1602 91.9322 94.2379L97.6427 86.571C97.6427 86.5403 96.1471 82.8602 93.2579 81.9401ZM59.3006 128.31H58.9606C57.8389 135.241 58.3828 141.712 59.2666 146.557C62.1218 145.883 64.5012 142.294 64.8071 137.817C65.1131 132.757 62.6657 128.494 59.3006 128.31ZM182.247 114.141H182.213C182.043 114.111 181.907 113.957 181.941 113.804L183.233 105.769C183.267 105.616 183.437 105.493 183.607 105.524C183.777 105.554 183.913 105.708 183.879 105.861L182.587 113.896C182.553 114.019 182.417 114.141 182.247 114.141ZM186.802 115.031C186.598 115.031 186.462 114.877 186.462 114.693L186.972 106.444C186.972 106.26 187.142 106.137 187.346 106.168C187.55 106.168 187.686 106.321 187.652 106.505L187.142 114.755C187.142 114.908 186.972 115.031 186.802 115.031ZM158.691 172.288C154.51 176.673 152.437 181.58 153.083 184.8C156.618 182.531 160.119 179.893 163.45 176.826C167.173 173.441 170.53 169.744 173.477 165.786C169.976 164.375 163.688 167.043 158.691 172.288Z" fill="#242D35"/>
<path d="M164.64 153.734C165.991 153.734 167.087 152.484 167.087 150.943C167.087 149.401 165.991 148.152 164.64 148.152C163.288 148.152 162.192 149.401 162.192 150.943C162.192 152.484 163.288 153.734 164.64 153.734Z" fill="#242D35"/>
<path d="M179.086 114.448L177.862 119.6C177.862 119.6 179.256 114.141 185.034 114.571C185.034 114.601 184.389 113.681 179.086 114.448ZM127.147 129.138C119.635 125.458 110.457 125.212 101.45 132.91C92.4421 140.608 86.1877 148.397 66.3028 153.764C64.5012 154.255 62.9036 154.776 61.476 155.328C55.1876 157.72 52.0604 160.695 49.817 163.762C47.5396 166.89 46.1459 170.11 43.2227 172.993C42.4069 173.821 41.4551 174.588 40.2994 175.354C28.0965 183.451 25.2073 211.634 60.5242 219.516C74.9026 222.736 102.504 220.559 114.298 206.053C114.74 205.501 115.182 204.918 115.59 204.305C117.358 201.698 118.683 199.214 119.771 196.883C123.034 189.922 124.054 184.34 128.269 180.537C133.877 175.477 139.18 169.527 137.107 159.959C135.033 150.391 133.572 147.355 134.387 140.976C134.931 136.376 133.062 132.021 127.147 129.138Z" fill="#242D35"/>
<path d="M73.6109 221.08C68.8521 221.08 64.2973 220.651 60.4223 219.792C39.1097 215.039 33.5691 203.569 32.1415 197.159C30.272 188.664 33.6031 179.372 40.0615 175.078C41.1152 174.373 42.067 173.606 42.9167 172.748C44.7863 170.908 45.976 168.975 47.2676 166.921C47.9475 165.817 48.6613 164.682 49.4771 163.547C51.5165 160.787 54.5078 157.598 61.272 155.022C62.7337 154.47 64.3992 153.948 66.1328 153.458C82.9585 148.919 89.8927 142.724 97.2348 136.13C98.4925 134.996 99.8182 133.83 101.144 132.665C111.341 123.955 120.961 125.795 127.215 128.862C132.722 131.561 135.271 135.762 134.625 141.037C134.013 145.883 134.727 148.827 136.019 154.163C136.427 155.819 136.869 157.69 137.345 159.928C139.486 169.804 133.877 175.845 128.439 180.783C125.55 183.389 124.19 186.793 122.49 191.118C121.743 192.988 120.995 194.92 120.009 197.037C118.751 199.735 117.392 202.158 115.794 204.489C115.386 205.072 114.944 205.685 114.502 206.237C107.772 214.548 96.589 218.167 88.3971 219.731C83.6723 220.62 78.5396 221.08 73.6109 221.08ZM116.916 126.961C112.293 126.961 107.092 128.525 101.688 133.125C100.328 134.259 99.0364 135.456 97.7787 136.56C90.3686 143.184 83.4004 149.471 66.4047 154.04C64.6712 154.5 63.0736 155.022 61.612 155.574C54.9837 158.088 52.0944 161.186 50.1229 163.885C49.3071 164.989 48.6273 166.123 47.9135 167.227C46.6558 169.221 45.3981 171.306 43.4606 173.177C42.5428 174.066 41.5911 174.864 40.5034 175.569C34.249 179.74 31.0198 188.756 32.8213 197.037C34.215 203.293 39.6536 214.517 60.5922 219.179C75.7183 222.552 102.673 219.792 113.993 205.838C114.434 205.286 114.876 204.704 115.25 204.121C116.814 201.821 118.173 199.398 119.431 196.761C120.417 194.675 121.165 192.743 121.913 190.872C123.578 186.671 125.006 183.021 127.997 180.323C133.334 175.508 138.806 169.589 136.733 160.02C136.257 157.782 135.781 155.911 135.407 154.286C134.115 148.888 133.402 145.913 134.013 140.976C134.659 135.885 132.28 131.99 126.977 129.414C124.224 128.065 120.757 126.961 116.916 126.961Z" fill="#242D35"/>
<path d="M43.6645 172.993L43.1547 172.594C44.9222 170.816 46.0779 168.945 47.3356 166.951C48.0154 165.847 48.7292 164.713 49.545 163.578C51.3466 161.125 54.2018 157.966 60.3543 155.42L60.6262 155.972C54.6437 158.426 51.9584 161.37 50.0889 163.915C49.2731 165.019 48.5933 166.154 47.8795 167.258C46.6898 169.159 45.4661 171.153 43.6645 172.993Z" fill="#A0CCF8"/>
<path d="M134.523 140.209C134.489 140.209 134.455 140.209 134.387 140.178C134.217 140.117 134.115 139.933 134.183 139.78C134.387 139.32 138.942 128.555 128.643 124.538C119.873 121.103 111.477 127.574 111.375 127.635C111.239 127.758 111.035 127.727 110.899 127.605C110.763 127.482 110.797 127.298 110.933 127.175C111.035 127.114 119.771 120.398 128.915 123.986C139.792 128.249 134.863 139.902 134.795 140.025C134.761 140.148 134.659 140.209 134.523 140.209Z" fill="#242D35"/>
<path d="M131.022 125.458C130.988 125.458 130.988 125.458 131.022 125.458C130.818 125.458 130.682 125.304 130.682 125.12C130.818 123.526 130.58 121.716 130.07 121.563C129.391 121.379 127.079 122.575 125.652 123.526C125.516 123.618 125.278 123.587 125.176 123.464C125.074 123.342 125.108 123.127 125.244 123.035C125.855 122.636 129.017 120.643 130.24 121.011C131.532 121.379 131.396 124.292 131.328 125.182C131.328 125.335 131.192 125.458 131.022 125.458ZM137.447 143.858C136.019 143.858 134.285 142.938 134.047 142.785C133.877 142.693 133.843 142.509 133.945 142.356C134.047 142.202 134.251 142.172 134.421 142.264C135.135 142.662 137.243 143.613 138.126 143.092C138.466 142.908 138.704 142.478 138.738 141.988C138.874 140.516 137.583 138.584 135.305 136.836C135.169 136.713 135.135 136.529 135.271 136.406C135.407 136.284 135.611 136.253 135.747 136.376C139.282 139.074 139.486 141.221 139.418 142.049C139.35 142.754 139.01 143.337 138.466 143.644C138.16 143.797 137.82 143.858 137.447 143.858ZM107.024 129.291C106.99 129.291 106.956 129.291 106.922 129.261C106.65 129.169 104.271 128.402 103.931 127.083C103.795 126.562 103.965 126.071 104.441 125.58C106.175 123.863 110.899 124.722 112.803 125.856C112.973 125.948 113.007 126.132 112.905 126.286C112.803 126.439 112.599 126.47 112.429 126.378C110.593 125.274 106.31 124.66 104.951 126.01C104.611 126.347 104.509 126.654 104.577 126.96C104.815 127.789 106.514 128.494 107.126 128.709C107.296 128.77 107.398 128.954 107.33 129.107C107.296 129.199 107.16 129.291 107.024 129.291ZM97.6427 86.847C97.5068 86.847 97.3708 86.7549 97.3028 86.6323C95.2633 80.9587 90.3686 81.3267 90.1646 81.3267C89.9947 81.3267 89.8247 81.2347 89.7907 81.0507C89.7567 80.8974 89.8927 80.7441 90.0966 80.7134C90.1646 80.7134 95.7392 80.284 97.9486 86.4176C98.0166 86.5709 97.9146 86.7549 97.7447 86.8163C97.7107 86.847 97.6767 86.847 97.6427 86.847ZM120.077 196.944C119.907 196.944 119.771 196.852 119.737 196.699C119.703 196.546 119.839 196.362 120.009 196.331C147.168 192.099 166.543 179.004 179.324 156.218C192.75 132.235 189.453 108.13 189.419 107.885C189.385 107.732 189.521 107.578 189.725 107.548C189.929 107.517 190.065 107.64 190.099 107.824C190.133 108.069 193.498 132.389 179.97 156.524C173.375 168.301 164.776 177.685 154.408 184.432C144.755 190.719 133.232 194.92 120.145 196.944C120.111 196.914 120.111 196.944 120.077 196.944Z" fill="#242D35"/>
<path d="M135.475 154.194C135.407 154.194 135.339 154.163 135.271 154.132C135.135 154.04 135.101 153.826 135.203 153.703C135.237 153.642 139.996 148.091 146.76 146.067C147.304 145.913 147.95 145.729 148.63 145.515C156.516 143.245 171.166 139.074 175.109 126.868C179.392 113.589 179.732 106.29 179.766 106.229C179.766 106.045 179.936 105.922 180.106 105.922C180.31 105.922 180.446 106.076 180.446 106.229C180.446 106.29 180.072 113.651 175.789 127.022C171.778 139.534 156.312 143.95 148.868 146.097C148.188 146.281 147.542 146.465 146.998 146.649C140.438 148.612 135.815 154.01 135.781 154.071C135.679 154.163 135.577 154.194 135.475 154.194Z" fill="#242D35"/>
<path d="M190.167 117.239C190.099 117.239 189.997 117.208 189.929 117.147C184.389 112.577 179.188 114.724 178.95 114.816C178.78 114.877 178.576 114.816 178.508 114.663C178.44 114.509 178.508 114.325 178.678 114.264C178.746 114.233 184.525 111.841 190.405 116.687C190.541 116.809 190.541 116.993 190.439 117.116C190.337 117.208 190.235 117.239 190.167 117.239Z" fill="#242D35"/>
<path d="M189.725 107.854C189.725 107.854 191.221 100.034 191.697 97.1207C192.139 94.3913 192.682 90.0364 191.935 89.8524C191.901 89.8524 191.867 89.8524 191.765 89.8831C191.017 90.0978 190.609 90.7111 190.405 91.1098C190.031 86.663 189.657 83.3508 189.317 83.3508C188.875 83.3508 188.807 89.4844 188.162 89.4844C187.38 89.5151 186.598 81.5108 185.918 81.5721C185.204 81.6028 185.306 90.1284 184.66 90.1591C184.015 90.1898 183.233 81.4801 182.519 81.5108C181.805 81.5414 181.873 89.8831 180.989 89.9138C180.276 89.9444 179.63 84.6389 179.188 84.6695C178.848 84.7002 178.814 88.227 179.29 97.7954C179.63 100.586 179.97 103.408 180.31 106.198C180.31 106.198 184.355 105.37 186.564 106.198C188.365 106.781 189.725 107.854 189.725 107.854Z" fill="white"/>
<path d="M189.725 108.161C189.657 108.161 189.555 108.13 189.487 108.069C185.816 104.91 180.242 106.536 180.208 106.536C180.038 106.597 179.834 106.505 179.766 106.352C179.698 106.198 179.8 106.014 179.97 105.953C180.208 105.892 185.986 104.205 189.929 107.609C190.065 107.732 190.065 107.916 189.929 108.038C189.929 108.13 189.827 108.161 189.725 108.161Z" fill="#242D35"/>
<path d="M189.725 108.161H189.657C189.487 108.13 189.351 107.977 189.385 107.793C190.949 99.8808 192.342 91.0485 191.901 89.9751C191.187 90.4044 189.249 94.4526 187.822 98.1021C187.754 98.2554 187.55 98.3474 187.38 98.2861C187.21 98.2247 187.108 98.0407 187.176 97.8874C188.162 95.3726 190.575 89.5151 191.867 89.3311C192.071 89.3004 192.275 89.3924 192.41 89.5457C193.396 90.7418 190.643 105.033 190.065 107.885C190.031 108.038 189.895 108.161 189.725 108.161ZM180.106 106.566C179.936 106.566 179.766 106.444 179.766 106.29L178.984 97.7647C178.984 97.6114 179.12 97.458 179.29 97.4274C179.494 97.3967 179.63 97.5501 179.664 97.7034L180.446 106.229C180.48 106.382 180.31 106.536 180.106 106.566ZM162.6 140.7C162.6 140.7 162.498 143.582 163.994 143.705C165.489 143.797 167.529 143.122 167.835 144.472C168.141 145.821 168.583 152.783 172.118 151.893C174.803 151.219 172.662 145.515 171.914 140.393C171.166 135.271 172.016 133.155 172.016 133.155C172.016 133.155 169.772 137.725 162.6 140.7Z" fill="#242D35"/>
<path d="M85.3667 95.3105C86.5126 94.4346 86.7431 92.9808 85.8815 92.0632C85.0199 91.1457 83.3925 91.1119 82.2466 91.9878C81.1007 92.8636 80.8703 94.3175 81.7318 95.235C82.5934 96.1526 84.2208 96.1864 85.3667 95.3105Z" fill="#242D35"/>
<path d="M89.3149 107.486C89.3149 107.486 76.9421 112.853 75.6504 115.46C74.5967 117.576 76.4322 119.999 79.7973 119.14C83.1625 118.282 86.3576 115.951 87.9892 117.269C89.009 118.098 90.0287 119.232 93.5638 118.343C93.5638 118.343 91.4223 115 90.5046 112.301C89.5528 109.572 89.3149 107.486 89.3149 107.486Z" fill="#242D35"/>
<path d="M102.911 81.3268C102.911 81.3268 107.568 78.1986 109.438 75.8372C111.307 73.4758 113.721 68.7836 114.027 68.1703C114.468 67.3116 113.857 66.4835 114.332 65.3182C114.434 65.0728 114.672 64.5821 114.434 64.2754C114.264 64.0301 113.891 63.9688 113.585 63.9381C114.604 63.5394 115.148 62.8341 115.012 62.466C114.876 62.0674 113.857 61.7914 112.701 62.19C114.4 61.1473 114.672 60.6873 114.57 60.4726C114.298 59.7979 110.627 60.4113 107.432 61.4847C105.767 62.0674 104.611 62.7114 104.203 63.4167C103.625 64.4288 101.484 68.5383 101.484 68.5383L100.158 71.4211L96.8949 74.9479C96.8949 74.9479 99.7842 74.7638 101.008 76.6039C102.266 78.444 102.911 81.3268 102.911 81.3268Z" fill="#FAFAFB"/>
<path d="M102.911 81.6334C102.809 81.6334 102.707 81.6028 102.639 81.5108C102.537 81.3881 102.571 81.1734 102.707 81.0814C102.741 81.0507 107.806 77.6159 109.676 74.9785C111.749 72.0651 114.672 66.8515 114.264 65.6862C114.23 65.5942 114.196 65.5942 114.196 65.5942C113.823 65.5021 112.429 66.9129 111.579 67.7716C109.948 69.397 108.418 70.9304 107.33 70.6543C106.854 70.5317 106.548 70.133 106.412 69.4276C105.699 65.8395 106.888 65.1341 107.024 65.0421C107.194 64.9501 107.398 65.0115 107.5 65.1648C107.602 65.3181 107.534 65.5021 107.364 65.5942C107.364 65.5942 106.48 66.2075 107.092 69.3356C107.126 69.581 107.262 70.0103 107.5 70.0717C108.18 70.2557 109.846 68.5689 111.069 67.3729C112.735 65.6862 113.755 64.7355 114.468 65.0421C114.604 65.1035 114.808 65.2261 114.91 65.5328C115.454 67.2195 111.681 73.3224 110.22 75.3465C108.282 78.076 103.285 81.4494 103.081 81.6028C103.047 81.6028 102.979 81.6334 102.911 81.6334ZM96.8949 75.2545C96.8269 75.2545 96.759 75.2239 96.691 75.1932C96.555 75.1012 96.521 74.8865 96.657 74.7638L99.8522 71.237L103.047 64.4901C103.625 63.2634 104.679 62.2514 106.005 61.6073L107.16 61.0553C107.33 60.9633 107.534 61.0246 107.602 61.178C107.704 61.3313 107.636 61.5153 107.466 61.5767L106.311 62.1287C105.121 62.6807 104.203 63.6007 103.659 64.7048L100.464 71.4824C100.464 71.513 100.43 71.5437 100.43 71.5437L97.2348 75.1012C97.0989 75.2239 96.9969 75.2545 96.8949 75.2545Z" fill="#242D35"/>
<path d="M61.578 155.206C61.442 155.206 61.34 155.144 61.2721 155.022C61.2041 154.899 54.8477 142.693 60.1843 121.594C65.521 100.525 96.3851 74.9785 96.691 74.7332C96.759 74.7025 96.793 74.6718 96.8949 74.6411C96.9629 74.6411 98.7985 74.4571 100.532 75.6839C102.062 76.7879 103.013 78.6893 103.285 81.2961C103.285 81.3881 103.251 81.4801 103.183 81.5414C103.047 81.6641 88.3291 93.5325 89.7228 107.456C90.0967 111.167 91.5923 113.927 93.3259 117.147C95.6373 121.44 98.2886 126.286 99.2403 134.965C99.2743 135.118 99.1384 135.271 98.9344 135.302C98.7645 135.333 98.5945 135.21 98.5605 135.026C97.6088 126.439 94.9914 121.655 92.714 117.392C90.9465 114.141 89.4169 111.32 89.043 107.486C87.7173 93.9619 101.144 82.4001 102.605 81.1734C102.334 78.8426 101.484 77.1559 100.124 76.1439C98.8664 75.2238 97.4728 75.1932 97.0989 75.2238C95.2974 76.7266 66.0308 101.384 60.8982 121.716C55.6295 142.601 61.8839 154.623 61.9519 154.715C62.0199 154.868 61.9519 155.052 61.7819 155.114C61.68 155.206 61.646 155.206 61.578 155.206Z" fill="#242D35"/>
<path d="M115.046 205.593L114.502 205.255L115.318 204.151C116.78 202.005 118.072 199.766 119.227 197.313L119.839 197.558C118.649 200.042 117.358 202.281 115.896 204.458C115.624 204.826 115.318 205.225 115.046 205.593ZM45.772 205.286L45.704 204.673C51.5505 204.213 55.7995 202.342 58.6547 198.969C61.9859 195.074 63.5155 189.155 63.3455 180.936C62.4957 166.338 68.3423 161.002 78.7436 156.739C80.6131 155.972 82.5846 155.359 84.6581 154.684C91.7962 152.445 99.2064 150.115 103.183 141.712C108.656 130.119 118.479 129.353 118.547 129.353L118.581 129.966C118.479 129.966 109.098 130.702 103.795 141.957C99.7162 150.605 91.8302 153.09 84.862 155.267C82.7886 155.911 80.8171 156.524 78.9815 157.291C68.8521 161.462 63.1416 166.645 63.9914 180.905C64.3653 196.546 58.5528 204.274 45.772 205.286ZM73.8148 211.941L73.5769 211.358C94.1756 204.182 93.2239 194.675 92.1362 183.665C92.0342 182.807 91.9662 181.948 91.8982 181.059C91.6603 172.012 99.6822 162.627 105.325 159.622C106.48 159.008 107.67 158.456 108.826 157.935C113.517 155.819 117.97 153.795 118.649 147.293C119.499 138.952 127.079 134.167 127.147 134.137L127.521 134.627C127.453 134.658 120.145 139.289 119.329 147.355C118.615 154.194 114.027 156.279 109.132 158.487C107.976 159.008 106.786 159.53 105.665 160.143C100.056 163.149 92.3401 172.533 92.578 181.028C92.646 181.887 92.748 182.745 92.816 183.604C93.3599 189.124 93.9037 194.368 91.6603 199.153C89.0769 204.55 83.4344 208.598 73.8148 211.941Z" fill="#A0CCF8"/>
<path d="M98.4925 154.623L98.2886 154.04C98.3566 154.01 105.835 151.985 107.908 144.41C109.744 137.725 114.298 135.241 114.502 135.149L114.842 135.67C114.808 135.701 110.321 138.124 108.588 144.564C106.412 152.476 98.5945 154.592 98.4925 154.623Z" fill="#A0CCF8"/>
<path d="M93.5298 81.8788C93.4618 81.8788 93.3599 81.8481 93.2919 81.8175C93.1559 81.6948 93.1219 81.5108 93.2579 81.3881L99.0704 75.2852C99.2064 75.1625 99.4103 75.1319 99.5463 75.2545C99.6822 75.3772 99.7162 75.5612 99.5803 75.6839L93.7678 81.7868C93.7338 81.8481 93.6318 81.8788 93.5298 81.8788ZM96.2151 84.1482C96.1471 84.1482 96.0452 84.1175 95.9772 84.0562C95.8412 83.9335 95.8072 83.7495 95.9432 83.6269L101.654 77.8613C101.79 77.7386 101.994 77.708 102.13 77.8306C102.266 77.9533 102.3 78.1373 102.164 78.26L96.4871 84.0255C96.4191 84.1175 96.3171 84.1482 96.2151 84.1482Z" fill="#242D35"/>
<path d="M148.46 169.895C148.29 169.895 148.052 169.834 147.848 169.65C145.774 167.657 148.29 150.299 148.596 148.305L149.276 148.397C148.12 156.034 146.93 167.871 148.358 169.221C148.426 169.282 148.46 169.282 148.494 169.282C149.479 169.221 150.091 166.614 150.635 164.13C151.451 160.511 152.369 156.432 155.02 155.42L155.292 155.972C152.981 156.862 152.063 160.971 151.315 164.253C150.601 167.35 150.057 169.803 148.562 169.895H148.46ZM72.4212 139.473L71.7414 139.412C72.4212 133.799 77.7918 132.481 81.7348 131.53C84.3522 130.917 85.9158 130.457 85.8478 129.414C85.8138 129.015 85.6438 128.709 85.2699 128.433C82.8565 126.623 74.5627 127.574 74.4607 127.574L74.3587 126.961C74.6986 126.93 83.0265 125.979 85.6778 127.942C86.1877 128.341 86.4936 128.801 86.5276 129.353C86.6296 130.947 84.5221 131.469 81.9048 132.113C77.9618 133.094 73.0331 134.29 72.4212 139.473Z" fill="#A0CCF8"/>
<path d="M107.228 65.5328C107.126 65.5328 107.024 65.5022 106.956 65.4102C106.854 65.2875 106.888 65.0728 107.024 64.9808C107.364 64.7355 107.738 64.5208 108.078 64.3061C109.064 63.6928 109.812 63.3554 110.457 63.0181C111.103 62.7114 111.681 62.4354 112.361 62.006C112.905 61.6687 114.095 60.9327 114.299 60.5953C113.993 60.5033 112.701 60.442 107.432 61.638C107.262 61.6687 107.058 61.5767 107.024 61.4233C106.99 61.27 107.092 61.086 107.262 61.0553C113.993 59.5526 114.74 59.89 114.944 60.3806C115.182 60.9327 114.265 61.5767 112.735 62.5274C112.021 62.9874 111.409 63.2941 110.763 63.6008C110.084 63.9381 109.404 64.2754 108.418 64.8581C108.078 65.0728 107.704 65.2875 107.364 65.5022C107.364 65.5022 107.296 65.5328 107.228 65.5328Z" fill="#242D35"/>
<path d="M106.82 67.0969C106.684 67.0969 106.582 67.0356 106.514 66.9129C106.446 66.7596 106.514 66.5756 106.684 66.5142C112.905 63.8768 114.298 62.9261 114.604 62.5888C114.4 62.5581 113.959 62.5274 112.905 62.6808C112.735 62.7114 112.531 62.5888 112.531 62.4354C112.497 62.2821 112.633 62.0981 112.803 62.0981C114.468 61.8834 115.148 61.9447 115.318 62.3741C115.488 62.8034 115.726 63.3861 106.99 67.0969H106.82Z" fill="#242D35"/>
<path d="M107.024 68.7223C106.888 68.7223 106.752 68.6303 106.718 68.5076C106.65 68.3543 106.752 68.1702 106.922 68.1089C111.273 66.6982 113.007 65.5328 113.721 64.7968C114.095 64.3981 114.265 64.1834 114.332 64.0608C114.231 64.0608 114.095 64.0914 113.857 64.1528C113.687 64.2141 113.483 64.1221 113.415 63.9688C113.347 63.8154 113.449 63.6314 113.619 63.5701C114.095 63.4167 114.672 63.3247 114.944 63.6314C115.216 63.9994 114.876 64.4901 114.197 65.1955C113.109 66.3302 110.661 67.5262 107.092 68.6916C107.092 68.7223 107.058 68.7223 107.024 68.7223ZM179.324 98.1327C179.154 98.1327 178.984 98.01 178.984 97.8567C178.032 83.7802 178.508 83.7495 179.018 83.6882C179.494 83.6268 179.664 84.1175 180.276 86.5403C180.548 87.5523 180.955 89.147 181.227 89.6991C181.499 88.963 181.601 86.5709 181.703 84.9456C181.907 81.2961 181.975 80.8361 182.519 80.8054H182.553C183.063 80.8054 183.233 81.3881 183.845 85.2216C184.049 86.5096 184.321 88.1963 184.559 89.0244C184.694 88.227 184.83 86.755 184.898 85.5896C185.204 81.6334 185.34 80.9894 185.918 80.9894C186.462 80.9894 186.7 81.6028 187.346 85.4056C187.55 86.6016 187.822 88.1657 188.06 88.9324C188.196 88.227 188.298 86.8776 188.4 85.8963C188.604 83.1361 188.705 82.6761 189.181 82.6761C189.623 82.6761 189.963 82.6455 190.711 91.2018C190.711 91.3858 190.575 91.5085 190.405 91.5391C190.235 91.5391 190.065 91.4165 190.031 91.2631C189.691 87.2763 189.419 85.2522 189.249 84.2402C189.181 84.7615 189.147 85.4056 189.113 85.9576C188.875 89.1164 188.739 89.9137 188.162 89.9444C187.584 89.9444 187.38 89.3311 186.734 85.5282C186.53 84.3322 186.258 82.7681 186.02 82.0014C185.85 82.7988 185.748 84.3935 185.646 85.6509C185.34 89.5151 185.204 90.0977 184.661 90.0977C184.083 90.1284 183.879 89.4537 183.233 85.3136C183.063 84.2402 182.859 82.9215 182.655 82.0934C182.553 82.8295 182.519 83.9948 182.451 84.9762C182.213 89.239 182.077 90.4351 181.363 90.4658C180.718 90.4964 180.412 89.6684 179.664 86.6936C179.528 86.1416 179.358 85.4362 179.188 84.9456C179.086 86.2336 179.154 89.5457 179.698 97.826C179.664 97.9487 179.528 98.1021 179.324 98.1327Z" fill="#242D35"/>
</g>
<mask id="mask2_48_15800" style="mask-type:luminance" maskUnits="userSpaceOnUse" x="131" y="40" width="34" height="30">
<path d="M131.017 62.1071L157.267 40.5921L164.826 48.0923L138.576 69.6073L131.017 62.1071Z" fill="white"/>
</mask>
<g mask="url(#mask2_48_15800)">
<path d="M160.675 44.3634C159.836 51.2611 151.739 58.8745 141.55 66.6919L134.917 65.5874C143.814 59.2021 150.496 52.5904 151.81 45.4163L160.675 44.3634Z" fill="white"/>
<path d="M146.353 63.2428C144.842 64.4814 143.285 65.7053 141.746 66.8855C141.713 66.9112 141.673 66.9299 141.631 66.9401C141.589 66.9504 141.545 66.952 141.502 66.9448L134.854 65.836C134.8 65.8268 134.75 65.8039 134.71 65.7699C134.67 65.736 134.642 65.6924 134.629 65.6443C134.615 65.5932 134.618 65.5393 134.638 65.4895C134.658 65.4397 134.695 65.3964 134.742 65.3653C145.039 57.9801 150.381 51.6161 151.535 45.3676C151.547 45.312 151.579 45.2612 151.626 45.2229C151.672 45.1847 151.732 45.1609 151.794 45.1553L160.659 44.1024C160.703 44.0975 160.746 44.1013 160.788 44.1137C160.829 44.1261 160.866 44.1467 160.897 44.174C160.928 44.2014 160.952 44.2346 160.966 44.2715C160.981 44.3083 160.986 44.3477 160.981 44.3868C160.204 50.6255 153.694 57.2266 146.353 63.2428ZM141.472 66.4105C149.708 60.082 159.212 51.9374 160.34 44.6661L152.06 45.6504C150.828 51.8718 145.578 58.1708 135.585 65.4268L141.472 66.4105Z" fill="#242D35"/>
<path d="M139.226 62.402C139.226 62.402 140.734 63.7766 137.623 65.9294C136.782 65.8069 135.121 65.5201 135.121 65.5201L139.226 62.402Z" fill="#A0CCF8"/>
<path d="M138.409 65.6739C138.224 65.826 138.02 65.9792 137.797 66.1336C137.766 66.1555 137.73 66.1715 137.692 66.1805C137.653 66.1896 137.613 66.1915 137.574 66.1862C136.738 66.0676 135.085 65.796 135.074 65.7844C135.019 65.7757 134.969 65.7532 134.929 65.7196C134.889 65.6859 134.86 65.6426 134.847 65.5946C134.834 65.5467 134.836 65.4962 134.853 65.449C134.87 65.4019 134.902 65.3599 134.945 65.3282L139.041 62.2032C139.098 62.1563 139.173 62.1316 139.25 62.1345C139.327 62.1374 139.399 62.1677 139.45 62.2187C139.613 62.389 139.736 62.5874 139.812 62.8022C139.888 63.0171 139.915 63.2439 139.891 63.4693C139.814 64.186 139.326 64.9224 138.409 65.6739ZM137.547 65.6505C138.629 64.883 139.232 64.1252 139.295 63.4486C139.32 63.2247 139.278 62.9996 139.174 62.7965L135.782 65.3691C136.296 65.457 137.034 65.5756 137.547 65.6505Z" fill="#242D35"/>
<path d="M145.036 63.8467C145.036 63.8467 143.027 63.1875 139.346 66.2118C140.605 66.5149 141.601 66.6933 141.601 66.6933L145.036 63.8467Z" fill="#A0CCF8"/>
<path d="M141.795 66.8851C141.761 66.9131 141.721 66.9335 141.676 66.9447C141.632 66.9559 141.586 66.9576 141.541 66.9495C141.541 66.9495 140.523 66.7648 139.268 66.4619C139.22 66.4482 139.177 66.4232 139.142 66.3894C139.108 66.3557 139.085 66.3143 139.074 66.2696C139.064 66.2217 139.067 66.172 139.085 66.1256C139.103 66.0791 139.133 66.0375 139.174 66.005C142.924 62.9251 145.06 63.563 145.138 63.6011C145.184 63.6164 145.225 63.6422 145.257 63.6761C145.289 63.7099 145.311 63.7507 145.32 63.7945C145.33 63.8383 145.326 63.8836 145.311 63.9262C145.295 63.9688 145.268 64.0072 145.231 64.0377L141.795 66.8851ZM139.944 66.0804C140.671 66.2467 141.26 66.3615 141.518 66.4101L144.366 64.0475C143.609 64.078 142.098 64.4169 139.944 66.0804Z" fill="#242D35"/>
<path d="M153.372 53.3486C152.886 52.826 150.781 53.6988 148.669 55.298C146.557 56.8973 145.238 58.6174 145.723 59.14C146.208 59.6627 148.313 58.7899 150.426 57.1907C152.538 55.5914 153.857 53.8713 153.372 53.3486Z" fill="#A0CCF8"/>
<path d="M151.196 56.9571C151.014 57.1058 150.829 57.2579 150.629 57.4003C148.614 58.9216 146.217 60.0638 145.523 59.3118C144.828 58.5599 146.497 56.6293 148.506 55.1096C149.426 54.3947 150.444 53.7886 151.534 53.3064C152.58 52.874 153.28 52.8375 153.616 53.1983C153.948 53.5589 153.788 54.1748 153.13 55.0273C152.566 55.7326 151.917 56.3798 151.196 56.9571ZM148.316 55.9503C146.419 57.5057 145.759 58.7488 145.97 58.9733C146.18 59.1979 147.937 58.7664 150.261 56.9995C151.162 56.3399 151.967 55.5789 152.654 54.7354C153.237 53.9762 153.244 53.6192 153.169 53.5368C153.088 53.4559 152.701 53.3969 151.772 53.7819C150.73 54.2433 149.756 54.8237 148.877 55.5087C148.679 55.6567 148.493 55.8052 148.316 55.9503Z" fill="#242D35"/>
<path d="M155.179 45.0561C155.179 45.0561 154.022 48.2314 150.451 49.6725C151.114 48.212 151.797 46.6061 151.844 45.422L155.179 45.0561Z" fill="#A0CCF8"/>
<path d="M152.899 48.5327C152.205 49.1041 151.414 49.5719 150.558 49.9183C150.505 49.9368 150.448 49.9414 150.393 49.9315C150.339 49.9215 150.288 49.8974 150.249 49.8622C150.205 49.8266 150.174 49.7795 150.161 49.7274C150.148 49.6753 150.153 49.6207 150.176 49.5709C150.864 48.0765 151.512 46.5306 151.555 45.4169C151.558 45.3538 151.585 45.2931 151.633 45.2463C151.68 45.1995 151.745 45.1696 151.815 45.1622L155.149 44.7964C155.197 44.7915 155.245 44.7974 155.29 44.8136C155.334 44.8298 155.374 44.8558 155.404 44.8893C155.435 44.9229 155.456 44.9631 155.465 45.0061C155.474 45.0491 155.47 45.0936 155.455 45.1354C154.915 46.4327 154.039 47.5978 152.899 48.5327ZM151 49.1341C152.645 48.2573 153.95 46.942 154.733 45.3726L152.118 45.6546C152.02 46.6516 151.552 47.888 151 49.1341Z" fill="#242D35"/>
<path d="M157.041 44.8538C157.041 44.8538 156.189 48.9067 158.987 48.9664C159.613 47.8432 160.496 46.2921 160.577 44.4835L157.041 44.8538Z" fill="#A0CCF8"/>
<path d="M159.187 49.153C159.131 49.1983 159.059 49.2226 158.984 49.221C158.669 49.2252 158.358 49.1652 158.073 49.0454C157.789 48.9256 157.54 48.7491 157.343 48.5292C156.257 47.3154 156.743 44.9053 156.761 44.7989C156.774 44.744 156.805 44.694 156.851 44.6562C156.898 44.6183 156.956 44.5947 157.018 44.5888L160.556 44.2204C160.597 44.2161 160.639 44.2197 160.678 44.231C160.717 44.2424 160.753 44.2612 160.783 44.2863C160.814 44.3116 160.838 44.3427 160.854 44.3774C160.87 44.4121 160.878 44.4497 160.876 44.4874C160.784 46.3159 159.922 47.8807 159.285 49.02L159.253 49.0779C159.237 49.1066 159.214 49.1321 159.187 49.153ZM157.304 45.0872C157.216 45.6564 157.032 47.3466 157.791 48.1934C157.915 48.3341 158.071 48.4502 158.247 48.5347C158.423 48.6191 158.617 48.6702 158.817 48.6847C159.386 47.6647 160.118 46.311 160.269 44.7673C159.432 44.8612 157.869 45.0199 157.3 45.0833L157.304 45.0872Z" fill="#242D35"/>
</g>
<mask id="mask3_48_15800" style="mask-type:luminance" maskUnits="userSpaceOnUse" x="83" y="13" width="37" height="26">
<path d="M88.9814 13.7164L119.371 29.6416L113.458 38.6304L83.0684 22.7051L88.9814 13.7164Z" fill="white"/>
</mask>
<g mask="url(#mask3_48_15800)">
<path d="M116.291 33.8228C108.669 35.3112 98.2468 30.7113 87.02 24.3553L86.3445 18.2263C95.6754 23.9176 104.628 27.6077 112.679 26.4435L116.291 33.8228Z" fill="white"/>
<path d="M92.0617 27.4271C90.3121 26.5102 88.5654 25.5483 86.8707 24.5889C86.8339 24.5682 86.8029 24.5401 86.7801 24.5067C86.7573 24.4732 86.7432 24.4354 86.739 24.3958L86.0637 18.2541C86.0584 18.2041 86.069 18.1534 86.0942 18.1078C86.1194 18.0622 86.1582 18.0237 86.2061 17.9969C86.2567 17.9678 86.3153 17.9531 86.3743 17.9547C86.4332 17.9562 86.4898 17.974 86.5364 18.0056C97.3283 24.5914 105.639 27.1939 112.652 26.1887C112.715 26.1814 112.778 26.1928 112.832 26.2211C112.886 26.2495 112.928 26.2932 112.952 26.3459L116.563 33.7219C116.58 33.7579 116.588 33.7973 116.587 33.8371C116.585 33.8769 116.573 33.9161 116.553 33.9518C116.532 33.9875 116.503 34.0188 116.468 34.0433C116.432 34.0678 116.392 34.085 116.348 34.0935C109.451 35.4231 100.559 31.8802 92.0617 27.4271ZM87.3026 24.198C96.3856 29.3301 107.768 34.9818 115.87 33.6255L112.496 26.7368C105.49 27.665 97.2751 25.1219 86.7066 18.7585L87.3026 24.198Z" fill="#242D35"/>
<path d="M90.9029 20.8176C90.9029 20.8176 89.8545 22.5677 86.6816 20.5569C86.5773 19.7876 86.4194 18.2537 86.4194 18.2537L90.9029 20.8176Z" fill="#A0CCF8"/>
<path d="M87.1761 21.1569C86.9617 21.0448 86.7409 20.9169 86.5137 20.7733C86.4815 20.7531 86.4544 20.7271 86.434 20.6968C86.4137 20.6665 86.4005 20.6325 86.3952 20.597C86.2881 19.8337 86.1163 18.3138 86.1254 18.3C86.1196 18.2502 86.1296 18.1996 86.1543 18.154C86.179 18.1084 86.2174 18.0697 86.2649 18.0425C86.3124 18.0157 86.3669 18.0014 86.4222 18.0013C86.4774 18.0012 86.5311 18.0154 86.5769 18.0421L91.0611 20.5921C91.1272 20.6267 91.1747 20.6841 91.1931 20.7516C91.2114 20.8191 91.1992 20.8913 91.1591 20.9522C91.0227 21.1482 90.8451 21.3185 90.6367 21.453C90.4283 21.5875 90.1934 21.6834 89.946 21.7352C89.1585 21.8976 88.2355 21.7112 87.1761 21.1569ZM86.9599 20.4014C88.0825 21.0938 89.061 21.374 89.8015 21.2117C90.0476 21.1614 90.2764 21.053 90.4643 20.8976L86.7672 18.781C86.817 19.2549 86.8966 19.9328 86.9599 20.4014Z" fill="#242D35"/>
<path d="M91.0693 26.2883C91.0693 26.2883 91.2124 24.3288 86.9433 22.098C86.9715 23.2913 87.0595 24.2151 87.0595 24.2151L91.0693 26.2883Z" fill="#A0CCF8"/>
<path d="M86.9107 24.4451C86.8712 24.4246 86.838 24.3958 86.8136 24.361C86.7893 24.3262 86.7746 24.2864 86.7706 24.2449C86.7706 24.2449 86.6834 23.3019 86.6562 22.1148C86.6573 22.0683 86.6719 22.0226 86.6985 21.9822C86.7251 21.9418 86.7628 21.9082 86.8077 21.8846C86.8559 21.86 86.9101 21.8472 86.9647 21.8476C87.0193 21.8479 87.0724 21.8613 87.1186 21.8865C91.4619 24.1543 91.3775 26.2144 91.3585 26.2942C91.3551 26.3394 91.339 26.3834 91.3118 26.422C91.2845 26.4606 91.2469 26.4926 91.2027 26.5147C91.1585 26.5369 91.1091 26.5486 91.0592 26.5487C91.0092 26.5487 90.9605 26.5372 90.9176 26.5152L86.9107 24.4451ZM87.2533 22.579C87.2789 23.264 87.3208 23.812 87.341 24.0515L90.6651 25.7671C90.4205 25.1192 89.6353 23.9159 87.2533 22.579Z" fill="#242D35"/>
<path d="M104.671 30.3117C105.095 29.7216 103.568 28.1698 101.26 26.8458C98.9524 25.5217 96.7377 24.9267 96.3134 25.5168C95.8892 26.107 97.4161 27.6587 99.7239 28.9827C102.032 30.3068 104.246 30.9018 104.671 30.3117Z" fill="#A0CCF8"/>
<path d="M100.191 29.5773C99.9813 29.4673 99.7663 29.3547 99.558 29.2269C97.3647 27.9628 95.4703 26.2442 96.0808 25.3979C96.6914 24.5516 99.226 25.3836 101.416 26.6428C102.439 27.2139 103.373 27.9045 104.195 28.6976C104.951 29.4692 105.186 30.067 104.894 30.4754C104.601 30.8801 103.897 30.9391 102.799 30.6401C101.886 30.3761 101.011 30.0197 100.191 29.5773ZM100.463 26.7481C98.2657 25.5968 96.75 25.4229 96.5686 25.6783C96.3871 25.9337 97.3413 27.3239 99.8839 28.7773C100.843 29.3501 101.883 29.8056 102.979 30.1324C103.955 30.3958 104.339 30.2869 104.406 30.195C104.47 30.0981 104.425 29.7426 103.752 29.0583C102.966 28.2994 102.072 27.639 101.092 27.0936C100.878 26.9691 100.668 26.8555 100.463 26.7481Z" fill="#242D35"/>
<path d="M113.975 29.411C113.975 29.411 110.258 29.4248 107.719 26.7895C109.466 26.8969 111.373 26.9741 112.652 26.6361L113.975 29.411Z" fill="#A0CCF8"/>
<path d="M109.623 28.5467C108.819 28.1281 108.098 27.5928 107.489 26.9614C107.455 26.9221 107.434 26.8742 107.429 26.8235C107.425 26.7729 107.436 26.7217 107.463 26.6761C107.489 26.6267 107.53 26.5851 107.582 26.5571C107.634 26.5291 107.694 26.516 107.754 26.5196C109.542 26.6373 111.374 26.7038 112.575 26.385C112.644 26.3666 112.716 26.371 112.779 26.3973C112.843 26.4236 112.893 26.4701 112.92 26.5282L114.242 29.2995C114.261 29.3395 114.268 29.3833 114.263 29.4271C114.258 29.4709 114.242 29.5132 114.214 29.5502C114.187 29.5877 114.15 29.6186 114.107 29.6401C114.063 29.6616 114.015 29.673 113.966 29.6732C112.429 29.6207 110.94 29.2343 109.623 28.5467ZM108.45 27.0939C109.846 28.2383 111.616 28.948 113.511 29.1236L112.479 26.9485C111.387 27.1826 109.936 27.1734 108.45 27.0939Z" fill="#242D35"/>
<path d="M114.817 30.9528C114.817 30.9528 110.277 31.5085 110.991 33.9333C112.358 34.1148 114.25 34.3813 116.193 33.876L114.817 30.9528Z" fill="#A0CCF8"/>
<path d="M110.849 34.1646C110.785 34.1311 110.739 34.0764 110.72 34.0118C110.628 33.7421 110.605 33.4553 110.654 33.1729C110.702 32.8904 110.82 32.6196 110.999 32.3808C111.986 31.0616 114.68 30.7132 114.798 30.6954C114.86 30.6886 114.922 30.6999 114.975 30.7276C115.028 30.7552 115.069 30.7978 115.092 30.849L116.466 33.7742C116.482 33.8082 116.49 33.8452 116.489 33.8825C116.488 33.9199 116.478 33.9569 116.46 33.9909C116.441 34.0254 116.415 34.0561 116.383 34.0808C116.35 34.1056 116.312 34.1239 116.272 34.1344C114.305 34.6361 112.404 34.3926 111.017 34.2067L110.947 34.1974C110.912 34.1926 110.878 34.1814 110.849 34.1646ZM114.643 31.2532C114.014 31.3592 112.168 31.7377 111.48 32.6595C111.365 32.8111 111.285 32.9813 111.244 33.1598C111.203 33.3383 111.203 33.5214 111.243 33.6979C112.484 33.8628 114.125 34.0622 115.806 33.7016C115.474 33.0113 114.871 31.7181 114.646 31.2487L114.643 31.2532Z" fill="#242D35"/>
</g>
<mask id="mask4_48_15800" style="mask-type:luminance" maskUnits="userSpaceOnUse" x="167" y="72" width="31" height="24">
<path d="M197.255 87.0585L174.853 95.3613L167.828 80.993L190.229 72.6903L197.255 87.0585Z" fill="white"/>
</mask>
<g mask="url(#mask4_48_15800)">
<path d="M196.822 86.7799L191.968 76.8513C191.968 76.8513 175.743 83.5702 168.195 81.1393L173.168 91.3085C173.168 91.3085 181.507 93.5881 196.822 86.7799Z" fill="white"/>
<path d="M168.08 80.8993C168.141 80.877 168.209 80.8759 168.273 80.8962C175.629 83.2664 191.677 76.6818 191.849 76.6124C191.882 76.5987 191.918 76.5915 191.956 76.5914C191.993 76.5912 192.031 76.598 192.066 76.6114C192.1 76.6261 192.131 76.6468 192.158 76.6722C192.184 76.6976 192.205 76.7272 192.219 76.7594L197.073 86.6855C197.103 86.7469 197.107 86.8151 197.085 86.8762C197.063 86.9373 197.015 86.9867 196.953 87.0142C181.722 93.7817 173.45 91.6489 173.106 91.5549C173.064 91.5434 173.026 91.5235 172.993 91.4967C172.96 91.47 172.934 91.437 172.917 91.4004L167.945 81.2336C167.923 81.1876 167.914 81.1374 167.921 81.089C167.928 81.0406 167.95 80.9959 167.985 80.9603C168.011 80.9339 168.044 80.9131 168.08 80.8993ZM189.975 77.9093C185.45 79.5867 174.818 83.0922 168.69 81.5348L173.358 91.0831C174.469 91.328 182.594 92.7508 196.457 86.6466L191.835 77.1946C191.491 77.3334 190.835 77.5908 189.975 77.9093Z" fill="#242D35"/>
<path d="M180.808 82.0689C179.322 82.7851 179.094 84.9413 180.297 86.8849C181.501 88.8286 183.681 89.8236 185.166 89.1075C186.652 88.3913 186.881 86.2352 185.677 84.2915C184.474 82.3479 182.294 81.3528 180.808 82.0689Z" fill="#A0CCF8"/>
<path d="M180.896 81.7454C181.302 81.6099 181.74 81.5585 182.18 81.5946C182.621 81.6307 183.054 81.7536 183.451 81.9548C184.485 82.4504 185.346 83.2246 185.912 84.1684C187.188 86.2406 186.916 88.5663 185.308 89.3447C183.7 90.1232 181.346 89.0763 180.078 87.0012C179.484 86.0698 179.209 85.0079 179.291 83.9649C179.394 82.9699 179.889 82.2111 180.684 81.824L180.896 81.7454ZM184.839 88.9826L185.019 88.916C186.367 88.2621 186.551 86.2465 185.431 84.4254C184.93 83.5734 184.163 82.8714 183.238 82.418C182.403 82.0371 181.594 81.9974 180.955 82.3046C180.315 82.6117 179.92 83.2493 179.831 84.0736C179.759 85.0101 180.008 85.9628 180.544 86.7976C181.618 88.518 183.494 89.4672 184.843 88.967L184.839 88.9826Z" fill="#242D35"/>
<path d="M192.292 88.1442C192.292 88.1442 190.994 84.6819 195.107 83.1104C195.769 84.4629 196.659 86.3853 196.659 86.3853L192.292 88.1442Z" fill="#A0CCF8"/>
<path d="M194.989 82.8721C195.055 82.8479 195.131 82.8494 195.2 82.8763C195.234 82.8897 195.266 82.9092 195.293 82.9336C195.321 82.958 195.343 82.9869 195.358 83.0185C196.013 84.3559 196.902 86.2771 196.912 86.2963C196.943 86.3599 196.946 86.4307 196.921 86.4931C196.896 86.5556 196.844 86.6045 196.777 86.6293L192.426 88.3768C192.39 88.3909 192.352 88.3977 192.312 88.3967C192.273 88.3957 192.233 88.3869 192.197 88.371C192.16 88.355 192.127 88.3322 192.1 88.3041C192.073 88.2761 192.053 88.2434 192.04 88.2083C192.022 88.1723 190.706 84.5095 194.993 82.8679L194.989 82.8721ZM196.297 86.2437C196.049 85.738 195.471 84.4772 194.975 83.452C192.02 84.708 192.276 86.9769 192.466 87.7786L196.297 86.2437Z" fill="#242D35"/>
<path d="M187.64 78.4052C187.64 78.4052 190.516 81.4642 193.907 80.4405C193.17 78.9342 192.185 76.7219 192.185 76.7219C190.728 77.396 189.208 77.9589 187.64 78.4052Z" fill="#A0CCF8"/>
<path d="M187.524 78.1661L187.539 78.1605C189.092 77.7191 190.596 77.1621 192.038 76.4946C192.072 76.4783 192.11 76.4691 192.149 76.4677C192.188 76.4663 192.228 76.4728 192.266 76.4866C192.304 76.4992 192.339 76.5192 192.369 76.5451C192.399 76.571 192.424 76.6023 192.44 76.6368C192.451 76.6584 193.431 78.8627 194.158 80.3469C194.174 80.3798 194.182 80.4149 194.183 80.4501C194.184 80.4853 194.177 80.5198 194.163 80.5515C194.149 80.5829 194.128 80.6109 194.101 80.6339C194.075 80.6568 194.043 80.6742 194.008 80.6851C190.483 81.7472 187.457 78.6008 187.44 78.5649C187.409 78.532 187.386 78.493 187.375 78.4514C187.363 78.4098 187.363 78.3669 187.374 78.3264C187.384 78.2903 187.402 78.2572 187.428 78.2295C187.454 78.2017 187.487 78.1801 187.524 78.1661ZM193.526 80.2699C192.963 79.1209 192.316 77.6698 192.05 77.0783C190.79 77.6404 189.487 78.1231 188.148 78.5233C188.931 79.22 191.086 80.8424 193.526 80.2699Z" fill="#242D35"/>
<path d="M177.21 91.7136C177.21 91.7136 175.531 87.8816 171.387 88.071C172.081 89.3906 172.918 91.4029 172.918 91.4029C172.918 91.4029 175.983 91.796 177.21 91.7136Z" fill="#A0CCF8"/>
<path d="M171.268 87.8325C171.295 87.823 171.324 87.817 171.354 87.8148C175.671 87.6159 177.451 91.5929 177.467 91.6318C177.483 91.6687 177.49 91.7079 177.488 91.7466C177.485 91.7853 177.473 91.8224 177.453 91.855C177.432 91.8876 177.403 91.9149 177.368 91.9347C177.333 91.9545 177.294 91.9664 177.252 91.9693C176.01 92.054 173.022 91.6732 172.896 91.6556C172.844 91.649 172.795 91.6292 172.753 91.5985C172.712 91.5678 172.68 91.5274 172.661 91.482C172.651 91.463 171.819 89.4646 171.138 88.1693C171.119 88.1317 171.109 88.0908 171.109 88.0501C171.11 88.0094 171.121 87.97 171.142 87.9354C171.17 87.8886 171.214 87.8525 171.268 87.8325ZM176.794 91.4719C176.315 90.6123 174.786 88.3701 171.809 88.3188C172.333 89.3915 172.912 90.7133 173.107 91.1734C174.334 91.3313 175.564 91.431 176.794 91.4719Z" fill="#242D35"/>
<path d="M172.999 82.0157C172.999 82.0157 173.635 84.7174 170.263 85.6398C169.645 84.375 168.195 81.5102 168.195 81.5102C168.195 81.5102 170.833 82.3987 172.999 82.0157Z" fill="#A0CCF8"/>
<path d="M168.078 81.2718C168.139 81.2493 168.208 81.2487 168.273 81.2701C168.301 81.2794 170.866 82.1277 172.931 81.7655C172.966 81.7591 173.004 81.7596 173.04 81.7668C173.077 81.7741 173.112 81.7879 173.144 81.8077C173.175 81.8276 173.202 81.8529 173.224 81.8822C173.245 81.9115 173.26 81.9441 173.268 81.9781C173.281 82.0043 173.914 84.9108 170.35 85.8731C170.285 85.8909 170.214 85.8849 170.15 85.8564C170.086 85.8279 170.035 85.779 170.006 85.7192C169.395 84.4708 167.952 81.6194 167.939 81.5908C167.915 81.5451 167.907 81.495 167.913 81.4465C167.92 81.3981 167.942 81.3534 167.976 81.3179C168.006 81.2961 168.041 81.2805 168.078 81.2718ZM172.766 82.3107C171.228 82.5057 169.561 82.1496 168.701 81.922C169.102 82.7416 169.926 84.353 170.404 85.3241C172.707 84.5896 172.816 82.9507 172.766 82.3107Z" fill="#242D35"/>
</g>
<mask id="mask5_48_15800" style="mask-type:luminance" maskUnits="userSpaceOnUse" x="115" y="78" width="33" height="31">
<path d="M132.504 108.815L115.807 88.0041L130.81 78.3113L147.507 99.1219L132.504 108.815Z" fill="white"/>
</mask>
<g mask="url(#mask5_48_15800)">
<path d="M132.705 108.327L143.069 101.632C143.069 101.632 130.139 86.6944 130.748 78.7097L120.133 85.5676C120.133 85.5676 119.944 94.3142 132.705 108.327Z" fill="white"/>
<path d="M130.999 78.546C131.044 78.602 131.066 78.6699 131.061 78.7376C130.466 86.5216 143.186 101.311 143.321 101.47C143.348 101.501 143.367 101.536 143.379 101.573C143.39 101.61 143.394 101.649 143.388 101.687C143.381 101.724 143.366 101.758 143.344 101.789C143.321 101.82 143.292 101.847 143.258 101.867L132.893 108.563C132.829 108.605 132.749 108.622 132.67 108.611C132.59 108.6 132.517 108.562 132.465 108.505C119.774 94.5656 119.808 85.9109 119.816 85.5496C119.817 85.5063 119.829 85.4642 119.851 85.4265C119.873 85.3889 119.905 85.3566 119.943 85.3321L130.559 78.4736C130.607 78.4425 130.664 78.4248 130.724 78.4228C130.784 78.4207 130.844 78.4343 130.897 78.4621C130.937 78.4837 130.971 78.5122 130.999 78.546ZM141.206 99.8421C137.833 95.6377 130.428 85.6801 130.426 79.2727L120.455 85.7139C120.5 86.8683 121.268 95.2436 132.753 107.941L142.623 101.565C142.353 101.247 141.847 100.64 141.206 99.8421Z" fill="#242D35"/>
<path d="M133.493 91.5148C132.159 90.1482 129.455 90.3274 127.452 91.9151C125.449 93.5028 124.905 95.8977 126.239 97.2643C127.572 98.6309 130.277 98.4516 132.28 96.864C134.283 95.2763 134.826 92.8814 133.493 91.5148Z" fill="#A0CCF8"/>
<path d="M133.888 91.5336C134.178 91.92 134.375 92.3553 134.468 92.8101C134.56 93.2649 134.545 93.7286 134.423 94.1701C134.14 95.3157 133.466 96.3381 132.494 97.0933C130.371 98.7839 127.461 98.95 126.019 97.4627C124.576 95.9755 125.12 93.3836 127.249 91.7001C128.198 90.9195 129.403 90.4381 130.695 90.3236C131.936 90.239 133.011 90.5984 133.727 91.333L133.888 91.5336ZM126.314 96.9173L126.45 97.0872C127.661 98.3335 130.167 98.1378 132.033 96.6527C132.913 95.9819 133.529 95.0688 133.794 94.042C133.999 93.1212 133.797 92.291 133.226 91.6992C132.656 91.1074 131.759 90.8265 130.73 90.8926C129.57 90.9976 128.49 91.4323 127.641 92.1353C125.883 93.5542 125.309 95.6415 126.334 96.9186L126.314 96.9173Z" fill="#242D35"/>
<path d="M129.055 104.109C129.055 104.109 132.808 102.159 135.944 105.986C134.525 106.903 132.493 108.155 132.493 108.155L129.055 104.109Z" fill="#A0CCF8"/>
<path d="M136.197 105.824C136.246 105.886 136.267 105.962 136.256 106.036C136.25 106.073 136.237 106.109 136.216 106.141C136.195 106.172 136.167 106.2 136.134 106.222C134.729 107.129 132.697 108.381 132.676 108.394C132.61 108.437 132.526 108.454 132.443 108.44C132.361 108.427 132.286 108.384 132.236 108.322L128.814 104.286C128.786 104.253 128.766 104.215 128.755 104.175C128.744 104.136 128.743 104.095 128.751 104.055C128.759 104.015 128.776 103.978 128.802 103.946C128.827 103.913 128.86 103.887 128.898 103.867C128.936 103.843 132.927 101.835 136.203 105.827L136.197 105.824ZM132.552 107.768C133.083 107.425 134.419 106.608 135.497 105.919C133.09 103.19 130.447 103.873 129.543 104.214L132.552 107.768Z" fill="#242D35"/>
<path d="M139.588 97.2785C139.588 97.2785 136.793 100.741 139.057 103.953C140.64 102.93 142.996 101.526 142.996 101.526C141.742 100.19 140.603 98.7694 139.588 97.2785Z" fill="#A0CCF8"/>
<path d="M139.84 97.1153L139.851 97.1295C140.855 98.6059 141.984 100.012 143.226 101.335C143.256 101.366 143.279 101.403 143.292 101.442C143.306 101.481 143.311 101.522 143.305 101.562C143.302 101.603 143.289 101.643 143.267 101.678C143.245 101.713 143.215 101.743 143.178 101.766C143.155 101.781 140.807 103.18 139.245 104.188C139.211 104.211 139.171 104.226 139.129 104.233C139.087 104.241 139.044 104.24 139.001 104.232C138.959 104.224 138.919 104.208 138.884 104.186C138.848 104.163 138.817 104.135 138.794 104.102C136.441 100.761 139.297 97.1301 139.335 97.1057C139.365 97.0683 139.405 97.0385 139.452 97.0191C139.498 96.9997 139.549 96.9912 139.601 96.9944C139.648 96.9976 139.693 97.0102 139.735 97.0311C139.776 97.052 139.812 97.0808 139.84 97.1153ZM139.145 103.539C140.354 102.758 141.899 101.835 142.529 101.457C141.469 100.297 140.491 99.0786 139.601 97.8088C139.004 98.7269 137.713 101.197 139.145 103.539Z" fill="#242D35"/>
<path d="M121.135 90.1263C121.135 90.1263 125.281 87.6846 123.766 83.4943C122.374 84.4543 120.183 85.6905 120.183 85.6905C120.183 85.6905 120.654 88.8907 121.135 90.1263Z" fill="#A0CCF8"/>
<path d="M124.018 83.3322C124.038 83.3581 124.055 83.3863 124.066 83.4159C125.645 87.7751 121.357 90.3441 121.315 90.3678C121.275 90.3915 121.23 90.4063 121.182 90.4112C121.134 90.416 121.085 90.4108 121.039 90.3959C120.993 90.381 120.951 90.3568 120.916 90.3251C120.881 90.2935 120.854 90.2553 120.838 90.2134C120.35 88.9649 119.889 85.8493 119.871 85.7172C119.863 85.6636 119.872 85.6097 119.896 85.5615C119.921 85.5134 119.96 85.473 120.01 85.4449C120.03 85.4319 122.203 84.2035 123.568 83.2642C123.608 83.2369 123.655 83.2189 123.704 83.2118C123.754 83.2046 123.805 83.2085 123.854 83.2231C123.92 83.2428 123.977 83.2811 124.018 83.3322ZM121.301 89.6523C122.199 89.0008 124.453 87.0172 123.594 83.9755C122.451 84.7137 121.022 85.5544 120.523 85.8411C120.711 87.1203 120.97 88.3924 121.301 89.6523Z" fill="#242D35"/>
<path d="M131.816 83.6659C131.816 83.6659 128.743 84.8209 126.589 81.5837C127.929 80.7181 130.95 78.7096 130.95 78.7096C130.95 78.7096 130.686 81.5466 131.816 83.6659Z" fill="#A0CCF8"/>
<path d="M131.203 78.547C131.249 78.6044 131.271 78.6741 131.264 78.7433C131.262 78.7736 131.025 81.5287 132.098 83.5484C132.116 83.5834 132.127 83.6212 132.13 83.6596C132.132 83.6979 132.126 83.736 132.112 83.7717C132.098 83.8074 132.075 83.8398 132.047 83.8671C132.018 83.8943 131.983 83.9158 131.944 83.9302C131.916 83.9481 128.595 85.1377 126.336 81.7157C126.294 81.6533 126.279 81.5799 126.294 81.51C126.309 81.4401 126.352 81.3788 126.416 81.3383C127.738 80.4842 130.744 78.4857 130.774 78.4661C130.822 78.4341 130.88 78.4158 130.941 78.4135C131.001 78.4111 131.062 78.4248 131.116 78.4529C131.151 78.4789 131.181 78.5109 131.203 78.547ZM131.387 83.4846C130.679 81.9667 130.597 80.2125 130.608 79.2999C129.74 79.8606 128.044 80.9989 127.016 81.6662C128.613 83.856 130.629 83.6562 131.387 83.4846Z" fill="#242D35"/>
</g>
<mask id="mask6_48_15800" style="mask-type:luminance" maskUnits="userSpaceOnUse" x="82" y="25" width="31" height="26">
<path d="M82.5227 37.7576L102.61 25.0758L112.482 37.6463L92.3946 50.3281L82.5227 37.7576Z" fill="white"/>
</mask>
<g mask="url(#mask6_48_15800)">
<path d="M83.0042 37.9409L89.8247 46.626C89.8247 46.626 104.224 36.7542 112.091 37.5788L105.105 28.6831C105.105 28.6831 96.4979 28.1682 83.0042 37.9409Z" fill="white"/>
<path d="M112.255 37.7893C112.201 37.8234 112.135 37.8385 112.068 37.8318C104.4 37.0269 90.1438 46.7327 89.9907 46.8356C89.9611 46.8558 89.9271 46.8703 89.8907 46.8781C89.8543 46.8859 89.8164 46.8869 89.779 46.8811C89.7427 46.8737 89.708 46.86 89.6771 46.8406C89.6462 46.8212 89.6196 46.7966 89.5988 46.7681L82.779 38.0839C82.7367 38.0303 82.7181 37.9647 82.7269 37.9006C82.7358 37.8364 82.7714 37.7786 82.8266 37.7389C96.2469 28.0222 104.759 28.4079 105.114 28.4291C105.157 28.4318 105.199 28.4434 105.236 28.4628C105.274 28.4822 105.306 28.5089 105.331 28.541L112.316 37.4357C112.348 37.4759 112.367 37.5232 112.37 37.5718C112.373 37.6205 112.361 37.6686 112.335 37.7103C112.315 37.7415 112.288 37.7684 112.255 37.7893ZM91.5436 45.1876C95.6018 42.6255 105.226 37.0308 111.527 37.2945L104.967 28.9408C103.833 28.9294 95.614 29.2059 83.3876 37.9957L89.8817 46.2652C90.1878 46.0593 90.7732 45.674 91.5436 45.1876Z" fill="#242D35"/>
<path d="M99.5876 39.2728C100.89 38.2638 100.655 36.0963 99.062 34.4316C97.4691 32.7668 95.1218 32.2351 93.8191 33.2441C92.5165 34.253 92.7518 36.4205 94.3447 38.0853C95.9376 39.7501 98.2849 40.2817 99.5876 39.2728Z" fill="#A0CCF8"/>
<path d="M99.5698 39.5999C99.2006 39.8165 98.7819 39.9573 98.3419 40.0126C97.9018 40.068 97.4506 40.0367 97.0187 39.9209C95.8986 39.6475 94.8896 39.0649 94.1337 38.2552C92.4426 36.4837 92.216 34.1446 93.6295 33.0488C95.0431 31.9529 97.575 32.4955 99.2594 34.2712C100.039 35.0633 100.534 36.0491 100.675 37.0901C100.785 38.088 100.459 38.9351 99.7613 39.4791L99.5698 39.5999ZM94.1664 33.3077L94.0043 33.41C92.8198 34.33 93.0661 36.3468 94.5517 37.9037C95.2236 38.6368 96.125 39.1679 97.1291 39.4223C98.029 39.6242 98.8315 39.4964 99.394 39.063C99.9566 38.6296 100.21 37.9221 100.122 37.0945C99.9942 36.1603 99.5475 35.2764 98.845 34.5673C97.4262 33.0997 95.3842 32.5545 94.1656 33.3238L94.1664 33.3077Z" fill="#242D35"/>
<path d="M87.0622 35.4973C87.0622 35.4973 89.0595 38.6134 85.3766 40.9917C84.4454 39.8061 83.1713 38.1107 83.1713 38.1107L87.0622 35.4973Z" fill="#A0CCF8"/>
<path d="M85.5418 41.2012C85.4823 41.2384 85.4082 41.2524 85.3356 41.2402C85.2989 41.2342 85.2637 41.2218 85.2319 41.2035C85.2001 41.1852 85.1725 41.1616 85.1505 41.1338C84.2294 39.9612 82.9556 38.2662 82.9424 38.2494C82.8986 38.1936 82.8805 38.1251 82.892 38.0589C82.9034 37.9927 82.9436 37.9343 83.0036 37.8964L86.8833 35.2965C86.9148 35.2754 86.9512 35.2608 86.9899 35.2537C87.0287 35.2465 87.069 35.2471 87.108 35.2552C87.147 35.2633 87.1838 35.2789 87.2162 35.3007C87.2485 35.3226 87.2756 35.3503 87.2956 35.382C87.3204 35.4135 89.3783 38.7229 85.5389 41.2061L85.5418 41.2012ZM83.5538 38.1747C83.902 38.6181 84.7326 39.7316 85.4329 40.6318C88.0535 38.7983 87.3245 36.6337 86.9699 35.8893L83.5538 38.1747Z" fill="#242D35"/>
<path d="M93.7969 44.1098C93.7969 44.1098 90.3418 41.7093 87.2463 43.4056C88.2842 44.727 89.7128 46.6878 89.7128 46.6878C90.9936 45.7299 92.3592 44.8679 93.7969 44.1098Z" fill="#A0CCF8"/>
<path d="M93.9614 44.3198L93.9478 44.3284C92.5244 45.0785 91.1726 45.9318 89.905 46.8803C89.8751 46.9033 89.8399 46.92 89.8018 46.9295C89.7637 46.9389 89.7236 46.9407 89.6841 46.9349C89.644 46.9304 89.6052 46.9181 89.5703 46.899C89.5354 46.8798 89.5052 46.8542 89.4818 46.8238C89.467 46.8049 88.0436 44.8506 87.0207 43.5484C86.9982 43.5195 86.9823 43.487 86.974 43.4527C86.9657 43.4185 86.9652 43.3833 86.9726 43.3494C86.9796 43.3158 86.9941 43.2841 87.0152 43.2562C87.0363 43.2283 87.0636 43.2048 87.0954 43.1871C90.3146 41.4252 93.9347 43.8811 93.9594 43.9126C93.9968 43.9383 94.0268 43.9719 94.0469 44.0102C94.0669 44.0485 94.0764 44.0904 94.0744 44.1322C94.0723 44.1696 94.0611 44.2058 94.0415 44.2382C94.022 44.2706 93.9946 44.2985 93.9614 44.3198ZM87.6544 43.494C88.4463 44.5022 89.3854 45.7882 89.7698 46.3121C90.8818 45.504 92.0533 44.7645 93.2768 44.0984C92.3641 43.5781 89.9163 42.4338 87.6544 43.494Z" fill="#242D35"/>
<path d="M100.952 29.2203C100.952 29.2203 103.414 32.6387 107.447 31.597C106.484 30.444 105.236 28.6396 105.236 28.6396C105.236 28.6396 102.14 28.8861 100.952 29.2203Z" fill="#A0CCF8"/>
<path d="M107.612 31.8066C107.588 31.8215 107.561 31.8333 107.532 31.8416C103.334 32.9277 100.743 29.3886 100.719 29.3537C100.695 29.3209 100.68 29.2838 100.674 29.2453C100.668 29.2068 100.672 29.1679 100.686 29.1316C100.699 29.0953 100.722 29.0625 100.752 29.0359C100.782 29.0093 100.818 28.9894 100.859 28.9779C102.06 28.6385 105.076 28.3961 105.203 28.3873C105.255 28.3832 105.308 28.3925 105.355 28.4141C105.403 28.4357 105.443 28.4687 105.471 28.5094C105.484 28.5261 106.726 30.3172 107.668 31.449C107.696 31.4818 107.714 31.5199 107.722 31.56C107.73 31.6001 107.728 31.6411 107.715 31.6794C107.697 31.7312 107.661 31.7758 107.612 31.8066ZM101.414 29.372C102.067 30.1174 104.043 32.0043 106.978 31.4405C106.236 30.4951 105.387 29.3162 105.098 28.9046C103.86 29.0025 102.63 29.1585 101.414 29.372Z" fill="#242D35"/>
<path d="M107.278 37.8976C107.278 37.8976 106.083 35.3796 109.191 33.7816C110.065 34.8943 112.091 37.4049 112.091 37.4049C112.091 37.4049 109.319 37.0764 107.278 37.8976Z" fill="#A0CCF8"/>
<path d="M112.256 37.6145C112.201 37.649 112.133 37.6638 112.066 37.6561C112.036 37.6528 109.344 37.3489 107.399 38.1287C107.365 38.1423 107.329 38.1495 107.291 38.15C107.254 38.1504 107.217 38.144 107.181 38.1312C107.146 38.1181 107.114 38.0989 107.087 38.0746C107.06 38.0503 107.038 38.0214 107.023 37.9897C107.005 37.9667 105.77 35.2476 109.057 33.5714C109.117 33.5406 109.188 33.5317 109.256 33.5465C109.325 33.5613 109.386 33.5987 109.426 33.6513C110.289 34.7495 112.305 37.2478 112.325 37.273C112.357 37.3131 112.377 37.3604 112.38 37.4093C112.384 37.4582 112.372 37.5065 112.346 37.5484C112.321 37.5758 112.291 37.5983 112.256 37.6145ZM107.445 37.5603C108.909 37.053 110.618 37.0589 111.508 37.1052C110.942 36.3843 109.794 34.9742 109.12 34.1206C107.021 35.3142 107.261 36.9432 107.445 37.5603Z" fill="#242D35"/>
</g>
<mask id="mask7_48_15800" style="mask-type:luminance" maskUnits="userSpaceOnUse" x="175" y="36" width="34" height="29">
<path d="M175.646 50.7662L197.985 36.6619L208.954 50.6293L186.614 64.7335L175.646 50.7662Z" fill="white"/>
</mask>
<g mask="url(#mask7_48_15800)">
<path d="M176.181 50.9697L183.759 60.6199C183.759 60.6199 199.773 49.6414 208.52 50.5545L200.758 40.6703C200.758 40.6703 191.189 40.1018 176.181 50.9697Z" fill="white"/>
<path d="M208.702 50.7884C208.642 50.8263 208.568 50.8431 208.494 50.8357C199.969 49.9444 184.114 60.7384 183.944 60.8528C183.911 60.8753 183.873 60.8913 183.832 60.9C183.792 60.9087 183.75 60.9099 183.708 60.9035C183.668 60.8953 183.629 60.88 183.595 60.8585C183.561 60.837 183.531 60.8096 183.508 60.778L175.93 51.1288C175.883 51.0692 175.863 50.9963 175.873 50.925C175.882 50.8537 175.922 50.7894 175.983 50.7453C190.91 39.9396 200.373 40.3646 200.768 40.388C200.816 40.391 200.862 40.4038 200.904 40.4254C200.945 40.4469 200.981 40.4766 201.009 40.5123L208.771 50.3954C208.806 50.4401 208.827 50.4926 208.83 50.5466C208.834 50.6007 208.821 50.6541 208.792 50.7005C208.769 50.7353 208.739 50.7652 208.702 50.7884ZM185.671 59.0205C190.184 56.171 200.888 49.9485 207.894 50.2387L200.604 40.9568C199.343 40.9447 190.205 41.2555 176.607 51.0305L183.823 60.2189C184.163 59.9899 184.814 59.5614 185.671 59.0205Z" fill="#242D35"/>
<path d="M194.618 52.4428C196.067 51.3208 195.806 48.9118 194.036 47.0622C192.266 45.2125 189.656 44.6226 188.207 45.7446C186.759 46.8666 187.019 49.2756 188.789 51.1252C190.559 52.9749 193.169 53.5648 194.618 52.4428Z" fill="#A0CCF8"/>
<path d="M194.598 52.8064C194.187 53.0473 193.722 53.2039 193.232 53.2656C192.743 53.3273 192.241 53.2927 191.761 53.1642C190.516 52.8609 189.394 52.2138 188.554 51.3141C186.675 49.346 186.425 46.7462 187.997 45.5276C189.569 44.309 192.384 44.911 194.255 46.8839C195.122 47.7639 195.672 48.8594 195.827 50.0163C195.949 51.1254 195.587 52.067 194.811 52.672L194.598 52.8064ZM188.594 45.8151L188.413 45.929C187.096 46.952 187.369 49.1934 189.019 50.9232C189.766 51.7378 190.768 52.3277 191.884 52.61C192.885 52.8341 193.777 52.6916 194.403 52.2096C195.028 51.7277 195.31 50.9412 195.213 50.0215C195.071 48.9832 194.575 48.0009 193.795 47.2131C192.218 45.5825 189.948 44.9775 188.593 45.8331L188.594 45.8151Z" fill="#242D35"/>
<path d="M180.694 48.252C180.694 48.252 182.913 51.7145 178.817 54.3596C177.782 53.0422 176.367 51.1584 176.367 51.1584L180.694 48.252Z" fill="#A0CCF8"/>
<path d="M179 54.5923C178.934 54.6337 178.852 54.6493 178.771 54.6357C178.73 54.6291 178.691 54.6153 178.656 54.595C178.621 54.5747 178.59 54.5484 178.565 54.5176C177.542 53.2146 176.127 51.3312 176.112 51.3126C176.063 51.2506 176.043 51.1745 176.056 51.1009C176.069 51.0274 176.113 50.9624 176.18 50.9202L180.495 48.0288C180.53 48.0054 180.571 47.9891 180.614 47.9812C180.657 47.9733 180.702 47.9738 180.745 47.9828C180.788 47.9919 180.829 48.0091 180.865 48.0334C180.901 48.0577 180.931 48.0885 180.953 48.1237C180.981 48.1587 183.267 51.836 178.997 54.5978L179 54.5923ZM176.792 51.2293C177.179 51.722 178.102 52.9592 178.88 53.9594C181.794 51.9205 180.985 49.5149 180.591 48.6877L176.792 51.2293Z" fill="#242D35"/>
<path d="M188.177 57.8214C188.177 57.8214 184.337 55.1549 180.894 57.0416C182.047 58.5098 183.635 60.6886 183.635 60.6886C185.059 59.6234 186.578 58.6647 188.177 57.8214Z" fill="#A0CCF8"/>
<path d="M188.36 58.0548L188.345 58.0643C186.762 58.8987 185.258 59.8477 183.848 60.9025C183.815 60.928 183.776 60.9467 183.734 60.9572C183.691 60.9677 183.647 60.9697 183.603 60.9633C183.558 60.9583 183.515 60.9447 183.476 60.9234C183.437 60.9021 183.404 60.8736 183.378 60.8399C183.361 60.8189 181.78 58.6474 180.643 57.2004C180.618 57.1684 180.601 57.1322 180.592 57.0941C180.582 57.0561 180.582 57.017 180.59 56.9793C180.598 56.942 180.614 56.9067 180.637 56.8757C180.661 56.8447 180.691 56.8185 180.727 56.7988C184.307 54.8392 188.33 57.5672 188.358 57.6022C188.399 57.6308 188.433 57.6681 188.455 57.7107C188.477 57.7532 188.488 57.7998 188.485 57.8462C188.483 57.8878 188.471 57.928 188.449 57.9641C188.427 58.0001 188.397 58.0311 188.36 58.0548ZM181.348 57.1397C182.228 58.2599 183.271 59.6889 183.698 60.271C184.935 59.3723 186.238 58.5499 187.599 57.8091C186.584 57.2311 183.863 55.9603 181.348 57.1397Z" fill="#242D35"/>
<path d="M196.14 41.2693C196.14 41.2693 198.876 45.0676 203.36 43.9081C202.29 42.6269 200.903 40.6219 200.903 40.6219C200.903 40.6219 197.462 40.8972 196.14 41.2693Z" fill="#A0CCF8"/>
<path d="M203.544 44.1409C203.516 44.1575 203.486 44.1707 203.455 44.1798C198.786 45.3889 195.908 41.4564 195.881 41.4176C195.855 41.3812 195.838 41.34 195.831 41.2972C195.825 41.2544 195.829 41.2111 195.844 41.1708C195.859 41.1304 195.884 41.094 195.917 41.0644C195.951 41.0348 195.991 41.0127 196.036 40.9999C197.372 40.6221 200.725 40.3514 200.867 40.3416C200.925 40.337 200.983 40.3473 201.036 40.3713C201.089 40.3952 201.133 40.4319 201.165 40.4771C201.179 40.4957 202.559 42.4859 203.606 43.7434C203.637 43.7799 203.657 43.8222 203.666 43.8668C203.675 43.9114 203.672 43.9569 203.658 43.9996C203.638 44.0571 203.598 44.1067 203.544 44.1409ZM196.653 41.4376C197.379 42.2659 199.576 44.3622 202.839 43.7343C202.014 42.6838 201.071 41.3739 200.749 40.9165C199.373 41.026 198.006 41.1999 196.653 41.4376Z" fill="#242D35"/>
<path d="M203.169 50.9109C203.169 50.9109 201.842 48.1128 205.298 46.3353C206.269 47.5716 208.52 50.3612 208.52 50.3612C208.52 50.3612 205.439 49.9973 203.169 50.9109Z" fill="#A0CCF8"/>
<path d="M208.703 50.594C208.642 50.6324 208.567 50.6489 208.492 50.6403C208.459 50.6367 205.466 50.3002 203.303 51.1677C203.265 51.1828 203.225 51.1909 203.183 51.1913C203.142 51.1918 203.1 51.1847 203.061 51.1705C203.022 51.156 202.986 51.1347 202.956 51.1077C202.926 51.0807 202.902 51.0486 202.885 51.0134C202.865 50.9878 201.494 47.9662 205.148 46.1016C205.215 46.0674 205.294 46.0575 205.37 46.0739C205.447 46.0904 205.514 46.1319 205.56 46.1904C206.518 47.4105 208.759 50.1865 208.78 50.2144C208.816 50.259 208.838 50.3116 208.842 50.3659C208.846 50.4202 208.832 50.4739 208.803 50.5205C208.776 50.551 208.742 50.576 208.703 50.594ZM203.355 50.5359C204.983 49.9714 206.883 49.9773 207.872 50.0283C207.243 49.2273 205.968 47.6605 205.219 46.712C202.884 48.0396 203.15 49.8501 203.355 50.5359Z" fill="#242D35"/>
</g>
<mask id="mask8_48_15800" style="mask-type:luminance" maskUnits="userSpaceOnUse" x="50" y="46" width="28" height="34">
<path d="M59.978 46.1725L77.5023 74.5133L68.1102 79.1185L50.5859 50.7778L59.978 46.1725Z" fill="white"/>
</mask>
<g mask="url(#mask8_48_15800)">
<path d="M72.8517 76.484C65.7487 73.967 59.3169 64.9746 53.0811 54.1156L55.5473 48.6546C60.528 58.0217 66.1823 65.5279 73.4833 68.5277L72.8517 76.484Z" fill="white"/>
<path d="M55.7669 59.1725C54.7581 57.5409 53.7738 55.8729 52.8319 54.2328C52.8113 54.1973 52.7994 54.1584 52.7968 54.1192C52.7943 54.0799 52.8013 54.0413 52.8173 54.0061L55.2924 48.5307C55.3128 48.4863 55.3467 48.449 55.3904 48.4233C55.434 48.3976 55.4855 48.3845 55.5388 48.3856C55.5954 48.3863 55.6517 48.403 55.7002 48.4334C55.7488 48.4638 55.7873 48.5066 55.8107 48.5561C61.5733 59.3994 67.2328 65.6823 73.5936 68.3044C73.6499 68.3294 73.6971 68.3702 73.7283 68.4206C73.7595 68.471 73.7729 68.5284 73.7666 68.5841L73.1346 76.5425C73.1314 76.5813 73.1187 76.6183 73.0975 76.6507C73.0764 76.6832 73.0473 76.7103 73.0124 76.73C72.9776 76.7498 72.9378 76.7616 72.8961 76.7647C72.8544 76.7677 72.8119 76.762 72.7716 76.7478C66.3472 74.4546 60.6672 67.0974 55.7669 59.1725ZM53.3864 54.1188C58.44 62.9011 65.159 73.2542 72.6031 76.1197L73.1923 68.6864C66.8754 66.0034 61.2663 59.8173 55.5803 49.2705L53.3864 54.1188Z" fill="#242D35"/>
<path d="M58.1951 53.3677C58.1951 53.3677 56.4444 54.3194 54.7809 51.0576C55.0761 50.3593 55.7066 48.9919 55.7066 48.9919L58.1951 53.3677Z" fill="#A0CCF8"/>
<path d="M54.8929 51.8079C54.7683 51.6069 54.6462 51.3895 54.5266 51.1556C54.5095 51.1226 54.4997 51.0872 54.4977 51.0515C54.4957 51.0159 54.5015 50.9807 54.5148 50.9482C54.8058 50.2514 55.4201 48.8847 55.4347 48.8776C55.4546 48.8328 55.4884 48.795 55.532 48.7688C55.5755 48.7427 55.6272 48.7291 55.6807 48.7298C55.7341 48.7307 55.7872 48.7457 55.8338 48.7731C55.8803 48.8005 55.9185 48.8391 55.9438 48.8843L58.447 53.2608C58.4854 53.3228 58.4968 53.3947 58.4785 53.4607C58.4602 53.5268 58.4139 53.5816 58.3497 53.613C58.137 53.7105 57.9024 53.7659 57.6597 53.7758C57.417 53.7857 57.1712 53.75 56.937 53.6708C56.1926 53.4167 55.5083 52.8012 54.8929 51.8079ZM55.0881 51.0636C55.6878 52.2047 56.3719 52.9269 57.0767 53.1577C57.3091 53.2375 57.556 53.2597 57.7918 53.222L55.735 49.6018C55.5403 50.026 55.2688 50.6371 55.0881 51.0636Z" fill="#242D35"/>
<path d="M55.3562 58.0851C55.3562 58.0851 56.4459 56.515 53.9805 52.5383C53.4133 53.5515 53.0296 54.3685 53.0296 54.3685L55.3562 58.0851Z" fill="#A0CCF8"/>
<path d="M52.7838 54.4855C52.7609 54.4487 52.7474 54.408 52.7442 54.3667C52.7411 54.3254 52.7485 54.2847 52.7659 54.2479C52.7659 54.2479 53.1617 53.4122 53.7292 52.4011C53.7533 52.3626 53.7883 52.3314 53.8307 52.3107C53.8731 52.2899 53.9215 52.2803 53.9709 52.2828C54.0236 52.286 54.0754 52.302 54.1211 52.3293C54.1667 52.3567 54.2046 52.3943 54.2309 52.4383C56.7486 56.4952 55.6531 58.1846 55.5975 58.2422C55.5722 58.2786 55.5368 58.3076 55.4947 58.3265C55.4526 58.3455 55.4052 58.3537 55.3571 58.3504C55.3089 58.3472 55.2616 58.3325 55.2197 58.3078C55.1778 58.2832 55.1426 58.2494 55.1176 58.2096L52.7838 54.4855ZM53.9996 53.087C53.6804 53.6753 53.443 54.1566 53.3408 54.3679L55.2776 57.4559C55.3946 56.7902 55.334 55.3902 53.9996 53.087Z" fill="#242D35"/>
<path d="M64.7226 67.8728C65.3659 67.5879 64.8621 65.5362 63.5972 63.2902C62.3324 61.0443 60.7855 59.4546 60.1422 59.7396C59.4989 60.0246 60.0027 62.0762 61.2675 64.3222C62.5324 66.5681 64.0792 68.1578 64.7226 67.8728Z" fill="#A0CCF8"/>
<path d="M61.356 65.0507C61.2349 64.8549 61.111 64.6544 61.0001 64.4446C59.7921 62.3031 59.0589 59.9288 59.9882 59.5218C60.9174 59.1147 62.6247 61.063 63.8321 63.1987C64.405 64.1822 64.844 65.2216 65.1383 66.2913C65.3886 67.3107 65.2894 67.9274 64.8431 68.125C64.3977 68.319 63.7798 68.0206 63.0104 67.2284C62.3777 66.5565 61.8228 65.8261 61.356 65.0507ZM62.9831 62.8161C61.7163 60.7673 60.5353 59.8732 60.2572 59.9974C59.9791 60.1216 60.0887 61.7567 61.495 64.2292C62.0132 65.1822 62.6574 66.0773 63.4116 66.8919C64.0973 67.5945 64.4724 67.6931 64.5741 67.6493C64.6753 67.5997 64.8136 67.2798 64.5901 66.3749C64.3085 65.3513 63.8879 64.3569 63.3386 63.4164C63.2214 63.2065 63.1013 63.0072 62.9831 62.8161Z" fill="#242D35"/>
<path d="M73.2538 71.3741C73.2538 71.3741 70.1181 69.5408 69.2964 66.0604C70.7128 67.0177 72.2795 68.0292 73.5246 68.3791L73.2538 71.3741Z" fill="#A0CCF8"/>
<path d="M70.0172 68.4865C69.5482 67.7331 69.208 66.9228 69.0099 66.0867C69.0006 66.0363 69.007 65.9855 69.0284 65.9404C69.0498 65.8954 69.0852 65.8579 69.1305 65.8326C69.177 65.8037 69.2329 65.7893 69.2908 65.7915C69.3487 65.7938 69.4057 65.8124 69.4541 65.845C70.904 66.8335 72.4164 67.8006 73.5898 68.1289C73.6564 68.1471 73.7153 68.1868 73.7556 68.2405C73.7958 68.2943 73.8147 68.3584 73.8088 68.421L73.5376 71.4188C73.5333 71.4619 73.5175 71.5025 73.4914 71.5371C73.4654 71.5716 73.43 71.599 73.3885 71.6167C73.3467 71.6347 73.3 71.6424 73.2526 71.6389C73.2052 71.6355 73.1586 71.6211 73.1172 71.597C71.8472 70.7887 70.7841 69.722 70.0172 68.4865ZM69.7546 66.6764C70.3598 68.337 71.4975 69.8161 73.0084 70.9065L73.2262 68.5566C72.1876 68.2112 70.9679 67.482 69.7546 66.6764Z" fill="#242D35"/>
<path d="M72.9087 73.0668C72.9087 73.0668 68.7279 71.2524 68.1041 73.6947C69.1846 74.5403 70.6732 75.7243 72.5988 76.2712L72.9087 73.0668Z" fill="#A0CCF8"/>
<path d="M67.8631 73.821C67.8256 73.7602 67.814 73.69 67.8306 73.6249C67.8892 73.3468 68.016 73.0891 68.2015 72.8709C68.387 72.6526 68.6264 72.4797 68.9019 72.3648C70.4224 71.7303 72.9131 72.791 73.0236 72.8353C73.0801 72.8607 73.1275 72.9016 73.1588 72.9521C73.1902 73.0026 73.2039 73.06 73.1979 73.1158L72.8855 76.3218C72.882 76.3591 72.8697 76.3947 72.8497 76.4262C72.8296 76.4577 72.8022 76.4844 72.7692 76.5045C72.7359 76.5248 72.6977 76.5379 72.6572 76.5428C72.6167 76.5477 72.5749 76.5443 72.5348 76.5329C70.5899 75.9707 69.082 74.802 67.9862 73.9422L67.9305 73.8987C67.903 73.8769 67.88 73.8505 67.8631 73.821ZM72.6056 73.236C72.0118 73.0097 70.2339 72.4028 69.1727 72.847C68.9968 72.9192 68.8411 73.0249 68.7151 73.1577C68.5891 73.2905 68.4955 73.4476 68.4399 73.6194C69.4213 74.3876 70.7283 75.387 72.3556 75.9261C72.4224 75.1654 72.5646 73.7505 72.6105 73.2336L72.6056 73.236Z" fill="#242D35"/>
</g>
<mask id="mask9_48_15800" style="mask-type:luminance" maskUnits="userSpaceOnUse" x="188" y="19" width="26" height="27">
<path d="M213.462 24.9044L203.179 45.9451L188.331 40.4381L198.614 19.3974L213.462 24.9044Z" fill="white"/>
</mask>
<g mask="url(#mask9_48_15800)">
<path d="M212.958 25.0002L202.703 21.1963C202.703 21.1963 195.741 36.9329 188.699 40.2917L199.203 44.1878C199.203 44.1878 206.705 40.1869 212.958 25.0002Z" fill="white"/>
<path d="M188.447 40.2008C188.475 40.1442 188.523 40.0974 188.582 40.0687C195.449 36.795 202.38 21.2677 202.455 21.1021C202.469 21.0698 202.49 21.0401 202.517 21.0148C202.543 20.9895 202.574 20.969 202.609 20.9547C202.643 20.9421 202.68 20.9359 202.716 20.9363C202.752 20.9367 202.787 20.9437 202.819 20.957L213.077 24.7615C213.14 24.7849 213.19 24.8306 213.216 24.8892C213.242 24.9479 213.242 25.015 213.216 25.0768C206.994 40.1827 199.637 44.2444 199.327 44.4098C199.29 44.4294 199.249 44.4411 199.207 44.4441C199.165 44.4471 199.124 44.4413 199.086 44.4271L188.58 40.5304C188.532 40.5129 188.492 40.4827 188.464 40.4434C188.436 40.4041 188.421 40.3574 188.421 40.3088C188.422 40.272 188.431 40.2352 188.447 40.2008ZM202.007 23.2914C199.93 27.5422 194.752 37.2178 189.317 40.2429L199.184 43.9026C200.144 43.3277 206.91 38.8589 212.611 25.1495L202.843 21.5267C202.693 21.8579 202.402 22.4844 202.007 23.2914Z" fill="#242D35"/>
<path d="M198.358 32.432C197.782 33.9905 199.133 35.7404 201.375 36.3405C203.618 36.9406 205.903 36.1638 206.479 34.6053C207.055 33.0468 205.704 31.297 203.462 30.6968C201.22 30.0967 198.935 30.8736 198.358 32.432Z" fill="#A0CCF8"/>
<path d="M198.187 32.1551C198.388 31.7754 198.673 31.4348 199.02 31.1564C199.368 30.8779 199.772 30.6679 200.203 30.5406C201.309 30.1874 202.483 30.1578 203.561 30.4562C205.951 31.0893 207.388 32.9783 206.758 34.6609C206.128 36.3436 203.67 37.2067 201.283 36.5665C200.194 36.296 199.246 35.7095 198.573 34.8896C197.949 34.0906 197.778 33.1927 198.087 32.3594L198.187 32.1551ZM206.16 34.7205L206.245 34.5475C206.772 33.1361 205.489 31.5341 203.389 30.9774C202.424 30.7007 201.369 30.7179 200.373 31.0266C199.495 31.3255 198.875 31.8565 198.623 32.5238C198.371 33.1911 198.53 33.9312 199.044 34.5958C199.65 35.3305 200.502 35.8548 201.481 36.0948C203.477 36.61 205.516 36.0062 206.152 34.7062L206.16 34.7205Z" fill="#242D35"/>
<path d="M210.897 29.6094C210.897 29.6094 207.578 28.0057 209.444 24.0872C210.852 24.6087 212.816 25.3844 212.816 25.3844L210.897 29.6094Z" fill="#A0CCF8"/>
<path d="M209.194 23.9934C209.225 23.931 209.28 23.8808 209.348 23.8536C209.382 23.8396 209.418 23.832 209.455 23.831C209.491 23.83 209.527 23.8357 209.56 23.8478C210.953 24.3641 212.919 25.1401 212.939 25.1475C213.005 25.172 213.056 25.2206 213.081 25.2826C213.106 25.3446 213.103 25.4149 213.072 25.4781L211.153 29.689C211.138 29.7232 211.115 29.7544 211.086 29.7805C211.057 29.8066 211.022 29.827 210.985 29.8403C210.948 29.8536 210.909 29.8595 210.87 29.8578C210.831 29.856 210.794 29.8466 210.76 29.8301C210.723 29.8162 207.248 28.079 209.194 23.9877L209.194 23.9934ZM212.461 25.5273C211.934 25.3321 210.648 24.8191 209.584 24.4193C208.329 27.3291 210.08 28.7849 210.77 29.2318L212.461 25.5273Z" fill="#242D35"/>
<path d="M200.335 25.6074C200.335 25.6074 204.52 25.8517 206.251 22.8088C204.679 22.2265 202.441 21.3044 202.441 21.3044C201.859 22.7805 201.155 24.2193 200.335 25.6074Z" fill="#A0CCF8"/>
<path d="M200.084 25.5153L200.091 25.501C200.903 24.1265 201.6 22.7015 202.176 21.2396C202.189 21.2046 202.21 21.1721 202.238 21.1444C202.265 21.1166 202.298 21.0942 202.335 21.0787C202.371 21.0617 202.41 21.052 202.45 21.0502C202.49 21.0483 202.529 21.0544 202.564 21.068C202.587 21.0764 204.818 21.9959 206.368 22.5701C206.403 22.5829 206.433 22.6023 206.458 22.6271C206.483 22.6518 206.502 22.6814 206.513 22.714C206.525 22.7461 206.53 22.7805 206.526 22.8151C206.523 22.8497 206.512 22.8838 206.495 22.9154C204.693 26.0794 200.337 25.8736 200.3 25.8597C200.254 25.8572 200.211 25.8443 200.174 25.8222C200.137 25.8001 200.107 25.7695 200.087 25.733C200.069 25.7002 200.06 25.6637 200.059 25.626C200.059 25.5884 200.067 25.5505 200.084 25.5153ZM205.86 22.9449C204.66 22.5004 203.19 21.8965 202.589 21.6515C202.071 22.9136 201.467 24.1485 200.78 25.348C201.827 25.3161 204.501 25.0173 205.86 22.9449Z" fill="#242D35"/>
<path d="M202.887 41.3647C202.887 41.3647 198.952 39.7181 196.041 42.7377C197.482 43.2236 199.516 44.1196 199.516 44.1196C199.516 44.1196 202.044 42.278 202.887 41.3647Z" fill="#A0CCF8"/>
<path d="M195.791 42.6437C195.804 42.6178 195.821 42.5935 195.841 42.5714C198.867 39.4302 202.974 41.1111 203.013 41.1285C203.051 41.1442 203.084 41.1679 203.109 41.198C203.135 41.2281 203.152 41.2636 203.16 41.3019C203.167 41.3402 203.165 41.3802 203.154 41.4189C203.142 41.4575 203.122 41.4938 203.093 41.5249C202.242 42.4485 199.782 44.2424 199.677 44.3171C199.635 44.3479 199.585 44.3676 199.533 44.374C199.481 44.3803 199.429 44.373 199.383 44.3529C199.363 44.3454 197.344 43.4581 195.933 42.9806C195.892 42.9667 195.856 42.9437 195.828 42.9135C195.799 42.8832 195.78 42.8466 195.771 42.8068C195.758 42.753 195.765 42.6958 195.791 42.6437ZM202.407 41.478C201.45 41.1802 198.749 40.5971 196.53 42.625C197.67 43.0475 199.025 43.6152 199.493 43.8168C200.504 43.0816 201.476 42.3009 202.407 41.478Z" fill="#242D35"/>
<path d="M192.546 37.0682C192.546 37.0682 194.897 38.5955 193.09 41.5845C191.756 41.0903 188.699 40.0034 188.699 40.0034C188.699 40.0034 191.238 38.836 192.546 37.0682Z" fill="#A0CCF8"/>
<path d="M188.449 39.9098C188.477 39.8516 188.527 39.8037 188.589 39.775C188.616 39.7624 191.073 38.6162 192.32 36.9342C192.342 36.905 192.369 36.8797 192.401 36.8598C192.433 36.84 192.468 36.8259 192.505 36.8186C192.541 36.8114 192.579 36.811 192.615 36.8175C192.651 36.8241 192.685 36.8374 192.714 36.8567C192.742 36.867 195.233 38.5447 193.315 41.6925C193.28 41.7501 193.224 41.7949 193.158 41.818C193.092 41.8411 193.02 41.8409 192.957 41.8174C191.641 41.3298 188.6 40.2488 188.57 40.2376C188.521 40.2202 188.48 40.1898 188.451 40.15C188.422 40.1101 188.407 40.0626 188.407 40.0131C188.413 39.9769 188.427 39.9417 188.449 39.9098ZM192.581 37.4438C191.6 38.6418 190.139 39.5291 189.356 39.9544C190.22 40.2745 191.945 40.8794 192.971 41.2566C194.131 39.1407 193.065 37.8747 192.581 37.4438Z" fill="#242D35"/>
</g>
<mask id="mask10_48_15800" style="mask-type:luminance" maskUnits="userSpaceOnUse" x="125" y="6" width="35" height="29">
<path d="M149.098 34.4567L125.895 20.8796L136.522 6.36137L159.725 19.9385L149.098 34.4567Z" fill="white"/>
</mask>
<g mask="url(#mask10_48_15800)">
<path d="M149.113 33.9284L156.455 23.8974C156.455 23.8974 138.907 14.4906 136.605 6.756L129.085 17.0302C129.085 17.0302 132.057 25.3306 149.113 33.9284Z" fill="white"/>
<path d="M136.784 6.51455C136.846 6.55105 136.891 6.60705 136.911 6.67245C139.154 14.2115 156.447 23.553 156.632 23.6538C156.668 23.6732 156.699 23.6991 156.723 23.73C156.747 23.7609 156.764 23.7962 156.773 23.8337C156.779 23.8709 156.778 23.9092 156.768 23.9464C156.758 23.9835 156.74 24.0188 156.715 24.0501L149.374 34.0798C149.328 34.1419 149.259 34.1868 149.18 34.2052C149.102 34.2237 149.019 34.2143 148.95 34.179C131.99 25.627 128.906 17.4705 128.783 17.1277C128.769 17.0865 128.765 17.0426 128.772 16.9993C128.779 16.9559 128.797 16.9142 128.824 16.8774L136.344 6.60454C136.378 6.55796 136.426 6.52073 136.481 6.49725C136.537 6.47378 136.598 6.46505 136.658 6.47211C136.703 6.4782 136.746 6.49264 136.784 6.51455ZM154.056 22.8828C149.368 20.1398 138.815 13.4333 136.506 7.40443L129.444 17.0524C129.902 18.1226 133.64 25.7276 149.018 33.545L156.009 23.9942C155.64 23.7926 154.946 23.4035 154.056 22.8828Z" fill="#242D35"/>
<path d="M143.8 17.7938C142.082 16.9936 139.645 18.1209 138.356 20.3118C137.067 22.5028 137.415 24.9276 139.133 25.7279C140.852 26.5282 143.289 25.4008 144.578 23.2099C145.867 21.019 145.518 18.5941 143.8 17.7938Z" fill="#A0CCF8"/>
<path d="M144.188 17.6792C144.595 17.9352 144.933 18.2694 145.181 18.6592C145.428 19.049 145.579 19.4853 145.622 19.9388C145.767 21.1034 145.504 22.2929 144.87 23.3395C143.499 25.6642 140.855 26.8517 138.986 25.9822C137.117 25.1128 136.701 22.5114 138.081 20.1912C138.684 19.1292 139.632 18.254 140.792 17.6886C141.915 17.1696 143.041 17.1217 143.967 17.5499L144.188 17.6792ZM139.066 25.3706L139.253 25.4801C140.821 26.208 143.08 25.1363 144.285 23.0938C144.864 22.158 145.112 21.0909 144.993 20.0429C144.856 19.1146 144.373 18.415 143.633 18.0679C142.892 17.7207 141.959 17.7782 141.027 18.205C139.987 18.7145 139.138 19.502 138.599 20.4566C137.47 22.3992 137.679 24.5421 139.085 25.3647L139.066 25.3706Z" fill="#242D35"/>
<path d="M144.599 31.2096C144.599 31.2096 147.42 28.0345 151.736 30.5004C150.734 31.8692 149.277 33.7727 149.277 33.7727L144.599 31.2096Z" fill="#A0CCF8"/>
<path d="M151.913 30.2579C151.981 30.2983 152.028 30.362 152.044 30.4353C152.052 30.4722 152.052 30.5105 152.044 30.5479C152.036 30.5853 152.02 30.6212 151.996 30.6534C151.005 32.0072 149.548 33.9101 149.534 33.9295C149.487 33.9939 149.414 34.0395 149.332 34.0563C149.25 34.0732 149.165 34.0599 149.095 34.0193L144.438 31.4613C144.401 31.4405 144.368 31.4125 144.344 31.379C144.32 31.3456 144.303 31.3076 144.297 31.2675C144.29 31.2276 144.293 31.1865 144.305 31.147C144.317 31.1075 144.339 31.0706 144.367 31.0386C144.394 31.0022 147.416 27.6898 151.92 30.2586L151.913 30.2579ZM149.193 33.3867C149.568 32.8748 150.527 31.6306 151.291 30.5976C148.055 28.902 145.822 30.4893 145.097 31.1327L149.193 33.3867Z" fill="#242D35"/>
<path d="M151.825 21.2874C151.825 21.2874 150.448 25.5321 153.72 27.7305C154.837 26.2051 156.541 24.0462 156.541 24.0462C154.887 23.2434 153.31 22.3209 151.825 21.2874Z" fill="#A0CCF8"/>
<path d="M152.003 21.0456L152.018 21.0548C153.488 22.0781 155.049 22.9912 156.686 23.7856C156.726 23.804 156.76 23.83 156.787 23.8619C156.814 23.8937 156.833 23.9306 156.842 23.9701C156.853 24.0096 156.855 24.0512 156.847 24.0919C156.839 24.1327 156.822 24.1717 156.796 24.2063C156.78 24.2282 155.082 26.3794 153.981 27.8827C153.957 27.9158 153.925 27.9443 153.888 27.9664C153.852 27.9884 153.811 28.0035 153.768 28.0108C153.726 28.0182 153.683 28.0178 153.641 28.0097C153.6 28.0015 153.561 27.9857 153.527 27.9632C150.126 25.6761 151.5 21.2536 151.526 21.2173C151.541 21.1715 151.568 21.1293 151.605 21.0945C151.641 21.0597 151.686 21.0333 151.736 21.0177C151.781 21.0041 151.828 20.9996 151.874 21.0044C151.92 21.0092 151.964 21.0233 152.003 21.0456ZM153.654 27.3105C154.506 26.1467 155.623 24.7288 156.077 24.1494C154.669 23.4426 153.316 22.6513 152.028 21.7806C151.797 22.8543 151.473 25.6294 153.654 27.3105Z" fill="#242D35"/>
<path d="M131.484 20.6297C131.484 20.6297 134.462 16.8955 131.571 13.5465C130.621 14.9301 129.028 16.8534 129.028 16.8534C129.028 16.8534 130.6 19.6543 131.484 20.6297Z" fill="#A0CCF8"/>
<path d="M131.747 13.3038C131.775 13.3208 131.8 13.3412 131.822 13.3645C134.834 16.8503 131.768 20.7556 131.737 20.7927C131.709 20.8287 131.672 20.8586 131.629 20.8801C131.586 20.9016 131.539 20.9141 131.491 20.9166C131.443 20.9191 131.395 20.9115 131.352 20.8946C131.308 20.8776 131.27 20.8516 131.24 20.8186C130.344 19.8327 128.809 17.105 128.746 16.9887C128.72 16.9417 128.709 16.8885 128.714 16.8351C128.72 16.7817 128.742 16.7303 128.778 16.6868C128.792 16.6675 130.372 14.7564 131.306 13.4004C131.333 13.361 131.37 13.3277 131.413 13.3035C131.457 13.2792 131.506 13.2646 131.556 13.2609C131.624 13.2559 131.691 13.271 131.747 13.3038ZM131.47 20.1335C132.072 19.2104 133.46 16.5696 131.582 14.0514C130.784 15.1419 129.756 16.4291 129.395 16.8723C130.023 17.9929 130.716 19.0815 131.47 20.1335Z" fill="#242D35"/>
<path d="M138.945 11.0661C138.945 11.0661 136.493 13.2369 133.332 10.9873C134.272 9.70344 136.371 6.75596 136.371 6.75596C136.371 6.75596 137.137 9.49355 138.945 11.0661Z" fill="#A0CCF8"/>
<path d="M136.548 6.51377C136.611 6.55088 136.657 6.60811 136.676 6.67476C136.684 6.70387 137.446 9.35645 139.166 10.8568C139.196 10.8828 139.22 10.9142 139.236 10.949C139.252 10.9839 139.26 11.0216 139.259 11.0598C139.258 11.0982 139.249 11.1364 139.232 11.1721C139.215 11.2077 139.19 11.2401 139.159 11.2673C139.14 11.2939 136.469 13.5859 133.142 11.2012C133.081 11.1578 133.041 11.0946 133.03 11.0242C133.019 10.9537 133.037 10.8812 133.082 10.8208C134.01 9.55365 136.098 6.6202 136.119 6.59118C136.153 6.54415 136.2 6.50646 136.256 6.48267C136.312 6.45887 136.373 6.44997 136.433 6.45705C136.476 6.46867 136.515 6.48796 136.548 6.51377ZM138.481 11.0504C137.28 9.88795 136.577 8.28204 136.262 7.42755C135.653 8.25941 134.478 9.92447 133.759 10.9126C136.028 12.385 137.835 11.4807 138.481 11.0504Z" fill="#242D35"/>
</g>
<mask id="mask11_48_15800" style="mask-type:luminance" maskUnits="userSpaceOnUse" x="194" y="109" width="36" height="28">
<path d="M194.574 127.823L223.326 109.395L229.99 117.784L201.237 136.212L194.574 127.823Z" fill="white"/>
</mask>
<g mask="url(#mask11_48_15800)">
<path d="M226.286 113.565C224.635 120.366 215.65 127.028 204.55 133.649L198.057 131.764C207.696 126.424 215.149 120.597 217.307 113.576L226.286 113.565Z" fill="white"/>
<path d="M209.755 130.762C208.1 131.823 206.4 132.864 204.725 133.863C204.688 133.885 204.647 133.899 204.604 133.905C204.56 133.91 204.516 133.906 204.474 133.894L197.966 132.003C197.913 131.988 197.866 131.959 197.83 131.92C197.794 131.882 197.771 131.835 197.764 131.785C197.755 131.732 197.765 131.679 197.791 131.631C197.817 131.584 197.858 131.545 197.91 131.52C209.064 125.345 215.149 119.609 217.038 113.496C217.057 113.442 217.095 113.395 217.146 113.362C217.197 113.33 217.259 113.313 217.322 113.315L226.299 113.304C226.343 113.304 226.387 113.313 226.426 113.331C226.466 113.348 226.501 113.373 226.528 113.404C226.556 113.435 226.576 113.471 226.586 113.509C226.596 113.548 226.597 113.588 226.587 113.626C225.075 119.774 217.795 125.609 209.755 130.762ZM204.507 133.356C213.478 127.996 223.93 120.969 225.914 113.83L217.53 113.841C215.565 119.918 209.58 125.599 198.744 131.68L204.507 133.356Z" fill="#242D35"/>
<path d="M202.674 129.136C202.674 129.136 204.016 130.686 200.658 132.471C199.834 132.25 198.21 131.768 198.21 131.768L202.674 129.136Z" fill="#A0CCF8"/>
<path d="M201.473 132.307C201.27 132.437 201.049 132.566 200.808 132.694C200.774 132.712 200.737 132.724 200.697 132.729C200.658 132.733 200.618 132.73 200.58 132.721C199.76 132.504 198.143 132.039 198.133 132.026C198.08 132.011 198.033 131.983 197.997 131.944C197.96 131.906 197.937 131.859 197.929 131.81C197.922 131.76 197.93 131.71 197.953 131.665C197.975 131.62 198.012 131.582 198.058 131.555L202.511 128.917C202.574 128.877 202.652 128.861 202.728 128.873C202.805 128.885 202.873 128.924 202.918 128.981C203.061 129.17 203.16 129.382 203.21 129.606C203.261 129.829 203.261 130.058 203.211 130.281C203.049 130.987 202.476 131.665 201.473 132.307ZM200.615 132.183C201.785 131.544 202.476 130.858 202.618 130.19C202.669 129.969 202.654 129.74 202.574 129.525L198.888 131.695C199.391 131.843 200.113 132.048 200.615 132.183Z" fill="#242D35"/>
<path d="M208.276 131.208C208.276 131.208 206.348 130.313 202.315 132.904C203.537 133.355 204.511 133.651 204.511 133.651L208.276 131.208Z" fill="#A0CCF8"/>
<path d="M204.682 133.863C204.645 133.887 204.602 133.903 204.557 133.909C204.511 133.915 204.465 133.911 204.421 133.898C204.421 133.898 203.427 133.594 202.21 133.144C202.164 133.124 202.123 133.094 202.093 133.057C202.063 133.019 202.045 132.975 202.04 132.929C202.035 132.88 202.044 132.831 202.067 132.786C202.09 132.742 202.126 132.704 202.17 132.676C206.275 130.04 208.332 130.928 208.405 130.975C208.45 130.996 208.488 131.027 208.516 131.064C208.543 131.102 208.56 131.145 208.564 131.19C208.569 131.235 208.56 131.28 208.539 131.32C208.519 131.361 208.487 131.396 208.447 131.422L204.682 133.863ZM202.929 132.842C203.636 133.094 204.21 133.277 204.461 133.356L207.582 131.331C206.823 131.272 205.275 131.433 202.929 132.842Z" fill="#242D35"/>
<path d="M217.907 121.663C217.485 121.083 215.279 121.709 212.981 123.062C210.683 124.415 209.163 125.982 209.586 126.563C210.009 127.143 212.215 126.517 214.513 125.164C216.81 123.811 218.33 122.244 217.907 121.663Z" fill="#A0CCF8"/>
<path d="M215.309 125.019C215.11 125.147 214.907 125.277 214.691 125.396C212.499 126.68 209.971 127.541 209.366 126.707C208.761 125.873 210.655 124.139 212.841 122.855C213.844 122.249 214.932 121.762 216.077 121.408C217.173 121.099 217.877 121.145 218.17 121.545C218.458 121.945 218.226 122.542 217.468 123.317C216.822 123.956 216.097 124.527 215.309 125.019ZM212.552 123.674C210.473 125.006 209.669 126.172 209.852 126.421C210.036 126.67 211.842 126.446 214.37 124.952C215.348 124.398 216.242 123.732 217.027 122.969C217.699 122.279 217.748 121.922 217.683 121.831C217.611 121.741 217.232 121.636 216.259 121.912C215.164 122.251 214.123 122.717 213.164 123.298C212.949 123.423 212.746 123.55 212.552 123.674Z" fill="#242D35"/>
<path d="M220.789 113.623C220.789 113.623 219.26 116.657 215.529 117.677C216.363 116.297 217.232 114.774 217.42 113.597L220.789 113.623Z" fill="#A0CCF8"/>
<path d="M218.105 116.825C217.346 117.314 216.502 117.688 215.607 117.933C215.553 117.945 215.495 117.943 215.442 117.927C215.389 117.91 215.341 117.88 215.306 117.841C215.266 117.8 215.241 117.749 215.235 117.696C215.228 117.642 215.239 117.588 215.267 117.541C216.129 116.131 216.958 114.665 217.132 113.559C217.142 113.496 217.176 113.439 217.229 113.398C217.282 113.357 217.35 113.334 217.421 113.335L220.788 113.362C220.837 113.362 220.884 113.374 220.927 113.395C220.969 113.417 221.005 113.447 221.032 113.484C221.058 113.521 221.074 113.564 221.078 113.608C221.082 113.652 221.073 113.696 221.053 113.736C220.362 114.967 219.351 116.026 218.105 116.825ZM216.141 117.202C217.884 116.521 219.34 115.362 220.306 113.888L217.665 113.862C217.45 114.845 216.838 116.024 216.141 117.202Z" fill="#242D35"/>
<path d="M222.655 113.577C222.655 113.577 221.334 117.504 224.106 117.89C224.86 116.848 225.92 115.41 226.212 113.622L222.655 113.577Z" fill="#A0CCF8"/>
<path d="M224.283 118.099C224.223 118.138 224.148 118.153 224.074 118.143C223.76 118.11 223.458 118.014 223.19 117.862C222.921 117.71 222.694 117.505 222.524 117.264C221.588 115.931 222.353 113.593 222.384 113.49C222.403 113.437 222.44 113.391 222.49 113.358C222.541 113.326 222.601 113.31 222.663 113.311L226.222 113.358C226.264 113.359 226.304 113.367 226.342 113.383C226.38 113.399 226.413 113.422 226.441 113.45C226.468 113.479 226.489 113.513 226.5 113.549C226.512 113.586 226.515 113.624 226.509 113.661C226.203 115.467 225.163 116.921 224.396 117.978L224.358 118.032C224.338 118.059 224.313 118.082 224.283 118.099ZM222.889 113.84C222.736 114.395 222.354 116.053 223.009 116.983C223.116 117.137 223.256 117.27 223.422 117.375C223.587 117.479 223.774 117.553 223.971 117.591C224.656 116.644 225.542 115.384 225.873 113.868C225.03 113.864 223.459 113.839 222.886 113.835L222.889 113.84Z" fill="#242D35"/>
</g>
<mask id="mask12_48_15800" style="mask-type:luminance" maskUnits="userSpaceOnUse" x="185" y="147" width="35" height="29">
<path d="M219.67 161.747L196.814 175.875L185.841 161.626L208.697 147.497L219.67 161.747Z" fill="white"/>
</mask>
<g mask="url(#mask12_48_15800)">
<path d="M219.129 161.537L211.547 151.691C211.547 151.691 195.153 162.699 186.281 161.705L194.046 171.789C194.046 171.789 203.758 172.44 219.129 161.537Z" fill="white"/>
<path d="M186.099 161.466C186.16 161.428 186.236 161.412 186.311 161.42C194.958 162.39 211.189 151.568 211.363 151.454C211.397 151.431 211.435 151.415 211.476 151.406C211.518 151.398 211.56 151.397 211.602 151.404C211.643 151.413 211.682 151.428 211.717 151.45C211.752 151.473 211.781 151.501 211.804 151.533L219.385 161.377C219.432 161.438 219.452 161.512 219.441 161.584C219.43 161.657 219.389 161.721 219.326 161.766C204.039 172.607 194.434 172.102 194.032 172.075C193.984 172.072 193.938 172.058 193.895 172.036C193.853 172.014 193.817 171.984 193.789 171.947L186.025 161.864C185.99 161.819 185.969 161.765 185.966 161.71C185.963 161.655 185.977 161.601 186.007 161.555C186.031 161.52 186.062 161.489 186.099 161.466ZM209.587 153.298C204.969 156.153 194.025 162.379 186.914 162.03L194.206 171.5C195.486 171.522 204.77 171.278 218.697 161.472L211.478 152.097C211.13 152.327 210.463 152.756 209.587 153.298Z" fill="#242D35"/>
<path d="M200.421 159.899C198.937 161.025 199.173 163.469 200.948 165.358C202.723 167.246 205.365 167.865 206.85 166.739C208.334 165.613 208.099 163.169 206.323 161.28C204.548 159.391 201.906 158.773 200.421 159.899Z" fill="#A0CCF8"/>
<path d="M200.446 159.53C200.866 159.289 201.34 159.134 201.838 159.075C202.335 159.017 202.844 159.056 203.33 159.19C204.591 159.507 205.722 160.172 206.564 161.09C208.448 163.1 208.672 165.737 207.061 166.961C205.45 168.184 202.6 167.551 200.723 165.537C199.853 164.638 199.308 163.523 199.164 162.349C199.054 161.224 199.433 160.272 200.228 159.665L200.446 159.53ZM206.458 166.664L206.643 166.55C207.993 165.524 207.742 163.249 206.087 161.483C205.339 160.651 204.329 160.045 203.199 159.75C202.186 159.515 201.278 159.653 200.637 160.137C199.996 160.62 199.701 161.415 199.788 162.349C199.92 163.402 200.412 164.402 201.195 165.207C202.776 166.872 205.073 167.503 206.46 166.646L206.458 166.664Z" fill="#242D35"/>
<path d="M214.511 164.246C214.511 164.246 212.299 160.718 216.49 158.068C217.525 159.411 218.94 161.333 218.94 161.333L214.511 164.246Z" fill="#A0CCF8"/>
<path d="M216.306 157.83C216.374 157.789 216.458 157.774 216.54 157.788C216.581 157.795 216.621 157.809 216.656 157.83C216.692 157.851 216.723 157.878 216.747 157.909C217.771 159.239 219.186 161.159 219.2 161.178C219.249 161.242 219.269 161.319 219.255 161.393C219.241 161.468 219.195 161.533 219.126 161.576L214.71 164.474C214.674 164.497 214.633 164.513 214.589 164.521C214.545 164.529 214.5 164.528 214.456 164.518C214.412 164.509 214.371 164.491 214.334 164.466C214.298 164.441 214.268 164.41 214.246 164.374C214.218 164.338 211.941 160.592 216.31 157.825L216.306 157.83ZM218.509 161.258C218.122 160.755 217.2 159.493 216.421 158.473C213.437 160.518 214.231 162.963 214.621 163.805L218.509 161.258Z" fill="#242D35"/>
<path d="M207.034 154.489C207.034 154.489 210.901 157.223 214.419 155.337C213.266 153.839 211.68 151.617 211.68 151.617C210.221 152.686 208.667 153.647 207.034 154.489Z" fill="#A0CCF8"/>
<path d="M206.851 154.251L206.866 154.242C208.484 153.408 210.022 152.457 211.466 151.399C211.5 151.373 211.54 151.355 211.583 151.344C211.626 151.334 211.671 151.332 211.716 151.339C211.761 151.345 211.805 151.359 211.844 151.381C211.883 151.403 211.917 151.432 211.943 151.466C211.959 151.488 213.539 153.702 214.676 155.178C214.701 155.21 214.719 155.247 214.728 155.286C214.736 155.325 214.736 155.364 214.728 155.402C214.719 155.44 214.703 155.476 214.678 155.507C214.654 155.538 214.623 155.565 214.587 155.584C210.928 157.543 206.875 154.746 206.847 154.71C206.806 154.681 206.772 154.643 206.75 154.599C206.728 154.556 206.718 154.509 206.721 154.462C206.724 154.42 206.737 154.379 206.759 154.342C206.782 154.306 206.813 154.275 206.851 154.251ZM213.96 155.234C213.08 154.091 212.037 152.634 211.611 152.04C210.344 152.942 209.011 153.766 207.621 154.506C208.644 155.1 211.392 156.41 213.96 155.234Z" fill="#242D35"/>
<path d="M198.734 171.222C198.734 171.222 196.003 167.35 191.437 168.491C192.507 169.798 193.892 171.841 193.892 171.841C193.892 171.841 197.389 171.589 198.734 171.222Z" fill="#A0CCF8"/>
<path d="M191.253 168.253C191.281 168.236 191.311 168.223 191.344 168.214C196.097 167.025 198.973 171.034 198.999 171.074C199.026 171.111 199.043 171.153 199.049 171.196C199.055 171.239 199.05 171.283 199.034 171.324C199.018 171.365 198.992 171.402 198.958 171.431C198.924 171.461 198.882 171.483 198.837 171.496C197.476 171.868 194.069 172.117 193.925 172.125C193.866 172.13 193.807 172.119 193.754 172.094C193.7 172.069 193.656 172.032 193.624 171.986C193.61 171.967 192.233 169.938 191.185 168.655C191.154 168.618 191.134 168.575 191.125 168.53C191.117 168.485 191.12 168.439 191.135 168.395C191.156 168.337 191.197 168.287 191.253 168.253ZM198.216 171.047C197.489 170.202 195.284 168.06 191.964 168.671C192.789 169.742 193.73 171.077 194.051 171.543C195.45 171.443 196.84 171.278 198.216 171.047Z" fill="#242D35"/>
<path d="M191.721 161.397C191.721 161.397 193.035 164.244 189.505 166.019C188.534 164.758 186.281 161.912 186.281 161.912C186.281 161.912 189.406 162.305 191.721 161.397Z" fill="#A0CCF8"/>
<path d="M186.098 161.675C186.16 161.636 186.237 161.62 186.313 161.629C186.346 161.633 189.381 161.998 191.588 161.135C191.626 161.12 191.668 161.112 191.71 161.112C191.752 161.112 191.794 161.119 191.833 161.134C191.873 161.149 191.909 161.171 191.939 161.199C191.97 161.226 191.994 161.259 192.01 161.295C192.03 161.321 193.387 164.395 189.654 166.257C189.586 166.291 189.505 166.3 189.428 166.283C189.351 166.266 189.283 166.223 189.237 166.164C188.279 164.919 186.037 162.087 186.015 162.059C185.979 162.013 185.958 161.96 185.955 161.905C185.951 161.85 185.965 161.795 185.996 161.748C186.024 161.718 186.058 161.692 186.098 161.675ZM191.528 161.775C189.868 162.335 187.939 162.314 186.935 162.255C187.564 163.072 188.841 164.67 189.59 165.637C191.976 164.31 191.728 162.472 191.528 161.775Z" fill="#242D35"/>
</g>
<mask id="mask13_48_15800" style="mask-type:luminance" maskUnits="userSpaceOnUse" x="21" y="92" width="27" height="28">
<path d="M47.416 99.3483L35.6219 119.666L21.1913 113.141L32.9853 92.8232L47.416 99.3483Z" fill="white"/>
</mask>
<g mask="url(#mask13_48_15800)">
<path d="M46.9059 99.409L36.9386 94.9019C36.9386 94.9019 28.8453 110.148 21.5685 113.02L31.7774 117.636C31.7774 117.636 39.5608 114.155 46.9059 99.409Z" fill="white"/>
<path d="M21.3243 112.911C21.356 112.857 21.4072 112.813 21.4688 112.789C28.564 109.99 36.6105 94.9513 36.6974 94.791C36.7142 94.7597 36.7374 94.7315 36.7657 94.708C36.794 94.6845 36.8268 94.6662 36.8622 94.6543C36.8975 94.6441 36.9342 94.6404 36.9703 94.6432C37.0063 94.6461 37.0409 94.6556 37.0722 94.6711L47.0414 99.1789C47.1031 99.2067 47.1496 99.2558 47.1713 99.3161C47.193 99.3765 47.1882 99.4436 47.158 99.5036C39.8495 114.17 32.2069 117.722 31.8853 117.866C31.8467 117.883 31.8049 117.892 31.7631 117.892C31.7212 117.892 31.6805 117.884 31.6439 117.867L21.4329 113.25C21.3866 113.229 21.3486 113.196 21.3233 113.155C21.298 113.114 21.2865 113.066 21.2902 113.018C21.2937 112.981 21.3053 112.945 21.3243 112.911ZM36.0923 96.9478C33.7095 101.053 27.8371 110.365 22.1896 113.013L31.7794 117.35C32.7794 116.841 39.861 112.841 46.5482 99.5345L37.055 95.242C36.8811 95.5627 36.5446 96.1686 36.0923 96.9478Z" fill="#242D35"/>
<path d="M31.7853 105.824C31.0989 107.337 32.3198 109.174 34.5123 109.927C36.7047 110.68 39.0384 110.064 39.7248 108.55C40.4112 107.037 39.1903 105.2 36.9979 104.447C34.8055 103.694 32.4717 104.311 31.7853 105.824Z" fill="#A0CCF8"/>
<path d="M31.6371 105.537C31.8652 105.172 32.173 104.851 32.5398 104.598C32.9065 104.344 33.3236 104.162 33.763 104.065C34.8899 103.788 36.0622 103.839 37.1148 104.211C39.4509 105.006 40.7457 106.989 39.9965 108.624C39.2473 110.259 36.7352 110.951 34.4031 110.149C33.3372 109.804 32.4351 109.154 31.8238 108.29C31.2595 107.451 31.1541 106.543 31.5227 105.733L31.6371 105.537ZM39.3966 108.642L39.4935 108.476C40.1204 107.104 38.9586 105.418 36.9061 104.719C35.9642 104.377 34.912 104.322 33.8974 104.561C33.0003 104.799 32.3441 105.286 32.0447 105.934C31.7453 106.582 31.8501 107.332 32.3145 108.03C32.8651 108.804 33.6766 109.386 34.6345 109.692C36.5857 110.343 38.662 109.881 39.3898 108.628L39.3966 108.642Z" fill="#242D35"/>
<path d="M44.5362 103.837C44.5362 103.837 41.3399 102.007 43.4868 98.2212C44.8538 98.8389 46.7579 99.7488 46.7579 99.7488L44.5362 103.837Z" fill="#A0CCF8"/>
<path d="M43.2439 98.1105C43.2792 98.0503 43.338 98.004 43.4077 97.9814C43.4428 97.9699 43.4796 97.9647 43.516 97.9662C43.5525 97.9677 43.5878 97.9759 43.6199 97.9903C44.973 98.6017 46.8781 99.5119 46.8975 99.5207C46.9618 99.5497 47.0094 99.6018 47.0298 99.6654C47.0503 99.7291 47.0419 99.7991 47.0065 99.86L44.7869 103.934C44.7688 103.967 44.7435 103.997 44.7126 104.021C44.6817 104.045 44.646 104.063 44.6078 104.074C44.5697 104.084 44.5301 104.088 44.4915 104.083C44.4529 104.079 44.4162 104.067 44.384 104.048C44.3476 104.032 41.0063 102.058 43.2442 98.1048L43.2439 98.1105ZM46.3931 99.8672C45.8815 99.636 44.6355 99.0352 43.6027 98.5628C42.1391 101.383 43.7808 102.957 44.4368 103.451L46.3931 99.8672Z" fill="#242D35"/>
<path d="M34.3065 99.15C34.3065 99.15 38.4642 99.6817 40.4118 96.7616C38.8855 96.0719 36.7189 94.9972 36.7189 94.9972C36.0315 96.4314 35.2248 97.8201 34.3065 99.15Z" fill="#A0CCF8"/>
<path d="M34.0628 99.0407L34.0708 99.0269C34.9806 97.71 35.7795 96.3348 36.4599 94.9144C36.4757 94.8803 36.499 94.8493 36.5283 94.8235C36.5576 94.7977 36.5921 94.7776 36.6297 94.7646C36.6672 94.7501 36.7071 94.7431 36.7467 94.744C36.7864 94.7449 36.8249 94.7537 36.8596 94.7697C36.8815 94.7796 39.0414 95.8513 40.5463 96.5313C40.5795 96.5464 40.6086 96.5679 40.6317 96.5943C40.6549 96.6207 40.6715 96.6516 40.6807 96.6849C40.6901 96.7178 40.6919 96.7524 40.6862 96.7868C40.6805 96.8211 40.6673 96.8545 40.6474 96.8847C38.6201 99.9208 34.2892 99.4159 34.2527 99.3995C34.2079 99.3939 34.1659 99.3781 34.1304 99.3535C34.095 99.3289 34.0673 99.2962 34.0497 99.2584C34.0343 99.2244 34.0275 99.1873 34.0297 99.1496C34.032 99.112 34.0433 99.0748 34.0628 99.0407ZM40.0121 96.8706C38.8469 96.3442 37.4235 95.6401 36.8419 95.3541C36.2339 96.579 35.5416 97.7707 34.7694 98.9215C35.8157 98.9616 38.5054 98.8469 40.0121 96.8706Z" fill="#242D35"/>
<path d="M35.5971 115.06C35.5971 115.06 31.7952 113.148 28.6771 115.959C30.0776 116.542 32.0389 117.575 32.0389 117.575C32.0389 117.575 34.6911 115.912 35.5971 115.06Z" fill="#A0CCF8"/>
<path d="M28.4345 115.848C28.4496 115.823 28.4682 115.8 28.4898 115.779C31.7321 112.855 35.7018 114.813 35.7396 114.833C35.7762 114.851 35.8073 114.877 35.8305 114.909C35.8537 114.94 35.8684 114.977 35.8733 115.016C35.8783 115.054 35.8734 115.094 35.8591 115.132C35.8448 115.17 35.8215 115.204 35.7909 115.233C34.8762 116.096 32.2959 117.716 32.1858 117.783C32.1413 117.811 32.09 117.827 32.0376 117.83C31.9853 117.833 31.934 117.822 31.8897 117.799C31.8701 117.79 29.9233 116.767 28.5518 116.194C28.5119 116.177 28.4776 116.152 28.4516 116.119C28.4257 116.087 28.4088 116.049 28.4026 116.009C28.3942 115.955 28.4053 115.898 28.4345 115.848ZM35.1106 115.14C34.1787 114.777 31.5303 114.01 29.1723 115.88C30.2778 116.38 31.587 117.039 32.0382 117.272C33.0985 116.608 34.1239 115.896 35.1106 115.14Z" fill="#242D35"/>
<path d="M25.616 110.099C25.616 110.099 27.8497 111.784 25.8317 114.643C24.5373 114.058 21.5685 112.764 21.5685 112.764C21.5685 112.764 24.1845 111.773 25.616 110.099Z" fill="#A0CCF8"/>
<path d="M21.3254 112.653C21.3581 112.597 21.4112 112.553 21.4749 112.528C21.5027 112.518 24.0354 111.542 25.4009 109.95C25.4245 109.922 25.4537 109.899 25.4867 109.881C25.5197 109.863 25.5558 109.852 25.5929 109.847C25.6302 109.842 25.6677 109.844 25.7032 109.853C25.7387 109.862 25.7714 109.878 25.7994 109.899C25.8262 109.911 28.1879 111.757 26.0483 114.767C26.0094 114.822 25.9502 114.862 25.8825 114.881C25.8147 114.9 25.7434 114.894 25.6825 114.867C24.4054 114.29 21.452 113.002 21.4228 112.989C21.3754 112.968 21.3364 112.935 21.3104 112.893C21.2844 112.851 21.2726 112.803 21.2763 112.754C21.2854 112.718 21.3021 112.684 21.3254 112.653ZM25.6242 110.476C24.5595 111.604 23.0387 112.389 22.2264 112.76C23.0648 113.139 24.7407 113.861 25.7364 114.308C27.0462 112.276 26.0751 110.939 25.6242 110.476Z" fill="#242D35"/>
</g>
</svg>
