<svg width="24" height="24" viewBox="0 0 24 24" fill="none" xmlns="http://www.w3.org/2000/svg">
<g id="Bitcoin Coin">
<path id="Coin" d="M23.6433 14.8962C22.042 21.3208 15.5349 25.244 9.0985 23.6417C2.67383 22.0356 -1.24298 15.5285 0.358284 9.1038C1.95955 2.67916 8.46271 -1.24396 14.8835 0.358273C21.3238 1.94087 25.2406 8.46762 23.6433 14.8962Z" fill="#F7931A"/>
<path id="Symbol" d="M17.6824 10.4237C17.8981 8.82367 16.6824 7.98837 15.0157 7.42367L15.5334 5.25896L14.2157 4.94131L13.7138 7.05896C13.3647 6.97661 13.0118 6.89425 12.6628 6.82367L13.1647 4.70601L11.8314 4.38837L11.3138 6.55308C11.0314 6.48641 10.7451 6.43543 10.4628 6.36876L8.6471 5.93347L8.31377 7.33347C8.31377 7.33347 9.29808 7.54916 9.26279 7.56876C9.79612 7.7021 9.89808 8.05112 9.87847 8.31779L9.29416 10.7845C9.32945 10.8001 9.37651 10.8001 9.42749 10.8354C9.37651 10.8198 9.34514 10.8198 9.29416 10.8041L8.49416 14.2551C8.42749 14.4198 8.25886 14.6551 7.89416 14.5727C7.90985 14.5884 6.92553 14.3374 6.92553 14.3374L6.302 15.8551L8.01965 16.2551C8.3373 16.3374 8.65494 16.4041 8.95298 16.4903L8.43534 18.6747L9.75298 18.9923L10.2706 16.8276C10.6393 16.9256 10.9883 17.0119 11.3216 17.0943L10.804 19.2433L12.1216 19.5609L12.6393 17.3766C14.8902 17.7766 16.5726 17.5923 17.2549 15.5413C17.804 13.906 17.204 12.9727 16.004 12.357C16.8824 12.157 17.5177 11.5884 17.6824 10.4237ZM14.7177 14.6707C14.3334 16.306 11.5687 15.4551 10.6824 15.2394L11.3647 12.3374C12.2667 12.557 15.1177 12.957 14.7177 14.6707ZM15.0824 10.4237C14.7334 11.906 12.4314 11.1923 11.6824 11.008L12.3177 8.37661C13.051 8.557 15.451 8.87465 15.0824 10.4237Z" fill="white"/>
</g>
</svg>
