<svg width="24" height="24" viewBox="0 0 24 24" fill="none" xmlns="http://www.w3.org/2000/svg">
<g id="Ethereum Coin">
<path id="Coin" d="M23.6433 14.8962C22.042 21.3208 15.5349 25.244 9.0985 23.6417C2.67383 22.0356 -1.24298 15.5285 0.358284 9.1038C1.95955 2.67916 8.46271 -1.24396 14.8835 0.358273C21.3238 1.94087 25.2406 8.46762 23.6433 14.8962Z" fill="#ECEFF0"/>
<g id="Ethereum">
<path d="M12.1398 14.9109C12.0932 14.9268 12.0666 14.8862 12.0349 14.8676C10.4808 13.9504 8.92845 13.0325 7.3778 12.1141C7.36278 12.1065 7.34719 12.1001 7.33118 12.095V12.0744L7.35869 12.0586C7.39774 12.0483 7.43619 12.0359 7.47384 12.0213L11.136 10.355C11.4624 10.2063 11.7887 10.0599 12.1151 9.91258H12.1384C12.1384 9.9592 12.1384 10.0007 12.1384 10.045C12.1396 11.6671 12.1401 13.2891 12.1398 14.9109Z" fill="#343535"/>
<path d="M12.1421 9.91371H12.1188C12.1188 9.86709 12.1234 9.82047 12.1234 9.77151C12.1234 7.94952 12.1234 6.12738 12.1234 4.30508C12.1181 4.25828 12.1212 4.21089 12.1328 4.16521H12.1426C12.3342 4.44821 12.5011 4.74659 12.6773 5.03891C14.0735 7.35478 15.4689 9.67034 16.8635 11.9856C16.877 12.0084 16.8878 12.0322 16.8999 12.0574C16.8604 12.049 16.8216 12.0376 16.7838 12.0234C16.5278 11.9077 16.2709 11.7902 16.0173 11.6723C15.6201 11.4905 15.2227 11.309 14.8252 11.1277L12.91 10.2601C12.6549 10.1426 12.3985 10.0284 12.1421 9.91371Z" fill="#2F3030"/>
<path d="M12.1343 4.1628C12.1228 4.20848 12.1196 4.25587 12.125 4.30267C12.125 6.12466 12.125 7.9468 12.125 9.7691C12.125 9.81572 12.1222 9.86235 12.1203 9.9113C11.794 10.0586 11.4676 10.205 11.1413 10.3537L7.47909 12.02C7.44144 12.0346 7.40299 12.0471 7.36393 12.0573C7.46977 11.8373 7.6073 11.6377 7.73272 11.427C9.18577 9.01165 10.6399 6.59678 12.0951 4.18238C12.1048 4.16901 12.1152 4.15624 12.1264 4.14415L12.1343 4.1628Z" fill="#828384"/>
<path d="M12.1421 9.91371C12.3985 10.0284 12.655 10.1427 12.911 10.2583L14.8262 11.1259C15.224 11.3068 15.6214 11.4883 16.0183 11.6705C16.2738 11.7875 16.5312 11.9059 16.7848 12.0215C16.8226 12.0358 16.8614 12.0471 16.9009 12.0556C16.9475 12.1138 16.8785 12.1162 16.8575 12.1288C16.4598 12.3665 16.0603 12.601 15.6617 12.837C14.5176 13.5139 13.3738 14.1907 12.2303 14.8673C12.2014 14.8841 12.1701 14.8965 12.1398 14.9109C12.1398 13.2894 12.1398 11.668 12.1398 10.0462C12.1403 10.0019 12.1416 9.958 12.1421 9.91371Z" fill="#131313"/>
<path d="M12.1234 15.832L15.1189 14.0665C15.6908 13.7289 16.2624 13.3911 16.8336 13.0529L16.8854 13.0244C16.8905 13.0711 16.8583 13.0958 16.8388 13.1228C15.5333 14.9631 14.2279 16.8029 12.9225 18.6419C12.6754 18.9907 12.4288 19.3413 12.1793 19.6872C12.1663 19.7054 12.1462 19.7907 12.1061 19.7003C12.1379 19.6732 12.1239 19.6369 12.1239 19.607C12.1242 18.3482 12.124 17.0899 12.1234 15.832Z" fill="#2F3030"/>
<path d="M12.1231 15.8323C12.1231 17.0901 12.1231 18.3477 12.1231 19.6049C12.1231 19.6371 12.1371 19.6735 12.1054 19.6982C12.0388 19.6581 12.0098 19.5863 11.9656 19.5271C10.4519 17.3949 8.93901 15.2624 7.4269 13.1296C7.40778 13.1025 7.39007 13.0736 7.37048 13.0438C7.40965 13.021 7.43063 13.0522 7.45347 13.0657C8.98423 13.9696 10.5147 14.8742 12.0448 15.7796C12.0733 15.7973 12.0975 15.8155 12.1231 15.8323Z" fill="#828384"/>
<path d="M12.1347 4.16278L12.1235 4.14553C12.144 4.13247 12.1412 4.15159 12.1444 4.16138L12.1347 4.16278Z" fill="#393939"/>
</g>
</g>
</svg>
