<svg width="24" height="24" viewBox="0 0 24 24" fill="none" xmlns="http://www.w3.org/2000/svg">
<g id="forever 1">
<path id="Vector" d="M18.6 6.62014C17.16 6.62014 15.8 7.18014 14.83 8.15014L7.8 14.3901C7.16 15.0301 6.31 15.3801 5.4 15.3801C3.53 15.3801 2 13.8701 2 12.0001C2 10.1301 3.53 8.62014 5.4 8.62014C6.31 8.62014 7.16 8.97014 7.84 9.65014L8.97 10.6501L10.5 9.31014L9.22 8.20014C8.71923 7.69747 8.1238 7.29902 7.46813 7.02783C6.81246 6.75664 6.10954 6.61807 5.4 6.62014C2.42 6.62014 0 9.04014 0 12.0001C0 14.9601 2.42 17.3801 5.4 17.3801C6.84 17.3801 8.2 16.8201 9.17 15.8501L16.2 9.61014C16.84 8.97014 17.69 8.62014 18.6 8.62014C20.47 8.62014 22 10.1301 22 12.0001C22 13.8701 20.47 15.3801 18.6 15.3801C17.7 15.3801 16.84 15.0301 16.16 14.3501L15 13.3401L13.5 14.6801L14.78 15.8001C15.2821 16.3003 15.878 16.6964 16.5335 16.9658C17.189 17.2353 17.8913 17.3726 18.6 17.3701C21.58 17.3701 24 14.9601 24 12.0001C24 9.00014 21.58 6.62014 18.6 6.62014Z" fill="black"/>
</g>
</svg>
