<svg width="17" height="20" viewBox="0 0 17 20" fill="none" xmlns="http://www.w3.org/2000/svg">
<g id="PayPal">
<path id="Vector" d="M13.7561 1.94076C12.8818 0.944297 11.3015 0.51709 9.27978 0.51709H3.41219C3.21216 0.517097 3.01869 0.588461 2.86657 0.71835C2.71445 0.84824 2.61366 1.02813 2.58231 1.22569L0.139153 16.7208C0.0905906 17.0263 0.327189 17.303 0.636881 17.303H4.25933L5.16908 11.5326L5.14085 11.7133C5.20566 11.3054 5.5545 11.0046 5.96759 11.0046H7.68897C11.0706 11.0046 13.7185 9.63105 14.492 5.65769C14.5149 5.54018 14.5348 5.4258 14.552 5.31406C14.4544 5.26236 14.4544 5.26236 14.552 5.31406C14.7823 3.84547 14.5504 2.8458 13.7561 1.94076Z" fill="#27346A"/>
<path id="Vector_2" d="M6.55517 4.78502C6.6542 4.73786 6.76251 4.71343 6.8722 4.71349H11.4723C12.017 4.71349 12.5251 4.74894 12.9894 4.82367C13.1193 4.84438 13.2485 4.86912 13.3769 4.89783C13.5589 4.93798 13.7388 4.98713 13.9159 5.04508C14.1441 5.12131 14.3567 5.21009 14.5521 5.31406C14.7823 3.8449 14.5504 2.8458 13.7561 1.94076C12.8813 0.944297 11.3015 0.51709 9.27978 0.51709H3.41169C2.99854 0.51709 2.64706 0.817873 2.58231 1.22569L0.139153 16.7202C0.0905909 17.0263 0.327189 17.3026 0.63638 17.3026H4.25933L6.14678 5.33338C6.16534 5.21573 6.2122 5.10436 6.28334 5.00883C6.35448 4.91331 6.44777 4.8365 6.55517 4.78502Z" fill="#27346A"/>
<path id="Vector_3" d="M14.4918 5.65784C13.7183 9.63064 11.0705 11.0047 7.68878 11.0047H5.9669C5.55381 11.0047 5.2049 11.3056 5.14072 11.7135L4.00892 18.8883C3.96663 19.1557 4.17343 19.398 4.44397 19.398H7.4976C7.67252 19.3979 7.84169 19.3355 7.97468 19.2219C8.10766 19.1082 8.19575 18.9509 8.22308 18.7781L8.25282 18.6225L8.82835 14.975L8.86543 14.7734C8.89276 14.6006 8.98084 14.4433 9.11381 14.3296C9.24679 14.216 9.41594 14.1535 9.59085 14.1535H10.0479C13.0059 14.1535 15.3222 12.9517 15.999 9.47611C16.2815 8.02364 16.1354 6.81097 15.388 5.95919C15.1613 5.7012 14.8798 5.48813 14.5518 5.31421C14.5341 5.42652 14.5148 5.54033 14.4918 5.65784Z" fill="#2790C3"/>
<path id="Vector_4" d="M13.7423 4.99132C13.6217 4.95611 13.4999 4.92493 13.3773 4.89784C13.2488 4.8696 13.1196 4.84503 12.9897 4.82418C12.5249 4.74895 12.0172 4.71344 11.472 4.71344H6.87247C6.7627 4.71319 6.6543 4.73784 6.55543 4.78553C6.44791 4.83686 6.35452 4.91362 6.28335 5.00917C6.21218 5.10472 6.16538 5.21618 6.14699 5.33389L5.16935 11.5326L5.14111 11.7133C5.20542 11.3054 5.55427 11.0046 5.96742 11.0046H7.6893C11.0709 11.0046 13.7188 9.63106 14.4922 5.6577C14.5153 5.54019 14.5346 5.42631 14.5523 5.31407C14.3565 5.21067 14.1445 5.12132 13.9161 5.0456C13.8585 5.0265 13.8006 5.0084 13.7423 4.99132" fill="#1F264F"/>
</g>
</svg>
