<svg width="89" height="47" viewBox="0 0 89 47" fill="none" xmlns="http://www.w3.org/2000/svg">
<g id="Paypal" filter="url(#filter0_dd_1051_8238)">
<g id="Paypal_2">
<path d="M16.9281 27.752L17.1868 26.1091L16.6106 26.0957H13.859L15.7712 13.9721C15.7771 13.9355 15.7964 13.9013 15.8246 13.8771C15.8528 13.8529 15.889 13.8395 15.9266 13.8395H20.5662C22.1065 13.8395 23.1694 14.16 23.7244 14.7926C23.9845 15.0893 24.1503 15.3994 24.2304 15.7407C24.3144 16.0988 24.316 16.5266 24.2338 17.0484L24.2279 17.0864V17.4208L24.4881 17.5682C24.7073 17.6844 24.8813 17.8174 25.0148 17.9698C25.2375 18.2235 25.3815 18.5459 25.4423 18.9282C25.5051 19.3214 25.4843 19.7893 25.3815 20.319C25.2627 20.9283 25.0708 21.459 24.8116 21.8933C24.5731 22.2934 24.2694 22.6252 23.9089 22.8824C23.5646 23.1267 23.1556 23.3122 22.6931 23.431C22.2449 23.5476 21.734 23.6065 21.1736 23.6065H20.8125C20.5543 23.6065 20.3035 23.6995 20.1067 23.8662C19.9093 24.0363 19.7786 24.2687 19.7386 24.5229L19.7114 24.6709L19.2544 27.5665L19.2336 27.6729C19.2282 27.7066 19.2188 27.7234 19.205 27.7348C19.1926 27.745 19.1748 27.752 19.1574 27.752H16.9281Z" fill="#253B80"/>
<path d="M24.7336 17.1257C24.7198 17.2142 24.704 17.3047 24.6862 17.3977C24.0742 20.5388 21.981 21.6239 19.3075 21.6239H17.9463C17.6194 21.6239 17.3438 21.8613 17.2929 22.1838L16.3985 27.8561C16.3654 28.0678 16.5287 28.2587 16.7423 28.2587H19.1567C19.4426 28.2587 19.6854 28.051 19.7303 27.7691L19.7541 27.6464L20.2088 24.762L20.238 24.6038C20.2824 24.3209 20.5257 24.1132 20.8116 24.1132H21.1727C23.5118 24.1132 25.343 23.1636 25.8782 20.4156C26.1018 19.2677 25.986 18.3092 25.3944 17.6351C25.2154 17.4318 24.9933 17.2632 24.7336 17.1257Z" fill="#179BD7"/>
<path d="M24.0923 16.8697C23.9989 16.8425 23.9023 16.8178 23.8034 16.7955C23.704 16.7738 23.602 16.7545 23.4973 16.7377C23.1302 16.6783 22.7281 16.6501 22.2972 16.6501H18.6607C18.5712 16.6501 18.4862 16.6704 18.41 16.707C18.2423 16.7876 18.1177 16.9464 18.0875 17.1407L17.3138 22.0401L17.2916 22.183C17.3425 21.8605 17.6181 21.6231 17.945 21.6231H19.3062C21.9797 21.6231 24.0731 20.5375 24.6849 17.3969C24.7031 17.304 24.7185 17.2135 24.7323 17.1249C24.5775 17.0428 24.4098 16.9726 24.2293 16.9127C24.1848 16.8979 24.1388 16.8836 24.0923 16.8697Z" fill="#222D65"/>
<path d="M18.0893 17.1411C18.1195 16.9467 18.2442 16.7879 18.4118 16.7078C18.4886 16.6712 18.5731 16.6509 18.6626 16.6509H22.2992C22.7301 16.6509 23.1322 16.6791 23.4991 16.7385C23.604 16.7553 23.706 16.7746 23.8053 16.7963C23.9043 16.8186 24.0007 16.8433 24.0942 16.8705C24.1407 16.8844 24.1867 16.8987 24.2316 16.9131C24.4122 16.9729 24.5799 17.0436 24.7347 17.1252C24.9168 15.9645 24.7333 15.1741 24.1056 14.4585C23.4136 13.6706 22.1646 13.3333 20.5665 13.3333H15.9268C15.6003 13.3333 15.3219 13.5707 15.2714 13.8937L13.3389 26.1419C13.3008 26.3842 13.4877 26.6029 13.7321 26.6029H16.5966L18.0893 17.1411Z" fill="#253B80"/>
<path fill-rule="evenodd" clip-rule="evenodd" d="M36.2379 16.535H32.8406C32.6081 16.535 32.4104 16.7039 32.3742 16.9333L31.0001 25.644C30.9728 25.816 31.1059 25.9709 31.2803 25.9709H32.9022C33.1347 25.9709 33.3324 25.802 33.3687 25.5721L33.7393 23.2227C33.775 22.9926 33.9732 22.8239 34.2052 22.8239H35.2807C37.5186 22.8239 38.8101 21.741 39.1475 19.5953C39.2995 18.6566 39.154 17.919 38.7142 17.4022C38.2314 16.8352 37.3749 16.535 36.2379 16.535ZM36.6299 19.7164C36.4441 20.9354 35.5127 20.9354 34.6121 20.9354H34.0994L34.459 18.6589C34.4804 18.5214 34.5996 18.42 34.7387 18.42H34.9737C35.5872 18.42 36.1659 18.42 36.465 18.7697C36.6432 18.9784 36.6979 19.2882 36.6299 19.7164ZM46.3932 19.6774H44.7663C44.6277 19.6774 44.5079 19.7787 44.4866 19.9164L44.4146 20.3713L44.3008 20.2065C43.9486 19.6953 43.1634 19.5245 42.3795 19.5245C40.5815 19.5245 39.0462 20.886 38.7471 22.7959C38.5917 23.7484 38.8126 24.6593 39.3531 25.2947C39.8489 25.8787 40.5583 26.1221 41.4022 26.1221C42.8507 26.1221 43.6542 25.1908 43.6542 25.1908L43.5815 25.6429C43.5542 25.8157 43.6873 25.9707 43.8606 25.9707H45.3261C45.5592 25.9707 45.7558 25.8017 45.7925 25.5719L46.6718 20.0042C46.6997 19.833 46.567 19.6774 46.3932 19.6774ZM44.1254 22.8434C43.9684 23.7728 43.2307 24.3966 42.29 24.3966C41.8176 24.3966 41.4399 24.2451 41.1976 23.958C40.9572 23.673 40.8657 23.2671 40.9422 22.8152C41.0889 21.8937 41.839 21.2496 42.7654 21.2496C43.2273 21.2496 43.6029 21.4029 43.8503 21.6925C44.0981 21.9851 44.1965 22.3934 44.1254 22.8434ZM53.4228 19.6771H55.0578C55.2867 19.6771 55.4203 19.9339 55.2902 20.1217L49.8527 27.9695C49.7647 28.0966 49.6196 28.1722 49.4647 28.1722H47.8318C47.6019 28.1722 47.4677 27.9134 47.6008 27.7252L49.2939 25.3356L47.4932 20.0516C47.4309 19.8679 47.5665 19.6771 47.7619 19.6771H49.3684C49.5771 19.6771 49.7612 19.8141 49.8215 20.0139L50.7771 23.2052L53.032 19.8842C53.1203 19.7546 53.267 19.6771 53.4228 19.6771Z" fill="#253B80"/>
<path fill-rule="evenodd" clip-rule="evenodd" d="M71.1488 25.6433L72.5431 16.7733C72.5645 16.6356 72.6838 16.5342 72.8224 16.5337H74.392C74.5654 16.5337 74.6985 16.6891 74.6711 16.8611L73.2962 25.5713C73.2603 25.8012 73.0626 25.9701 72.8297 25.9701H71.4279C71.2546 25.9701 71.1215 25.8152 71.1488 25.6433ZM60.471 16.5342H57.0731C56.8411 16.5342 56.6434 16.7032 56.6071 16.9325L55.2331 25.6433C55.2057 25.8152 55.3388 25.9701 55.5124 25.9701H57.2558C57.4179 25.9701 57.5565 25.852 57.5818 25.6911L57.9717 23.2219C58.0076 22.9918 58.2057 22.8231 58.4377 22.8231H59.5126C61.751 22.8231 63.0422 21.7403 63.3799 19.5945C63.5323 18.6558 63.3859 17.9182 62.9464 17.4015C62.4638 16.8344 61.608 16.5342 60.471 16.5342ZM60.8629 19.7157C60.6776 20.9346 59.7462 20.9346 58.845 20.9346H58.3328L58.6931 18.6581C58.7144 18.5206 58.8326 18.4193 58.9721 18.4193H59.2071C59.8202 18.4193 60.3995 18.4193 60.6983 18.7689C60.8767 18.9776 60.931 19.2874 60.8629 19.7157ZM70.6254 19.6766H68.9996C68.8599 19.6766 68.7413 19.778 68.7203 19.9157L68.6484 20.3705L68.5341 20.2057C68.182 19.6945 67.3971 19.5237 66.6132 19.5237C64.8153 19.5237 63.2804 20.8852 62.9813 22.7951C62.8264 23.7476 63.0464 24.6586 63.5868 25.2939C64.0836 25.8779 64.7921 26.1214 65.636 26.1214C67.0845 26.1214 67.8877 25.19 67.8877 25.19L67.8153 25.6421C67.7879 25.815 67.921 25.9699 68.0955 25.9699H69.5603C69.7923 25.9699 69.99 25.8009 70.0263 25.5711L70.9061 20.0035C70.933 19.8322 70.7999 19.6766 70.6254 19.6766ZM68.3578 22.8427C68.2017 23.772 67.4631 24.3958 66.5222 24.3958C66.0507 24.3958 65.6723 24.2443 65.4298 23.9573C65.1893 23.6722 65.099 23.2663 65.1746 22.8144C65.322 21.8929 66.0712 21.2488 66.9976 21.2488C67.4597 21.2488 67.8351 21.4021 68.0826 21.6918C68.3314 21.9844 68.4298 22.3926 68.3578 22.8427Z" fill="#179BD7"/>
</g>
</g>
<defs>
<filter id="filter0_dd_1051_8238" x="-11.9403" y="-5.97015" width="112.214" height="63.8806" filterUnits="userSpaceOnUse" color-interpolation-filters="sRGB">
<feFlood flood-opacity="0" result="BackgroundImageFix"/>
<feColorMatrix in="SourceAlpha" type="matrix" values="0 0 0 0 0 0 0 0 0 0 0 0 0 0 0 0 0 0 127 0" result="hardAlpha"/>
<feOffset dy="0.597015"/>
<feGaussianBlur stdDeviation="2.98507"/>
<feColorMatrix type="matrix" values="0 0 0 0 0.717647 0 0 0 0 0.717647 0 0 0 0 0.717647 0 0 0 0.08 0"/>
<feBlend mode="normal" in2="BackgroundImageFix" result="effect1_dropShadow_1051_8238"/>
<feColorMatrix in="SourceAlpha" type="matrix" values="0 0 0 0 0 0 0 0 0 0 0 0 0 0 0 0 0 0 127 0" result="hardAlpha"/>
<feOffset dy="5.97015"/>
<feGaussianBlur stdDeviation="5.97015"/>
<feColorMatrix type="matrix" values="0 0 0 0 0.717647 0 0 0 0 0.717647 0 0 0 0 0.717647 0 0 0 0.08 0"/>
<feBlend mode="normal" in2="effect1_dropShadow_1051_8238" result="effect2_dropShadow_1051_8238"/>
<feBlend mode="normal" in="SourceGraphic" in2="effect2_dropShadow_1051_8238" result="shape"/>
</filter>
</defs>
</svg>
