<svg width="24" height="24" viewBox="0 0 24 24" fill="none" xmlns="http://www.w3.org/2000/svg">
<g id="Tether">
<path id="Coin" d="M23.6433 14.8962C22.042 21.3208 15.5349 25.244 9.0985 23.6417C2.67383 22.0356 -1.24298 15.5285 0.358284 9.1038C1.95955 2.67916 8.46271 -1.24396 14.8835 0.358273C21.3238 1.94087 25.2406 8.46762 23.6433 14.8962Z" fill="#F6F8FC"/>
<path id="Tether_2" fill-rule="evenodd" clip-rule="evenodd" d="M7.58704 6.96094H16.5725C16.7869 6.96094 16.9849 7.07204 17.0919 7.25228L19.7098 11.6651C19.8455 11.894 19.8052 12.1828 19.6115 12.3684L12.4058 19.2739C12.1724 19.4976 11.7969 19.4976 11.5635 19.2739L4.36764 12.3777C4.1695 12.1878 4.1324 11.8905 4.2781 11.6603L7.07635 7.23812C7.18533 7.0659 7.37872 6.96094 7.58704 6.96094ZM15.4123 8.93112V10.1693H12.8527V11.0278C14.6504 11.1195 15.9991 11.4963 16.0091 11.9479L16.0091 12.8894C15.9991 13.341 14.6504 13.7178 12.8527 13.8095V15.9163H11.1531V13.8095C9.35544 13.7178 8.0067 13.341 7.99669 12.8894L7.99676 11.9479C8.00675 11.4963 9.35544 11.1195 11.1531 11.0278V10.1693H8.59353V8.93112H15.4123ZM12.0029 13.1627C13.9214 13.1627 15.5249 12.8441 15.9173 12.4186C15.5845 12.0578 14.3808 11.7739 12.8527 11.6959V12.5947C12.5788 12.6087 12.2945 12.6161 12.0029 12.6161C11.7113 12.6161 11.427 12.6087 11.1531 12.5947V11.6959C9.625 11.7739 8.42133 12.0578 8.08855 12.4186C8.48098 12.8441 10.0845 13.1627 12.0029 13.1627Z" fill="#009393"/>
</g>
</svg>
