<svg width="168" height="69" viewBox="0 0 168 69" fill="none" xmlns="http://www.w3.org/2000/svg">
<path id="Vector" d="M143.602 6.59823C146.415 8.37179 149.136 6.62928 148.901 4.00913C148.726 1.81416 145.936 -0.0409637 143.845 1.011C143.369 1.29729 142.972 1.69625 142.689 2.17236C142.405 2.64848 142.245 3.18699 142.221 3.73998C142.197 4.29297 142.31 4.84329 142.551 5.34196C142.793 5.84063 143.154 6.27219 143.602 6.59823ZM147.534 3.91456C147.641 4.2505 147.614 4.61428 147.459 4.93085C147.304 5.24742 147.032 5.49265 146.701 5.61595C143.083 6.59551 142.92 2.27115 145.102 2.2005C145.637 2.1945 146.16 2.35698 146.597 2.66478C147.034 2.97258 147.362 3.40996 147.534 3.91456ZM160.232 8.61314C160.563 9.85981 161.04 11.0634 161.653 12.1991C161.295 12.1161 161.172 12.2433 159.896 12.9916C157.508 14.35 157.478 14.2981 157.37 14.6119C157.349 14.7072 157.354 14.8066 157.387 14.8987C157.42 14.9908 157.478 15.0719 157.555 15.1325C157.632 15.1931 157.724 15.2309 157.821 15.2414C157.919 15.2519 158.017 15.2347 158.105 15.1919C158.462 14.9894 159.6 14.5252 160.506 14.1364C161.862 13.5487 161.991 13.5327 162.113 13.2226C162.162 13.3091 163.216 15.5898 163.55 16.455C163.614 16.5517 163.707 16.6248 163.817 16.6632C163.926 16.7017 164.045 16.7033 164.156 16.6679C164.266 16.6324 164.362 16.5619 164.428 16.467C164.494 16.3722 164.528 16.2583 164.523 16.1428C164.322 15.5915 163.666 13.3605 163.528 12.8191C163.391 12.2777 163.253 12.5397 163.469 12.4743C164.85 11.7924 166.19 11.0305 167.481 10.1923C167.609 10.1302 167.709 10.0228 167.761 9.89112C167.814 9.75945 167.815 9.61303 167.764 9.48058C167.695 9.35894 167.579 9.26986 167.444 9.23295C167.308 9.19603 167.163 9.2143 167.041 9.28373C166.711 9.47143 163.374 10.922 162.984 11.1665C162.881 11.2278 162.796 11.3157 162.739 11.421C162.584 10.9698 161.316 8.37514 161.306 8.35783C161.272 8.21589 161.183 8.09321 161.058 8.01678C160.934 7.94035 160.784 7.91644 160.641 7.95029C160.499 7.98415 160.376 8.07301 160.299 8.19732C160.222 8.32163 160.198 8.4712 160.232 8.61314ZM16.3454 47.9629C16.1778 45.6604 13.2974 43.788 11.1325 44.8931C10.7446 45.1241 10.4063 45.429 10.1367 45.7903C9.86714 46.1517 9.67168 46.5624 9.56147 46.999C9.45127 47.4357 9.42847 47.8897 9.49439 48.3351C9.56032 48.7805 9.71368 49.2086 9.9457 49.595C11.713 52.6397 16.6378 51.227 16.3454 47.9629ZM12.9577 46.0692C14.7225 46.4767 15.9953 48.6783 14.0847 49.6043C13.7399 49.853 13.3185 49.9733 12.8938 49.9444C12.4692 49.9156 12.0681 49.7393 11.7604 49.4463C10.2106 48.0676 11.1755 45.6717 12.9403 46.0791L12.9577 46.0692ZM7.95145 67.3188C7.75451 66.7539 7.07591 64.4437 6.94717 63.8974C6.90797 63.7687 6.8402 63.6504 6.74888 63.5513C8.22894 62.8729 9.65416 62.0815 11.0118 61.1842C11.1339 61.1147 11.2233 60.9998 11.2604 60.8647C11.2974 60.7296 11.2791 60.5854 11.2094 60.4638C11.1397 60.3421 11.0244 60.253 10.8888 60.2161C10.7532 60.1792 10.6084 60.1975 10.4864 60.2669C10.3474 60.3459 9.46905 60.7422 8.66513 61.1077C6.32284 62.1645 6.1678 62.1953 6.01012 62.5029C5.86025 62.0604 4.5319 59.3397 4.53067 59.3174C4.48444 59.1873 4.39149 59.0789 4.26974 59.0131C4.148 58.9473 4.00611 58.9288 3.87147 58.9612C3.73683 58.9935 3.61899 59.0745 3.54074 59.1883C3.46247 59.3022 3.42934 59.4409 3.44773 59.5777C3.78951 60.8805 4.29219 62.1361 4.94427 63.3156C4.55734 63.203 4.39601 63.3636 3.10322 64.1218C0.636726 65.5246 0.611954 65.4813 0.538638 65.7754C0.517001 65.8707 0.522822 65.9701 0.555451 66.0622C0.588082 66.1543 0.646182 66.2353 0.723047 66.296C0.799899 66.3566 0.892391 66.3943 0.989854 66.4049C1.08732 66.4154 1.18578 66.3982 1.27388 66.3554C1.64732 66.143 2.8172 65.6727 3.74889 65.269C5.11355 64.6764 5.2959 64.653 5.42506 64.3157C5.50934 64.4628 6.52289 66.6742 6.91435 67.6792C6.9381 67.747 6.97503 67.8095 7.02303 67.8632C7.07103 67.9168 7.12916 67.9605 7.19411 67.9917C7.25905 68.023 7.32954 68.0412 7.40154 68.0453C7.47355 68.0494 7.54565 68.0393 7.61376 68.0156C7.68185 67.992 7.7446 67.9552 7.79843 67.9074C7.85225 67.8595 7.89608 67.8016 7.92745 67.7369C7.95881 67.6722 7.97707 67.602 7.98119 67.5302C7.9853 67.4585 7.9752 67.3866 7.95145 67.3188Z" fill="#232323"/>
</svg>
