<svg width="24" height="24" viewBox="0 0 24 24" fill="none" xmlns="http://www.w3.org/2000/svg">
<g id="bank-filled ">
<path id="Vector" d="M11.0739 2.61954C11.3444 2.42754 11.668 2.3244 11.9997 2.3244C12.3314 2.3244 12.655 2.42754 12.9254 2.61954L19.9478 7.60194C20.8202 8.22114 20.3834 9.59634 19.3142 9.59874H4.68868C3.61588 9.59874 3.17668 8.22234 4.05268 7.60194L11.0739 2.61954ZM12.0002 7.04874C12.2656 7.04874 12.52 6.94337 12.7075 6.7558C12.8951 6.56821 13.0004 6.31381 13.0004 6.04854C13.0004 5.78327 12.8951 5.52887 12.7075 5.3413C12.52 5.15373 12.2656 5.04834 12.0002 5.04834C11.735 5.04834 11.4806 5.15373 11.293 5.3413C11.1055 5.52887 11.0001 5.78327 11.0001 6.04854C11.0001 6.31381 11.1055 6.56821 11.293 6.7558C11.4806 6.94337 11.735 7.04874 12.0002 7.04874ZM5.40028 10.7999V15.6H7.80028V10.7999H5.40028ZM3.60028 19.3992C3.60028 17.9628 4.76428 16.7988 6.19948 16.7988H17.7998C18.4895 16.799 19.1507 17.0731 19.6382 17.5608C20.1259 18.0483 20.4 18.7095 20.4002 19.3992V19.7988C20.4002 19.9579 20.3371 20.1104 20.2246 20.223C20.112 20.3356 19.9594 20.3988 19.8002 20.3988H4.20028C4.04116 20.3988 3.88855 20.3356 3.77602 20.223C3.6635 20.1104 3.60028 19.9579 3.60028 19.7988V19.3992ZM18.6002 10.7987V15.5988H16.2002V10.7999L18.6002 10.7987ZM15.0002 10.7987V15.5988H12.6002V10.7999L15.0002 10.7987ZM11.4003 10.7987V15.5988H9.00028V10.7999L11.4003 10.7987Z" fill="black"/>
</g>
</svg>
