<svg width="24" height="24" viewBox="0 0 24 24" fill="none" xmlns="http://www.w3.org/2000/svg">
<g id="instagram-filled 1">
<path id="Vector" d="M12.0001 8.87577C10.2798 8.87577 8.87587 10.2796 8.87587 12C8.87587 13.7202 10.2798 15.1242 12.0001 15.1242C13.7204 15.1242 15.1243 13.7202 15.1243 12C15.1243 10.2796 13.7204 8.87577 12.0001 8.87577ZM21.3704 12C21.3704 10.7062 21.3821 9.42417 21.3094 8.13275C21.2368 6.63277 20.8946 5.30152 19.7977 4.20464C18.6985 3.10542 17.3696 2.76558 15.8696 2.69292C14.5759 2.62027 13.2938 2.63198 12.0025 2.63198C10.7087 2.63198 9.42667 2.62027 8.13525 2.69292C6.63526 2.76558 5.30401 3.10777 4.20714 4.20464C3.10792 5.30386 2.76808 6.63277 2.69542 8.13275C2.62276 9.4265 2.63449 10.7085 2.63449 12C2.63449 13.2914 2.62276 14.5758 2.69542 15.8671C2.76808 17.3671 3.11026 18.6984 4.20714 19.7952C5.30636 20.8945 6.63526 21.2343 8.13525 21.307C9.429 21.3796 10.711 21.3679 12.0025 21.3679C13.2962 21.3679 14.5782 21.3796 15.8696 21.307C17.3696 21.2343 18.7009 20.8921 19.7977 19.7952C20.8969 18.696 21.2368 17.3671 21.3094 15.8671C21.3844 14.5758 21.3704 13.2937 21.3704 12ZM12.0001 16.807C9.33997 16.807 7.19308 14.6601 7.19308 12C7.19308 9.3398 9.33997 7.19292 12.0001 7.19292C14.6602 7.19292 16.8071 9.3398 16.8071 12C16.8071 14.6601 14.6602 16.807 12.0001 16.807ZM17.004 8.11872C16.3829 8.11872 15.8813 7.61712 15.8813 6.99605C15.8813 6.37496 16.3829 5.87339 17.004 5.87339C17.6251 5.87339 18.1267 6.37496 18.1267 6.99605C18.1268 7.14353 18.0979 7.2896 18.0416 7.42589C17.9852 7.56215 17.9026 7.68605 17.7982 7.7903C17.694 7.89455 17.5702 7.97727 17.4338 8.0336C17.2975 8.09 17.1515 8.11887 17.004 8.11872Z" fill="black"/>
</g>
</svg>
