<svg width="24" height="24" viewBox="0 0 24 24" fill="none" xmlns="http://www.w3.org/2000/svg">
<g id="telegram 1">
<path id="Vector" d="M20.7102 3.65451C20.7102 3.65451 22.6527 2.89701 22.4902 4.73651C22.4367 5.494 21.9512 8.1455 21.5732 11.013L20.2782 19.508C20.2782 19.508 20.1702 20.7525 19.1987 20.969C18.2277 21.185 16.7707 20.2115 16.5007 19.995C16.2847 19.8325 12.4537 17.3975 11.1047 16.2075C10.7267 15.8825 10.2947 15.2335 11.1587 14.476L16.8247 9.065C17.4722 8.415 18.1197 6.9 15.4217 8.74L7.86665 13.88C7.86665 13.88 7.00315 14.4215 5.38465 13.9345L1.87665 12.852C1.87665 12.852 0.581647 12.0405 2.79415 11.229C8.19065 8.686 14.8282 6.089 20.7097 3.65401" fill="black"/>
</g>
</svg>
